<?xml version="1.0" encoding="UTF-8"?><svg id="Layer_2" xmlns="http://www.w3.org/2000/svg" xmlns:xlink="http://www.w3.org/1999/xlink" viewBox="0 0 238.79 147.9"><defs><style>.cls-1,.cls-2{fill:none;}.cls-3{clip-path:url(#clippath);}.cls-4{fill:#fff;}.cls-5{fill:#9362a6;}.cls-6{fill:#9461a9;}.cls-7{fill:#0773bb;}.cls-8{opacity:.2;}.cls-9{fill:#edf5fb;fill-rule:evenodd;}.cls-2{stroke:#0d73bb;stroke-miterlimit:10;stroke-width:4.33px;}</style><clipPath id="clippath"><rect class="cls-1" x="0" y="76.54" width="238.79" height="71.36"/></clipPath></defs><g id="Layer_1-2"><g class="cls-8"><g class="cls-3"><path class="cls-7" d="m227.9,147.9H10.89c-6.02,0-10.89-4.88-10.89-10.89v-49.58c0-6.01,4.88-10.89,10.89-10.89h217.01c6.01,0,10.89,4.88,10.89,10.89v49.58c0,6.01-4.88,10.89-10.89,10.89"/></g></g><path class="cls-5" d="m94.98,107.7v2.33h-8.8c.09-.88.38-1.72.86-2.51.48-.79,1.42-1.84,2.82-3.14,1.13-1.05,1.83-1.77,2.08-2.14.34-.52.52-1.03.52-1.54,0-.56-.15-.99-.45-1.29s-.72-.45-1.25-.45-.94.16-1.25.47c-.31.32-.49.84-.54,1.57l-2.5-.25c.15-1.38.62-2.37,1.4-2.98s1.77-.9,2.95-.9c1.29,0,2.31.35,3.05,1.05.74.7,1.11,1.56,1.11,2.6,0,.59-.11,1.15-.32,1.68-.21.53-.55,1.09-1,1.68-.3.39-.85.94-1.64,1.67-.79.73-1.29,1.21-1.51,1.45-.21.24-.38.47-.51.7h4.99Z"/><path class="cls-5" d="m101.6,110.03v-2.64h-5.36v-2.2l5.68-8.32h2.11v8.31h1.63v2.21h-1.63v2.64h-2.43Zm0-4.84v-4.48l-3.01,4.48h3.01Z"/><path class="cls-5" d="m107.1,106.54v-2.51h4.93v2.51h-4.93Z"/><path class="cls-5" d="m115.99,96.93v4.82c.81-.95,1.78-1.42,2.9-1.42.58,0,1.1.11,1.56.32.46.21.81.49,1.05.82s.4.7.48,1.11c.09.41.13,1.03.13,1.89v5.57h-2.51v-5.01c0-1-.05-1.63-.14-1.89s-.26-.48-.5-.64c-.24-.16-.54-.24-.91-.24-.42,0-.79.1-1.12.3-.33.2-.57.51-.72.92-.15.41-.23,1.01-.23,1.81v4.75h-2.51v-13.1h2.51Z"/><path class="cls-5" d="m124.08,105.15c0-.83.21-1.64.62-2.42s.99-1.38,1.75-1.79c.75-.41,1.6-.62,2.53-.62,1.43,0,2.61.47,3.53,1.4.92.93,1.38,2.11,1.38,3.53s-.46,2.63-1.39,3.57c-.93.94-2.09,1.42-3.5,1.42-.87,0-1.7-.2-2.49-.59-.79-.39-1.39-.97-1.8-1.73-.41-.76-.62-1.68-.62-2.77Zm2.57.13c0,.94.22,1.66.67,2.16.45.5,1,.75,1.65.75s1.21-.25,1.65-.75c.44-.5.67-1.23.67-2.18s-.22-1.64-.67-2.14c-.44-.5-.99-.75-1.65-.75s-1.21.25-1.65.75c-.45.5-.67,1.22-.67,2.16Z"/><path class="cls-5" d="m142.08,110.03v-1.42c-.35.51-.8.91-1.36,1.2-.56.29-1.16.44-1.78.44s-1.21-.14-1.72-.42-.87-.67-1.1-1.18-.34-1.21-.34-2.1v-6h2.51v4.36c0,1.33.05,2.15.14,2.45s.26.54.5.71c.24.18.55.26.93.26.43,0,.81-.12,1.15-.35.34-.24.57-.53.7-.88.12-.35.19-1.2.19-2.56v-4h2.51v9.49h-2.33Z"/><path class="cls-5" d="m149.42,110.03h-2.51v-9.49h2.33v1.35c.4-.64.76-1.06,1.08-1.26s.68-.3,1.08-.3c.57,0,1.12.16,1.65.47l-.78,2.19c-.42-.27-.82-.41-1.18-.41s-.65.1-.89.29-.44.54-.58,1.05c-.14.51-.21,1.57-.21,3.18v2.93Z"/><path class="cls-5" d="m89.73,131.99h-2.33v-1.39c-.39.54-.84.95-1.37,1.21-.53.27-1.06.4-1.6.4-1.09,0-2.02-.44-2.8-1.32-.78-.88-1.17-2.1-1.17-3.68s.38-2.83,1.13-3.67,1.71-1.26,2.87-1.26c1.06,0,1.98.44,2.75,1.32v-4.72h2.51v13.1Zm-6.7-4.95c0,1.01.14,1.75.42,2.2.4.66.97.98,1.7.98.58,0,1.07-.25,1.47-.74.4-.49.61-1.23.61-2.2,0-1.09-.2-1.88-.59-2.35s-.9-.72-1.51-.72-1.09.24-1.5.71c-.4.47-.6,1.18-.6,2.12Z"/><path class="cls-5" d="m98.45,131.99v-1.42c-.34.51-.8.91-1.36,1.2-.56.29-1.16.44-1.78.44s-1.21-.14-1.71-.42-.87-.67-1.1-1.18c-.23-.51-.34-1.21-.34-2.1v-6h2.51v4.36c0,1.33.05,2.15.14,2.45.09.3.26.54.5.71.24.18.55.26.93.26.43,0,.81-.12,1.15-.35.34-.24.57-.53.7-.88.12-.35.19-1.2.19-2.56v-4h2.51v9.49h-2.33Z"/><path class="cls-5" d="m105.79,131.99h-2.51v-9.49h2.33v1.35c.4-.64.76-1.06,1.08-1.26.32-.2.68-.3,1.09-.3.57,0,1.12.16,1.65.47l-.78,2.19c-.42-.27-.82-.41-1.18-.41s-.65.1-.89.29-.44.54-.58,1.05-.21,1.57-.21,3.18v2.93Z"/><path class="cls-5" d="m112.38,125.4l-2.28-.41c.26-.92.7-1.6,1.32-2.04s1.55-.66,2.79-.66c1.12,0,1.95.13,2.5.4.55.27.93.6,1.16,1.01s.33,1.16.33,2.25l-.03,2.93c0,.83.04,1.45.12,1.84.08.4.23.82.45,1.27h-2.48c-.06-.17-.15-.41-.24-.74-.04-.15-.07-.25-.09-.29-.43.42-.89.73-1.38.94s-1.01.31-1.56.31c-.98,0-1.75-.27-2.31-.79-.56-.53-.84-1.2-.84-2.01,0-.54.13-1.01.38-1.43s.62-.74,1.08-.97c.46-.22,1.13-.42,2-.58,1.17-.22,1.99-.43,2.44-.62v-.25c0-.48-.12-.83-.36-1.03-.24-.21-.69-.31-1.35-.31-.45,0-.8.09-1.05.26-.25.18-.45.48-.61.92Zm3.36,2.04c-.32.11-.83.24-1.53.38s-1.15.29-1.37.44c-.33.23-.49.53-.49.88s.13.66.39.91c.26.26.6.38,1,.38.45,0,.88-.15,1.3-.45.3-.23.5-.5.6-.83.07-.21.1-.62.1-1.22v-.5Z"/><path class="cls-5" d="m125.03,122.5v2h-1.71v3.82c0,.77.02,1.23.05,1.35.03.13.11.23.22.32.12.08.26.13.42.13.23,0,.57-.08,1.01-.24l.21,1.95c-.58.25-1.24.38-1.98.38-.45,0-.86-.08-1.22-.23-.36-.15-.63-.35-.8-.59-.17-.24-.29-.57-.35-.98-.05-.29-.08-.88-.08-1.77v-4.14h-1.15v-2h1.15v-1.89l2.52-1.47v3.35h1.71Z"/><path class="cls-5" d="m126.77,121.21v-2.32h2.51v2.32h-2.51Zm0,10.78v-9.49h2.51v9.49h-2.51Z"/><path class="cls-5" d="m131.28,127.11c0-.83.21-1.64.62-2.42s.99-1.38,1.75-1.79c.75-.41,1.59-.62,2.52-.62,1.44,0,2.61.47,3.53,1.4.92.93,1.38,2.11,1.38,3.53s-.46,2.63-1.39,3.57c-.93.94-2.09,1.42-3.5,1.42-.87,0-1.7-.2-2.49-.59-.79-.39-1.39-.97-1.8-1.73-.41-.76-.62-1.68-.62-2.77Zm2.57.13c0,.94.22,1.66.67,2.16.45.5,1,.75,1.65.75s1.2-.25,1.65-.75c.44-.5.67-1.23.67-2.18s-.22-1.64-.67-2.14c-.44-.5-.99-.75-1.65-.75s-1.21.25-1.65.75c-.45.5-.67,1.22-.67,2.16Z"/><path class="cls-5" d="m151.67,131.99h-2.51v-4.84c0-1.02-.05-1.69-.16-1.99s-.28-.53-.52-.7c-.24-.17-.53-.25-.87-.25-.43,0-.83.12-1.17.36-.34.24-.58.55-.71.95-.13.39-.19,1.12-.19,2.18v4.3h-2.51v-9.49h2.33v1.39c.83-1.07,1.87-1.61,3.13-1.61.55,0,1.06.1,1.52.3.46.2.81.45,1.04.76.24.31.4.66.49,1.05.09.39.14.96.14,1.69v5.9Z"/><path class="cls-5" d="m157.1,125.9h-1.46v-5.52c-.54.5-1.17.87-1.89,1.11v-1.33c.38-.12.8-.36,1.25-.71.45-.35.75-.76.92-1.22h1.19v7.67Z"/><path class="cls-9" d="m162.58,45.47c0,23.92-19.39,43.31-43.31,43.31s-43.31-19.39-43.31-43.31S95.35,2.17,119.27,2.17s43.31,19.39,43.31,43.31"/><path class="cls-2" d="m162.58,45.47c0,23.92-19.39,43.31-43.31,43.31s-43.31-19.39-43.31-43.31S95.35,2.17,119.27,2.17s43.31,19.39,43.31,43.31Z"/><path class="cls-6" d="m148.13,44.75c-.68,0-1.24.55-1.24,1.24,0,15.12-12.31,27.43-27.43,27.43s-27.43-12.31-27.43-27.43,12.15-27.27,27.15-27.43l-5.6,5.6c-.48.48-.48,1.27,0,1.75.24.24.56.36.88.36s.64-.12.88-.36l7.58-7.58c.23-.23.36-.55.36-.88s-.13-.64-.36-.88l-7.58-7.58c-.48-.48-1.27-.48-1.75,0-.48.48-.48,1.27,0,1.75l5.33,5.33c-16.24.29-29.36,13.59-29.36,29.9s13.42,29.91,29.91,29.91,29.91-13.42,29.91-29.91c0-.69-.55-1.24-1.24-1.24"/><polygon class="cls-4" points="89.04 31.23 92.61 39.38 97.38 37.43 102.32 36.78 103.17 40.69 99.42 45.09 94.31 49.98 89.72 54.54 89.04 60.08 90.74 62.36 114.24 61.87 115.09 52.42 106.23 52.42 113.39 44.27 114.24 34.66 107.77 27.97 102.32 27.16 96.53 27.32 90.74 29.44 89.04 31.23"/><path class="cls-6" d="m92.39,49.33l-4.12,3.56c-.84.72-1.31,1.75-1.31,2.83v4.3c0,2.11,1.79,3.82,3.99,3.82h22.49c2.2,0,3.99-1.71,3.99-3.82v-5.84c0-2.11-1.78-3.82-3.99-3.82h-1.9c3.06-3.32,5.3-7.1,5.3-11.69,0-7.98-6.07-13.34-15.11-13.34-4.7,0-9.37,1.42-12.79,3.9-1.43,1.03-1.96,2.85-1.31,4.45l2.1,5.09c.46,1.11,1.44,1.96,2.64,2.28.35.09.71.14,1.07.14.87,0,1.72-.27,2.42-.78,1.08-.79,2.72-1.74,4.36-1.74.71,0,1.07.13,1.17.19.02.04.06.16.06.38-.12,2.26-4.36,6.07-9.06,10.1m13.05-10.04c0-2.47-1.56-4.44-5.22-4.44-2.73,0-5.12,1.31-6.78,2.52l-2.1-5.09c2.39-1.73,6.1-3.13,10.39-3.13,7.17,0,11.12,4.02,11.12,9.53,0,5.09-3.85,9.15-8.44,13.07l-2.93,2.34v.09h11.95v5.84h-22.49v-4.3l4.1-3.55c6.93-5.93,10.29-9.34,10.39-12.89"/><polygon class="cls-4" points="132.91 28.1 121.59 46.15 120.37 55.02 133.52 55.02 133.52 61.44 144.53 61.75 144.84 54.41 148.2 54.41 148.51 46.15 144.23 44.62 144.53 28.41 132.91 28.1"/><path class="cls-6" d="m118.1,48.16v4.62c0,2.11,1.79,3.82,3.99,3.82h10.07v3.42c0,2.11,1.78,3.82,3.99,3.82h7.03c2.2,0,3.99-1.71,3.99-3.82v-3.43c2.12-.09,3.81-1.76,3.81-3.81v-5.32c0-2.05-1.69-3.72-3.81-3.81v-13.98c0-2.11-1.78-3.82-3.99-3.82h-9.08c-1.38,0-2.66.68-3.39,1.8l-12,18.49c-.39.6-.6,1.3-.6,2.01m3.99,0l12-18.49h9.08v17.79h3.81v5.32h-3.81v7.24h-7.03v-7.24h-14.05v-4.62Z"/><polygon class="cls-6" points="136.15 36.33 128.91 47.45 136.15 47.45 136.15 36.33"/></g></svg>