<?xml version="1.0" encoding="UTF-8"?><svg id="Layer_2" xmlns="http://www.w3.org/2000/svg" viewBox="0 0 662.87 261.93"><defs><style>.cls-1{letter-spacing:.02em;}.cls-1,.cls-2,.cls-3,.cls-4,.cls-5,.cls-6,.cls-7,.cls-8,.cls-9,.cls-10,.cls-11,.cls-12{fill:#5a5a5c;}.cls-1,.cls-3,.cls-5,.cls-6,.cls-7,.cls-8,.cls-9,.cls-10,.cls-11,.cls-12{font-family:ArialMT, Arial;}.cls-13{fill:none;stroke:#0d74b8;stroke-linejoin:round;stroke-width:.91px;}.cls-14{fill:#eef2fa;}.cls-3{letter-spacing:.02em;}.cls-4,.cls-15,.cls-16{font-family:Arial-BoldMT, Arial;font-weight:700;}.cls-4,.cls-16{font-size:20px;}.cls-5{letter-spacing:4.01em;}.cls-6{letter-spacing:11.92em;}.cls-15,.cls-16{fill:#2461ac;}.cls-7{letter-spacing:14.66em;}.cls-8{letter-spacing:4.82em;}.cls-17{font-size:18px;}.cls-9{letter-spacing:15.09em;}.cls-16{letter-spacing:.02em;}.cls-10{letter-spacing:16.03em;}.cls-11{letter-spacing:4.29em;}.cls-12{letter-spacing:4.57em;}</style></defs><g id="Layer_1-2"><rect class="cls-14" x="0" y="92.5" width="417.79" height="31.57"/><rect class="cls-14" x="417.79" y="92.5" width="224.66" height="31.57"/><rect class="cls-14" x="0" y="171.53" width="417.79" height="31.57"/><rect class="cls-14" x="417.79" y="171.53" width="224.66" height="31.57"/><line class="cls-13" y1="49.07" x2="662.87" y2="49.07"/><path class="cls-2" d="m522.27,17.16V2.84h4.64c1.76,0,2.9.07,3.44.21.82.21,1.51.68,2.06,1.4s.83,1.65.83,2.79c0,.88-.16,1.62-.48,2.22s-.72,1.07-1.22,1.41-.99.57-1.5.68c-.69.14-1.69.21-3,.21h-1.88v5.4h-2.89Zm2.89-11.89v4.06h1.58c1.14,0,1.9-.08,2.29-.22s.69-.38.9-.7.33-.69.33-1.11c0-.52-.15-.95-.46-1.29s-.69-.55-1.16-.63c-.34-.07-1.04-.1-2.08-.1h-1.4Z"/><path class="cls-2" d="m535.59,17.16V2.84h2.74v14.32h-2.74Z"/><path class="cls-2" d="m543.2,9.95l-2.49-.45c.28-1,.76-1.75,1.45-2.23s1.7-.72,3.05-.72c1.22,0,2.14.15,2.73.43s1.02.66,1.26,1.1.37,1.26.37,2.46l-.03,3.2c0,.91.04,1.58.13,2.02s.25.9.49,1.39h-2.71c-.07-.18-.16-.45-.26-.81-.05-.16-.08-.27-.1-.32-.47.46-.97.8-1.5,1.03s-1.1.34-1.71.34c-1.07,0-1.91-.29-2.52-.87s-.92-1.31-.92-2.2c0-.59.14-1.11.42-1.57s.67-.81,1.18-1.05,1.23-.46,2.18-.64c1.28-.24,2.17-.47,2.67-.67v-.27c0-.53-.13-.9-.39-1.13s-.75-.34-1.47-.34c-.49,0-.87.1-1.14.29s-.5.53-.66,1.01Zm3.67,2.23c-.35.12-.91.26-1.67.42s-1.26.32-1.49.48c-.36.25-.54.58-.54.97s.14.72.43,1,.65.42,1.09.42c.5,0,.97-.16,1.42-.49.33-.25.55-.55.65-.91.07-.23.11-.68.11-1.34v-.55Z"/><path class="cls-2" d="m561.67,9.85l-2.71.49c-.09-.54-.3-.95-.62-1.22s-.74-.41-1.25-.41c-.68,0-1.23.24-1.64.71s-.61,1.26-.61,2.37c0,1.23.21,2.1.62,2.61s.97.76,1.67.76c.52,0,.95-.15,1.28-.44s.57-.81.7-1.53l2.7.46c-.28,1.24-.82,2.17-1.61,2.8s-1.86.95-3.19.95c-1.52,0-2.73-.48-3.63-1.44s-1.35-2.28-1.35-3.97.45-3.05,1.36-4,2.13-1.43,3.67-1.43c1.26,0,2.27.27,3.01.82s1.28,1.37,1.61,2.49Z"/><path class="cls-2" d="m570.12,13.86l2.73.46c-.35,1-.91,1.77-1.67,2.29s-1.71.79-2.85.79c-1.8,0-3.14-.59-4-1.77-.68-.94-1.03-2.14-1.03-3.57,0-1.72.45-3.07,1.35-4.04s2.03-1.46,3.41-1.46c1.54,0,2.76.51,3.65,1.53s1.32,2.58,1.28,4.68h-6.88c.02.81.24,1.45.66,1.9s.95.68,1.58.68c.43,0,.79-.12,1.08-.35s.51-.61.66-1.13Zm.16-2.77c-.02-.79-.22-1.4-.62-1.81s-.87-.62-1.43-.62c-.6,0-1.09.22-1.48.65s-.58,1.03-.58,1.78h4.1Z"/><path class="cls-2" d="m575.48,17.16V2.84h2.74v5.16c.85-.96,1.85-1.45,3.01-1.45,1.26,0,2.31.46,3.13,1.37s1.24,2.23,1.24,3.94-.42,3.13-1.26,4.09-1.87,1.44-3.07,1.44c-.59,0-1.18-.15-1.75-.44s-1.07-.73-1.49-1.31v1.52h-2.55Zm2.72-5.41c0,1.07.17,1.87.51,2.38.48.73,1.11,1.09,1.89,1.09.61,0,1.12-.26,1.55-.78s.64-1.33.64-2.45c0-1.18-.21-2.04-.64-2.56s-.98-.79-1.65-.79-1.2.25-1.64.77-.65,1.29-.65,2.33Z"/><path class="cls-2" d="m587.18,11.83c0-.91.22-1.79.67-2.65s1.09-1.5,1.91-1.95,1.74-.67,2.76-.67c1.57,0,2.85.51,3.86,1.53s1.5,2.31,1.5,3.86-.51,2.87-1.52,3.9-2.29,1.55-3.82,1.55c-.95,0-1.86-.21-2.72-.64s-1.52-1.06-1.97-1.89-.67-1.84-.67-3.03Zm2.81.15c0,1.03.24,1.82.73,2.36s1.09.82,1.81.82,1.32-.27,1.8-.82.73-1.34.73-2.38-.24-1.8-.73-2.34-1.09-.82-1.8-.82-1.32.27-1.81.82-.73,1.33-.73,2.36Z"/><path class="cls-2" d="m530.4,45.37h-1.88c-1-1.5-1.75-3.07-2.28-4.69s-.78-3.19-.78-4.71c0-1.88.32-3.66.97-5.34.56-1.46,1.27-2.8,2.13-4.03h1.88c-.89,1.97-1.51,3.65-1.84,5.03s-.5,2.85-.5,4.4c0,1.07.1,2.16.3,3.28s.47,2.18.82,3.19c.23.66.63,1.62,1.2,2.86Z"/><path class="cls-2" d="m541.94,41.16h-2.74v-5.29c0-1.12-.06-1.84-.18-2.17s-.31-.58-.57-.77-.58-.27-.95-.27c-.48,0-.9.13-1.28.39s-.64.61-.78,1.04-.21,1.22-.21,2.38v4.7h-2.74v-10.37h2.55v1.52c.91-1.17,2.04-1.76,3.42-1.76.61,0,1.16.11,1.66.33s.88.5,1.14.83.44.72.54,1.15.15,1.04.15,1.85v6.45Z"/><path class="cls-2" d="m544.12,33.19v-2.52h10.01v2.52h-10.01Zm0,4.34v-2.53h10.01v2.53h-10.01Z"/><path class="cls-2" d="m561.2,41.16v-2.88h-5.86v-2.4l6.21-9.09h2.3v9.08h1.78v2.41h-1.78v2.88h-2.66Zm0-5.29v-4.89l-3.29,4.89h3.29Z"/><path class="cls-2" d="m573.96,41.16h-2.74v-10.34c-1,.94-2.18,1.63-3.54,2.08v-2.49c.72-.23,1.49-.68,2.33-1.33s1.42-1.42,1.73-2.29h2.23v14.38Z"/><path class="cls-2" d="m580.42,33.43c-.71-.3-1.23-.71-1.55-1.24s-.48-1.1-.48-1.72c0-1.07.37-1.95,1.12-2.65s1.8-1.04,3.18-1.04,2.42.35,3.17,1.04,1.13,1.58,1.13,2.65c0,.66-.17,1.25-.52,1.77s-.83.91-1.46,1.19c.79.32,1.4.78,1.81,1.4s.62,1.32.62,2.12c0,1.32-.42,2.4-1.26,3.22s-1.96,1.24-3.36,1.24c-1.3,0-2.39-.34-3.25-1.03-1.02-.81-1.53-1.91-1.53-3.32,0-.77.19-1.49.58-2.13s.99-1.15,1.82-1.5Zm.31,3.37c0,.75.19,1.34.58,1.77s.87.63,1.45.63,1.04-.2,1.41-.61.56-.99.56-1.76c0-.67-.19-1.21-.57-1.62s-.86-.61-1.44-.61c-.67,0-1.17.23-1.5.69s-.49.96-.49,1.5Zm.25-6.13c0,.55.15.97.46,1.28s.72.46,1.24.46.94-.16,1.25-.46.47-.74.47-1.28c0-.51-.15-.93-.46-1.24s-.72-.46-1.23-.46-.95.16-1.26.47-.47.73-.47,1.24Z"/><path class="cls-2" d="m589.01,45.37c.54-1.16.92-2.05,1.14-2.67s.43-1.33.62-2.14.33-1.57.42-2.3.14-1.47.14-2.23c0-1.55-.17-3.02-.5-4.4s-.94-3.06-1.84-5.03h1.87c.98,1.4,1.75,2.88,2.29,4.45s.82,3.16.82,4.78c0,1.36-.21,2.82-.64,4.38-.49,1.75-1.29,3.47-2.41,5.17h-1.89Z"/><text class="cls-4" transform="translate(85.23 30.61)"><tspan x="0" y="0">ADVERSE REACTIONS</tspan></text><text class="cls-16" transform="translate(373.37 17.16)"><tspan x="0" y="0">YUPELRI</tspan><tspan x="8.05" y="24">(n=395)</tspan></text><text class="cls-17" transform="translate(31.79 74.14)"><tspan class="cls-1" x="0" y="0">Cough </tspan><tspan class="cls-10" x="59.99" y="0">	</tspan><tspan class="cls-15" x="353.52" y="0">17 (4%)</tspan><tspan class="cls-5" x="416.54" y="0">	</tspan><tspan class="cls-3" x="493.67" y="0">17 (4%)</tspan><tspan class="cls-1" x="0" y="39.47">Nasopharyngitis</tspan><tspan class="cls-6" x="133.93" y="39.47">	</tspan><tspan class="cls-15" x="353.52" y="39.47">15 (4%)</tspan><tspan class="cls-11" x="416.54" y="39.47">	</tspan><tspan class="cls-1" x="498.83" y="39.47">9 (2%)</tspan><tspan class="cls-1" x="0" y="78.94">Upper respiratory tract infection</tspan><tspan class="cls-8" x="261.8" y="78.94">	</tspan><tspan class="cls-15" x="353.52" y="78.94">11 (3%)</tspan><tspan class="cls-11" x="416.54" y="78.94">	</tspan><tspan class="cls-1" x="498.83" y="78.94">9 (2%)</tspan><tspan class="cls-1" x="0" y="118.42">Headache</tspan><tspan class="cls-7" x="84.66" y="118.42">	</tspan><tspan class="cls-15" x="353.52" y="118.42">16 (4%)</tspan><tspan class="cls-5" x="416.54" y="118.42">	</tspan><tspan class="cls-3" x="493.67" y="118.42">11 (3%)</tspan><tspan class="cls-1" x="0" y="157.89">Back pain</tspan><tspan class="cls-9" x="81.96" y="157.89">	</tspan><tspan class="cls-15" x="358.52" y="157.89">9 (2%)</tspan><tspan class="cls-12" x="411.54" y="157.89">	</tspan><tspan class="cls-3" x="498.83" y="157.89">3 (1%)</tspan></text></g></svg>