<?xml version="1.0" encoding="UTF-8"?><svg id="Layer_2" xmlns="http://www.w3.org/2000/svg" xmlns:xlink="http://www.w3.org/1999/xlink" viewBox="0 0 1920 1080"><defs><style>.cls-1,.cls-2{fill:none;}.cls-3{clip-path:url(#clippath);}.cls-4{clip-path:url(#clippath-1);}.cls-5{clip-path:url(#clippath-4);}.cls-6{clip-path:url(#clippath-3);}.cls-7{clip-path:url(#clippath-2);}.cls-8{clip-path:url(#clippath-7);}.cls-9{clip-path:url(#clippath-8);}.cls-10{clip-path:url(#clippath-6);}.cls-11{clip-path:url(#clippath-5);}.cls-12{clip-path:url(#clippath-9);}.cls-13{fill:url(#radial-gradient-10);}.cls-14{fill:url(#radial-gradient-11);}.cls-15{clip-path:url(#clippath-14);}.cls-16{clip-path:url(#clippath-13);}.cls-17{clip-path:url(#clippath-12);}.cls-18{clip-path:url(#clippath-10);}.cls-19{clip-path:url(#clippath-15);}.cls-20{clip-path:url(#clippath-16);}.cls-21{clip-path:url(#clippath-11);}.cls-22{fill:url(#radial-gradient-6);}.cls-23{fill:url(#radial-gradient-5);}.cls-24{fill:url(#radial-gradient-3);}.cls-25{fill:url(#radial-gradient-4);}.cls-26{fill:url(#radial-gradient-9);}.cls-27{fill:url(#radial-gradient-8);}.cls-28{fill:url(#radial-gradient-7);}.cls-29{fill:url(#radial-gradient-2);}.cls-2{stroke:#595a5c;stroke-linecap:round;stroke-linejoin:round;stroke-width:1px;}.cls-30{opacity:.35;}.cls-31{fill:url(#radial-gradient);}</style><radialGradient id="radial-gradient" cx="2139.26" cy="3022.52" fx="2139.26" fy="3022.52" r="1" gradientTransform="translate(-2603754.16 1844085.27) rotate(-90) scale(861.77)" gradientUnits="userSpaceOnUse"><stop offset="0" stop-color="#c1a0cb"/><stop offset=".09" stop-color="#b29cc9"/><stop offset=".27" stop-color="#8d93c6"/><stop offset=".52" stop-color="#5084c1"/><stop offset=".78" stop-color="#0873bb"/><stop offset="1" stop-color="#0773bb"/></radialGradient><clipPath id="clippath"><path class="cls-1" d="m517.32,24.21c-1.98.54-3.28,2.34-3.28,4.29,0,.39.05.79.16,1.18l4.09,14.89c.65,2.37,3.1,3.77,5.47,3.12,2.37-.65,3.77-3.1,3.12-5.48l-4.09-14.89c-.54-1.98-2.34-3.28-4.29-3.28-.39,0-.79.05-1.18.16m-45.32,3.02l-4.01,15.35c-.1.38-.15.76-.15,1.13,0,1.98,1.33,3.78,3.33,4.31,2.38.62,4.81-.8,5.44-3.18l4.01-15.35c.62-2.38-.8-4.81-3.18-5.44-.38-.1-.76-.15-1.13-.15-1.98,0-3.78,1.33-4.31,3.33m-36.14-22.1l-10.44,10.57c-.86.87-1.29,2-1.29,3.13s.44,2.3,1.32,3.17c1.75,1.73,4.57,1.71,6.3-.04l10.44-10.57c1.73-1.75,1.71-4.57-.04-6.3-.87-.86-2-1.29-3.13-1.29s-2.3.44-3.17,1.32m116.41-.69c-.86.87-1.28,2-1.28,3.13s.44,2.3,1.32,3.17l10.55,10.43c1.75,1.73,4.57,1.71,6.3-.04,1.73-1.75,1.71-4.57-.04-6.3l-10.55-10.43c-.87-.86-2-1.29-3.13-1.29s-2.3.44-3.17,1.32m-59.85.83v46.19c0,2.46,1.99,4.45,4.45,4.45s4.45-1.99,4.45-4.45V5.26c0-2.46-1.99-4.45-4.45-4.45s-4.45,1.99-4.45,4.45M404.34,0c-.03.19-.04.38-.04.58,0,.76.19,1.52.6,2.22,1.23,2.13,3.95,2.86,6.08,1.63l7.68-4.43h-14.32Zm58.35,0l-20.55,35.59c-.4.7-.6,1.47-.6,2.22,0,1.54.8,3.04,2.23,3.86,2.13,1.23,4.85.5,6.08-1.63L472.95.04s.02-.03.02-.04h-10.29Zm58.08,0s.02.03.02.04l23.09,40c1.23,2.13,3.95,2.86,6.08,1.63,2.13-1.23,2.86-3.95,1.63-6.08L531.05,0h-10.29Zm54.31,0l7.68,4.43c2.13,1.23,4.85.5,6.08-1.63.51-.88.68-1.86.56-2.8h-14.32Z"/></clipPath><radialGradient id="radial-gradient-2" cx="2121.37" cy="3007.83" fx="2121.37" fy="3007.83" r="1" gradientTransform="translate(-373784.56 -264017.85) rotate(90) scale(124.44 -124.44)" gradientUnits="userSpaceOnUse"><stop offset="0" stop-color="#c1a0cb"/><stop offset=".48" stop-color="#c1a0cb"/><stop offset=".91" stop-color="#0773bb"/><stop offset="1" stop-color="#0773bb"/></radialGradient><clipPath id="clippath-1"><path class="cls-1" d="m0,178.73l8.04,13.93c2.21,3.83,7.1,5.14,10.93,2.93,3.83-2.21,5.14-7.1,2.93-10.93L0,146.73v32Zm23.09-50.02c-1.54,1.56-2.31,3.59-2.31,5.62s.79,4.13,2.38,5.69l18.95,18.73c3.14,3.1,8.21,3.08,11.31-.07,3.11-3.14,3.08-8.21-.07-11.31l-18.95-18.73c-1.56-1.54-3.59-2.31-5.62-2.31s-4.13.79-5.69,2.38M3.09,76.3c-.73,1.26-1.07,2.64-1.07,3.99,0,2.76,1.44,5.45,4,6.94l71.84,41.48c3.83,2.21,8.72.9,10.93-2.93,2.21-3.83.9-8.72-2.93-10.93L14.02,73.37c-1.26-.73-2.64-1.07-3.99-1.07-2.77,0-5.45,1.43-6.93,4m56.96-10.21c-.18.68-.26,1.36-.26,2.03,0,3.55,2.38,6.79,5.98,7.73l24.64,6.44c4.27,1.12,8.65-1.44,9.76-5.72,1.12-4.27-1.44-8.65-5.72-9.76l-24.64-6.44c-.68-.18-1.36-.26-2.03-.26-3.55,0-6.79,2.38-7.74,5.98M23.39,22.41c-4.42,0-8,3.58-8,8s3.58,8,8,8h82.95c4.42,0,8-3.58,8-8s-3.58-8-8-8H23.39Z"/></clipPath><radialGradient id="radial-gradient-3" cx="2128.3" cy="3015.44" fx="2128.3" fy="3015.44" r="1" gradientTransform="translate(-673998 -475611.37) rotate(90) scale(223.49 -223.49)" xlink:href="#radial-gradient-2"/><clipPath id="clippath-2"><path class="cls-1" d="m1004.03,975.71c-2.18.6-3.61,2.57-3.61,4.73,0,.43.06.87.18,1.3l4.5,16.41c.72,2.61,3.42,4.15,6.03,3.43,2.61-.72,4.15-3.42,3.43-6.03l-4.5-16.41c-.6-2.18-2.58-3.61-4.73-3.61-.43,0-.87.06-1.3.18m-49.94,3.32l-4.42,16.91c-.11.42-.16.83-.16,1.24,0,2.18,1.46,4.17,3.67,4.75,2.62.69,5.3-.89,5.99-3.51l4.42-16.91c.69-2.62-.88-5.3-3.51-5.99-.42-.11-.83-.16-1.24-.16-2.18,0-4.17,1.46-4.74,3.67m-39.82-24.35l-11.5,11.64c-.94.96-1.42,2.2-1.42,3.45s.49,2.53,1.46,3.49c1.93,1.91,5.04,1.89,6.94-.04l11.5-11.64c1.91-1.93,1.89-5.04-.04-6.94-.96-.94-2.2-1.42-3.45-1.42s-2.53.49-3.49,1.46m128.27-.76c-.94.96-1.42,2.2-1.42,3.45s.49,2.53,1.46,3.49l11.63,11.49c1.93,1.9,5.04,1.89,6.94-.04,1.9-1.93,1.89-5.04-.04-6.94l-11.63-11.49c-.96-.94-2.2-1.42-3.45-1.42s-2.53.49-3.49,1.46m-65.94.91v50.89c0,2.71,2.2,4.91,4.91,4.91s4.91-2.2,4.91-4.91v-50.89c0-2.71-2.2-4.91-4.91-4.91s-4.91,2.2-4.91,4.91m-29.95-10.65l-25.45,44.08c-.45.77-.66,1.62-.66,2.45,0,1.7.88,3.35,2.46,4.25,2.35,1.36,5.35.55,6.7-1.8l25.45-44.07c1.36-2.35.55-5.35-1.79-6.7-.77-.45-1.62-.66-2.45-.66-1.7,0-3.35.88-4.25,2.46m63.01-1.8c-1.58.91-2.46,2.56-2.46,4.26,0,.83.21,1.68.66,2.45l25.45,44.07c1.35,2.35,4.36,3.15,6.7,1.8,2.35-1.35,3.15-4.36,1.8-6.7l-25.45-44.08c-.91-1.57-2.56-2.46-4.26-2.46-.83,0-1.68.21-2.45.66m-83.62-22.41l-44.08,25.45c-1.57.91-2.45,2.56-2.45,4.26,0,.83.21,1.68.66,2.45,1.35,2.35,4.36,3.15,6.7,1.8l44.07-25.45c2.35-1.35,3.15-4.36,1.8-6.7-.91-1.58-2.56-2.46-4.25-2.46-.83,0-1.68.21-2.45.66m104.23,1.8c-.45.77-.66,1.62-.66,2.45,0,1.7.88,3.35,2.45,4.26l44.07,25.45c2.35,1.36,5.35.55,6.7-1.8,1.35-2.35.55-5.35-1.8-6.7l-44.07-25.45c-.77-.45-1.62-.66-2.45-.66-1.7,0-3.34.88-4.25,2.46m-138.23-8.69l-15.07,4.14c-2.18.6-3.61,2.57-3.61,4.73,0,.43.06.87.18,1.3.72,2.61,3.42,4.15,6.03,3.43l15.08-4.14c2.61-.72,4.15-3.42,3.43-6.03-.6-2.18-2.57-3.61-4.73-3.61-.43,0-.87.06-1.3.18m173.18,2.43c-.11.42-.16.83-.16,1.24,0,2.18,1.46,4.17,3.67,4.75l15.11,3.95c2.62.69,5.31-.88,5.99-3.51.69-2.62-.88-5.3-3.51-5.99l-15.11-3.95c-.42-.11-.83-.16-1.25-.16-2.18,0-4.17,1.46-4.74,3.67m-195.82-26.8c-2.71,0-4.91,2.2-4.91,4.91s2.2,4.91,4.91,4.91h50.89c2.71,0,4.91-2.2,4.91-4.91s-2.2-4.91-4.91-4.91h-50.89Zm173.33,0c-2.71,0-4.91,2.2-4.91,4.91s2.2,4.91,4.91,4.91h50.89c2.71,0,4.91-2.2,4.91-4.91s-2.2-4.91-4.91-4.91h-50.89Zm-169.54-23.42c-.11.41-.16.83-.16,1.24,0,2.18,1.46,4.17,3.67,4.75l15.11,3.95c2.62.69,5.3-.88,5.99-3.51.69-2.62-.88-5.3-3.51-5.99l-15.11-3.95c-.42-.11-.83-.16-1.24-.16-2.18,0-4.17,1.46-4.74,3.67m210.27-4.74l-15.07,4.14c-2.18.6-3.61,2.57-3.61,4.73,0,.43.06.87.18,1.3.72,2.61,3.42,4.15,6.03,3.43l15.07-4.14c2.61-.72,4.15-3.42,3.44-6.03-.6-2.18-2.58-3.61-4.73-3.61-.43,0-.87.06-1.3.18m-203.28-25.44c-.45.77-.66,1.62-.66,2.45,0,1.7.88,3.35,2.45,4.26l44.08,25.45c2.35,1.35,5.35.55,6.7-1.8,1.35-2.35.55-5.35-1.8-6.7l-44.07-25.45c-.77-.45-1.62-.66-2.45-.66-1.7,0-3.35.88-4.26,2.46m195.97-1.8l-44.07,25.45c-1.57.91-2.45,2.56-2.45,4.25,0,.83.21,1.68.66,2.45,1.35,2.35,4.36,3.15,6.7,1.8l44.07-25.45c2.35-1.36,3.15-4.36,1.8-6.71-.91-1.57-2.56-2.45-4.25-2.46-.83,0-1.68.21-2.45.66m-174.28-18.39c-.94.96-1.41,2.2-1.41,3.45s.49,2.53,1.46,3.49l11.63,11.49c1.93,1.9,5.03,1.89,6.94-.04,1.9-1.93,1.89-5.04-.04-6.94l-11.63-11.49c-.96-.95-2.2-1.42-3.45-1.42s-2.53.49-3.49,1.46m151.4-.91l-11.5,11.64c-.95.96-1.42,2.2-1.42,3.45s.49,2.53,1.46,3.49c1.93,1.9,5.03,1.89,6.94-.04l11.5-11.64c1.91-1.93,1.89-5.04-.04-6.94-.96-.94-2.2-1.42-3.45-1.42s-2.53.49-3.49,1.46m-130.26-21.73c-1.58.91-2.46,2.56-2.46,4.25,0,.83.21,1.68.66,2.45l25.45,44.07c1.36,2.35,4.36,3.15,6.71,1.8,2.35-1.35,3.15-4.36,1.79-6.7l-25.45-44.08c-.91-1.57-2.56-2.45-4.25-2.45-.83,0-1.68.21-2.45.66m110.31,1.79l-25.45,44.08c-.45.77-.66,1.62-.66,2.45,0,1.7.88,3.35,2.46,4.25,2.35,1.36,5.35.55,6.71-1.8l25.45-44.07c1.35-2.35.55-5.35-1.8-6.7-.77-.45-1.62-.66-2.45-.66-1.69,0-3.34.88-4.25,2.45m-81.43-8.43c-2.18.6-3.61,2.57-3.61,4.73,0,.43.06.87.17,1.3l4.55,16.58c.72,2.61,3.42,4.15,6.03,3.43,2.61-.72,4.15-3.42,3.43-6.03l-4.55-16.58c-.6-2.18-2.57-3.61-4.73-3.61-.43,0-.87.06-1.3.18m51.97,3.16l-4.22,16.12c-.11.42-.16.83-.16,1.24,0,2.18,1.46,4.17,3.67,4.74,2.62.69,5.3-.88,5.99-3.51l4.22-16.12c.69-2.62-.88-5.3-3.51-5.99-.42-.11-.83-.16-1.24-.16-2.18,0-4.17,1.46-4.74,3.67m-27.25-7.29v50.89c0,2.71,2.2,4.91,4.91,4.91s4.91-2.2,4.91-4.91v-50.89c0-2.71-2.2-4.91-4.91-4.91s-4.91,2.2-4.91,4.91"/></clipPath><radialGradient id="radial-gradient-4" cx="2122.81" cy="3009.41" fx="2122.81" fy="3009.41" r="1" gradientTransform="translate(-411635.33 -290155.14) rotate(90) scale(137.11 -137.11)" xlink:href="#radial-gradient-2"/><clipPath id="clippath-3"><path class="cls-1" d="m1742.1,965.39c-1.29.35-2.14,1.52-2.14,2.8,0,.25.03.51.1.77l2.67,9.71c.42,1.55,2.02,2.46,3.57,2.03,1.55-.42,2.46-2.02,2.03-3.57l-2.67-9.72c-.35-1.29-1.52-2.14-2.8-2.14-.26,0-.51.03-.77.1m-29.56,1.97l-2.62,10.01c-.07.25-.1.49-.1.74,0,1.29.86,2.47,2.17,2.81,1.55.4,3.14-.52,3.55-2.08l2.62-10.01c.41-1.55-.52-3.14-2.07-3.55-.25-.06-.49-.09-.74-.09-1.29,0-2.47.86-2.81,2.17m-23.57-14.42l-6.81,6.89c-.56.57-.84,1.3-.84,2.04s.29,1.5.86,2.07c1.14,1.13,2.98,1.12,4.11-.03l6.81-6.89c1.13-1.14,1.12-2.98-.03-4.11-.57-.56-1.3-.84-2.04-.84s-1.5.29-2.07.86m75.92-.45c-.56.57-.84,1.3-.84,2.04s.29,1.5.86,2.07l6.88,6.8c1.14,1.13,2.98,1.12,4.11-.02,1.13-1.14,1.12-2.98-.03-4.11l-6.88-6.8c-.57-.56-1.31-.84-2.04-.84s-1.5.29-2.07.86m-39.03.54v30.12c0,1.6,1.3,2.9,2.9,2.9s2.91-1.3,2.91-2.9v-30.12c0-1.6-1.3-2.91-2.91-2.91s-2.9,1.3-2.9,2.91m-17.73-6.31l-15.06,26.09c-.26.46-.39.96-.39,1.45,0,1,.52,1.98,1.45,2.52,1.39.8,3.17.33,3.97-1.06l15.06-26.09c.8-1.39.33-3.17-1.06-3.97-.46-.26-.96-.39-1.45-.39-1,0-1.98.52-2.52,1.45m37.3-1.06c-.93.54-1.45,1.51-1.45,2.52,0,.49.12.99.39,1.45l15.06,26.09c.8,1.39,2.58,1.86,3.97,1.06,1.39-.8,1.87-2.58,1.06-3.97l-15.06-26.09c-.54-.93-1.51-1.45-2.52-1.45-.49,0-.99.12-1.45.39m-49.5-13.26l-26.09,15.06c-.93.54-1.45,1.51-1.45,2.52,0,.49.13.99.39,1.45.8,1.39,2.58,1.87,3.97,1.06l26.09-15.06c1.39-.8,1.87-2.58,1.06-3.97-.54-.93-1.52-1.45-2.52-1.45-.49,0-.99.13-1.45.39m61.7,1.06c-.26.46-.39.96-.39,1.45,0,1,.52,1.98,1.45,2.52l26.09,15.06c1.39.8,3.17.33,3.97-1.06.8-1.39.33-3.17-1.06-3.97l-26.09-15.06c-.46-.26-.96-.39-1.45-.39-1,0-1.98.52-2.52,1.45m-81.82-5.15l-8.92,2.45c-1.29.35-2.14,1.52-2.14,2.8,0,.25.03.51.1.77.43,1.55,2.02,2.46,3.57,2.03l8.92-2.45c1.55-.43,2.46-2.02,2.03-3.57-.35-1.29-1.52-2.14-2.8-2.14-.26,0-.51.03-.77.1m102.51,1.44c-.06.25-.1.49-.1.74,0,1.29.87,2.47,2.17,2.81l8.95,2.34c1.55.4,3.14-.52,3.55-2.08.41-1.55-.52-3.14-2.07-3.54l-8.95-2.34c-.25-.06-.49-.1-.74-.1-1.29,0-2.47.87-2.81,2.17m-115.91-15.86c-1.6,0-2.91,1.3-2.91,2.91s1.3,2.9,2.91,2.9h30.12c1.6,0,2.9-1.3,2.9-2.9s-1.3-2.91-2.9-2.91h-30.12Zm102.59,0c-1.6,0-2.9,1.3-2.9,2.91s1.3,2.9,2.9,2.9h30.12c1.6,0,2.91-1.3,2.91-2.9s-1.3-2.91-2.91-2.91h-30.12Zm-100.35-13.86c-.06.24-.09.49-.09.74,0,1.29.86,2.47,2.17,2.81l8.95,2.34c1.55.41,3.14-.52,3.55-2.08.41-1.55-.52-3.14-2.08-3.54l-8.95-2.34c-.25-.07-.49-.1-.74-.1-1.29,0-2.47.86-2.81,2.17m124.46-2.81l-8.93,2.45c-1.29.35-2.14,1.52-2.14,2.8,0,.25.03.51.1.77.43,1.55,2.02,2.46,3.57,2.03l8.92-2.45c1.55-.43,2.46-2.02,2.03-3.57-.35-1.29-1.53-2.14-2.8-2.14-.25,0-.51.03-.77.1m-4.33-16.12l-26.09,15.06c-.93.54-1.45,1.51-1.45,2.52,0,.49.13.99.39,1.45.8,1.39,2.58,1.87,3.97,1.06l26.09-15.06c1.39-.8,1.86-2.58,1.06-3.97-.54-.93-1.51-1.45-2.52-1.45-.49,0-.99.12-1.45.39m-116,1.06c-.26.46-.39.96-.39,1.45,0,1,.52,1.98,1.45,2.52l26.09,15.06c1.39.8,3.17.33,3.97-1.06.8-1.39.32-3.17-1.06-3.97l-26.09-15.06c-.46-.26-.96-.39-1.45-.39-1,0-1.98.52-2.52,1.45m12.84-11.95c-.56.57-.84,1.3-.84,2.04s.29,1.5.86,2.07l6.88,6.8c1.14,1.13,2.98,1.12,4.11-.02,1.13-1.14,1.11-2.98-.03-4.11l-6.88-6.8c-.57-.56-1.3-.84-2.04-.84s-1.5.29-2.07.86m89.61-.54l-6.81,6.89c-.56.57-.84,1.3-.84,2.04s.29,1.5.86,2.07c1.14,1.13,2.98,1.12,4.11-.02l6.81-6.89c1.13-1.14,1.12-2.98-.02-4.11-.57-.56-1.3-.84-2.04-.84s-1.5.29-2.07.86m-77.1-12.87c-.93.54-1.45,1.51-1.45,2.52,0,.49.13.99.39,1.45l15.06,26.09c.8,1.39,2.58,1.86,3.97,1.06,1.39-.8,1.87-2.58,1.06-3.97l-15.06-26.09c-.54-.93-1.51-1.45-2.52-1.45-.49,0-.99.12-1.45.39m65.29,1.06l-15.06,26.09c-.26.46-.39.96-.39,1.45,0,1.01.52,1.98,1.45,2.52,1.39.8,3.17.33,3.97-1.06l15.06-26.09c.8-1.39.33-3.17-1.06-3.97-.46-.26-.96-.39-1.45-.39-1,0-1.98.52-2.52,1.45m-48.2-4.99c-1.29.35-2.14,1.52-2.14,2.8,0,.25.03.51.11.77l2.69,9.81c.42,1.55,2.02,2.46,3.57,2.03,1.55-.43,2.46-2.02,2.03-3.57l-2.69-9.81c-.35-1.29-1.52-2.14-2.8-2.14-.25,0-.51.03-.77.1m30.76,1.87l-2.49,9.54c-.07.25-.1.49-.1.74,0,1.29.87,2.47,2.17,2.81,1.55.41,3.14-.52,3.54-2.07l2.5-9.54c.41-1.55-.52-3.14-2.08-3.54-.25-.07-.49-.1-.74-.1-1.29,0-2.47.86-2.81,2.17m-16.13-4.32v30.12c0,1.6,1.3,2.9,2.9,2.9s2.91-1.3,2.91-2.9v-30.12c0-1.6-1.3-2.9-2.91-2.9s-2.9,1.3-2.9,2.9"/></clipPath><radialGradient id="radial-gradient-5" cx="2113.03" cy="2998.67" fx="2113.03" fy="2998.67" r="1" gradientTransform="translate(-241629.59 -170563.01) rotate(90) scale(81.16 -81.16)" xlink:href="#radial-gradient-2"/><clipPath id="clippath-4"><path class="cls-1" d="m1729.1,523.39c-1.29.35-2.14,1.52-2.14,2.8,0,.26.03.51.1.77l2.67,9.71c.42,1.55,2.02,2.46,3.57,2.03s2.46-2.02,2.03-3.57l-2.67-9.71c-.35-1.29-1.52-2.14-2.8-2.14-.25,0-.51.03-.77.1m-29.56,1.97l-2.62,10.01c-.07.25-.1.49-.1.74,0,1.29.87,2.47,2.17,2.81,1.55.41,3.14-.52,3.55-2.08l2.62-10.01c.41-1.55-.52-3.14-2.07-3.54-.25-.06-.49-.1-.74-.1-1.29,0-2.47.87-2.81,2.17m-23.57-14.42l-6.81,6.89c-.56.57-.84,1.31-.84,2.04s.29,1.5.86,2.07c1.14,1.13,2.98,1.12,4.11-.02l6.81-6.89c1.13-1.14,1.12-2.98-.03-4.11-.56-.56-1.3-.84-2.04-.84s-1.5.29-2.07.86m75.93-.45c-.56.57-.84,1.3-.84,2.04s.29,1.5.86,2.07l6.88,6.8c1.14,1.13,2.98,1.12,4.11-.02,1.13-1.14,1.12-2.98-.03-4.11l-6.88-6.8c-.57-.56-1.3-.84-2.04-.84s-1.5.29-2.07.86m-39.03.54v30.12c0,1.6,1.3,2.9,2.91,2.9s2.91-1.3,2.91-2.9v-30.12c0-1.6-1.3-2.9-2.91-2.9s-2.91,1.3-2.91,2.9m-17.73-6.31l-15.06,26.09c-.27.46-.39.96-.39,1.45,0,1,.52,1.98,1.45,2.52,1.39.8,3.17.33,3.97-1.06l15.06-26.09c.8-1.39.33-3.17-1.06-3.97-.46-.26-.96-.39-1.45-.39-1,0-1.98.52-2.52,1.45m37.3-1.06c-.93.54-1.45,1.51-1.45,2.52,0,.49.13.99.39,1.45l15.06,26.09c.8,1.39,2.58,1.87,3.97,1.06,1.39-.8,1.86-2.58,1.06-3.97l-15.06-26.09c-.54-.93-1.51-1.45-2.52-1.45-.49,0-.99.13-1.45.39m-49.5-13.26l-26.09,15.06c-.93.54-1.45,1.51-1.45,2.52,0,.49.13.99.39,1.45.8,1.39,2.58,1.86,3.97,1.06l26.09-15.06c1.39-.8,1.86-2.58,1.06-3.97-.54-.93-1.52-1.45-2.52-1.45-.49,0-.99.13-1.45.39m61.69,1.06c-.26.46-.39.96-.39,1.45,0,1,.52,1.98,1.45,2.52l26.09,15.06c1.39.8,3.17.33,3.97-1.06.8-1.39.33-3.17-1.06-3.97l-26.09-15.06c-.46-.26-.96-.39-1.45-.39-1.01,0-1.98.52-2.52,1.45m-81.82-5.14l-8.92,2.45c-1.29.35-2.14,1.52-2.14,2.8,0,.25.03.51.1.77.42,1.55,2.02,2.46,3.57,2.03l8.92-2.45c1.55-.42,2.46-2.02,2.03-3.57-.35-1.29-1.52-2.14-2.8-2.14-.26,0-.51.04-.77.11m102.5,1.44c-.06.25-.09.49-.09.74,0,1.29.86,2.47,2.17,2.81l8.95,2.34c1.55.41,3.14-.52,3.55-2.08s-.52-3.14-2.08-3.54l-8.95-2.34c-.24-.07-.49-.1-.74-.1-1.29,0-2.47.86-2.81,2.17m-115.91-15.86c-1.6,0-2.91,1.3-2.91,2.9s1.3,2.91,2.91,2.91h30.12c1.6,0,2.9-1.3,2.9-2.91s-1.3-2.9-2.9-2.9h-30.12Zm102.59,0c-1.6,0-2.91,1.3-2.91,2.9s1.3,2.91,2.91,2.91h30.12c1.6,0,2.91-1.3,2.91-2.91s-1.3-2.9-2.91-2.9h-30.12Zm-100.35-13.86c-.06.25-.1.49-.1.74,0,1.29.87,2.47,2.17,2.81l8.95,2.34c1.55.41,3.14-.52,3.55-2.07.41-1.55-.52-3.14-2.08-3.55l-8.95-2.34c-.25-.06-.49-.09-.74-.09-1.29,0-2.47.87-2.81,2.17m124.46-2.8l-8.92,2.45c-1.29.35-2.14,1.52-2.14,2.8,0,.26.03.51.1.77.43,1.55,2.02,2.46,3.57,2.03l8.92-2.45c1.55-.42,2.46-2.02,2.03-3.57-.35-1.29-1.52-2.14-2.8-2.14-.26,0-.51.03-.77.1m-120.32-15.06c-.26.46-.39.96-.39,1.45,0,1,.52,1.98,1.45,2.52l26.09,15.06c1.39.8,3.17.33,3.97-1.06.8-1.39.32-3.17-1.06-3.97l-26.09-15.06c-.46-.26-.96-.39-1.45-.39-1,0-1.98.52-2.52,1.45m116-1.06l-26.09,15.06c-.93.54-1.45,1.51-1.45,2.52,0,.49.13.99.39,1.45.8,1.39,2.58,1.86,3.97,1.06l26.09-15.06c1.39-.8,1.86-2.58,1.06-3.97-.54-.93-1.52-1.45-2.52-1.45-.49,0-.99.13-1.45.39m-103.16-10.89c-.56.57-.84,1.3-.84,2.04s.29,1.5.86,2.07l6.88,6.8c1.14,1.13,2.98,1.12,4.11-.02,1.13-1.14,1.12-2.98-.03-4.11l-6.88-6.8c-.57-.56-1.3-.84-2.04-.84-.75,0-1.5.29-2.07.86m89.61-.54l-6.81,6.89c-.56.57-.84,1.3-.84,2.04s.29,1.5.86,2.07c1.14,1.13,2.98,1.12,4.11-.02l6.81-6.89c1.13-1.14,1.12-2.98-.02-4.11-.57-.56-1.3-.84-2.04-.84s-1.5.29-2.07.86m-77.1-12.86c-.93.54-1.45,1.51-1.45,2.52,0,.49.13.99.39,1.45l15.06,26.09c.8,1.39,2.58,1.87,3.97,1.06,1.39-.8,1.87-2.58,1.06-3.97l-15.06-26.09c-.54-.93-1.52-1.45-2.52-1.45-.49,0-.99.13-1.45.39m65.3,1.06l-15.06,26.09c-.26.46-.39.96-.39,1.45,0,1,.52,1.98,1.45,2.52,1.39.8,3.16.33,3.97-1.06l15.06-26.09c.8-1.39.33-3.17-1.06-3.97-.46-.26-.96-.39-1.45-.39-1.01,0-1.98.52-2.52,1.45m-48.2-4.99c-1.29.35-2.14,1.52-2.14,2.8,0,.25.03.51.1.77l2.69,9.81c.43,1.55,2.02,2.46,3.57,2.03,1.55-.42,2.46-2.02,2.03-3.57l-2.69-9.82c-.36-1.29-1.52-2.14-2.8-2.14-.25,0-.51.03-.77.1m30.76,1.87l-2.5,9.54c-.06.25-.1.49-.1.74,0,1.29.87,2.47,2.17,2.81,1.55.41,3.14-.52,3.55-2.08l2.5-9.54c.41-1.55-.52-3.14-2.07-3.55-.25-.06-.49-.09-.74-.09-1.29,0-2.47.86-2.81,2.17m-16.13-4.32v30.12c0,1.6,1.3,2.9,2.91,2.9s2.91-1.3,2.91-2.9v-30.12c0-1.6-1.3-2.9-2.91-2.9s-2.91,1.3-2.91,2.9"/></clipPath><radialGradient id="radial-gradient-6" cx="2113.03" cy="2998.67" fx="2113.03" fy="2998.67" r="1" gradientTransform="translate(-241642.59 -171005.01) rotate(90) scale(81.16 -81.16)" xlink:href="#radial-gradient-2"/><clipPath id="clippath-5"><path class="cls-1" d="m0,1074.85l8.92,5.15h19.63L0,1063.52v11.33Zm27.25-16.37c-.11.42-.16.83-.16,1.24,0,2.18,1.46,4.17,3.67,4.75l15.11,3.95c2.62.69,5.31-.88,5.99-3.51.69-2.62-.88-5.3-3.51-5.99l-15.12-3.95c-.42-.11-.83-.16-1.24-.16-2.18,0-4.17,1.46-4.75,3.67m-22.5-26.8c-2.28,0-4.2,1.56-4.75,3.67v2.47c.55,2.11,2.47,3.67,4.75,3.67h50.89c2.71,0,4.91-2.2,4.91-4.91s-2.2-4.91-4.91-4.91H4.75Zm40.73-28.15l-15.07,4.14c-2.18.6-3.61,2.57-3.61,4.73,0,.43.06.87.17,1.3.72,2.61,3.42,4.15,6.03,3.43l15.07-4.14c2.61-.72,4.15-3.42,3.44-6.03-.6-2.18-2.57-3.61-4.73-3.61-.43,0-.87.06-1.3.18m-7.31-27.24L0,998.32v11.33l43.08-24.87c2.35-1.36,3.15-4.36,1.8-6.71-.91-1.57-2.56-2.45-4.26-2.45-.83,0-1.68.21-2.45.66m-22.88-19.3l-11.5,11.64c-.94.96-1.41,2.2-1.41,3.45s.49,2.53,1.46,3.49c1.93,1.91,5.04,1.89,6.94-.04l11.5-11.64c1.91-1.93,1.89-5.04-.04-6.94-.96-.95-2.2-1.42-3.45-1.42s-2.53.49-3.49,1.46M0,948.6l3.84-6.65c1.36-2.35.55-5.35-1.8-6.7-.65-.37-1.35-.58-2.04-.64v14Z"/></clipPath><radialGradient id="radial-gradient-7" cx="2122.81" cy="3009.41" fx="2122.81" fy="3009.41" r="1" gradientTransform="translate(-412672.93 -290011.9) rotate(90) scale(137.11 -137.11)" xlink:href="#radial-gradient-2"/><clipPath id="clippath-6"><rect class="cls-1" x="0" width="1920" height="1080"/></clipPath><clipPath id="clippath-7"><rect class="cls-1" x="0" y="1212.04" width="1920" height="1080"/></clipPath><clipPath id="clippath-8"><path class="cls-1" d="m526.88,1254.26c.65,2.37-.74,4.82-3.12,5.47s-4.82-.74-5.47-3.12l-4.09-14.89c-.11-.39-.16-.79-.16-1.18,0-1.96,1.3-3.75,3.28-4.29,2.37-.65,4.82.74,5.47,3.12l4.09,14.89Zm48.83-118.77c-1.98.54-3.28,2.34-3.28,4.29,0,.39.05.79.16,1.18.65,2.37,3.1,3.77,5.47,3.12l13.68-3.76c2.37-.65,3.77-3.1,3.12-5.47-.65-2.37-3.1-3.77-5.47-3.12l-13.68,3.75Zm-157.68,52.51c2.37-.65,3.77-3.1,3.12-5.48-.65-2.37-3.1-3.77-5.47-3.12l-13.68,3.75c-1.98.54-3.28,2.34-3.28,4.29,0,.39.05.79.16,1.18.65,2.37,3.1,3.77,5.47,3.12l13.68-3.75Zm52.96-103.73c.65,2.37,3.1,3.77,5.47,3.12,2.37-.65,3.77-3.1,3.12-5.47l-4.13-15.05c-.65-2.37-3.1-3.77-5.47-3.12-1.98.54-3.28,2.34-3.28,4.29,0,.39.05.79.16,1.18l4.13,15.05Zm-28.8,139.15c1.73-1.75,1.71-4.57-.04-6.3s-4.57-1.71-6.3.04l-10.44,10.57c-.86.87-1.29,2-1.29,3.13s.44,2.3,1.32,3.17c1.75,1.73,4.57,1.71,6.3-.04l10.44-10.57Zm-.71-116.41c1.73-1.75,1.71-4.57-.04-6.3l-10.55-10.43c-1.75-1.73-4.57-1.71-6.3.04-.86.87-1.29,2-1.29,3.13s.44,2.3,1.32,3.17l10.55,10.43c1.75,1.73,4.57,1.71,6.3-.04m110.08-6.95c-.86.87-1.29,2-1.29,3.13s.44,2.3,1.32,3.17c1.75,1.73,4.57,1.71,6.3-.04l10.44-10.57c1.73-1.75,1.71-4.57-.04-6.3-1.75-1.73-4.57-1.71-6.3.04l-10.44,10.57Zm.71,116.41c-.86.87-1.29,2-1.29,3.13s.44,2.3,1.32,3.17l10.55,10.43c1.75,1.73,4.57,1.71,6.3-.04,1.73-1.75,1.71-4.57-.04-6.3l-10.55-10.43c-1.75-1.73-4.57-1.71-6.3.04m20.58-34.86c-.1.38-.15.76-.15,1.13,0,1.98,1.33,3.78,3.33,4.31l13.72,3.59c2.38.62,4.81-.8,5.44-3.18.62-2.38-.8-4.81-3.18-5.44l-13.72-3.59c-2.38-.62-4.81.8-5.44,3.18m-96.25,75.26l4.01-15.35c.62-2.38-.8-4.81-3.18-5.44-2.38-.62-4.81.8-5.44,3.18l-4.01,15.35c-.1.38-.15.76-.15,1.13,0,1.98,1.33,3.78,3.33,4.31,2.38.62,4.81-.8,5.44-3.18m-55.7-115c.62-2.38-.8-4.81-3.18-5.44l-13.72-3.59c-2.38-.62-4.81.8-5.44,3.18-.1.38-.15.76-.15,1.13,0,1.98,1.33,3.78,3.33,4.31l13.72,3.59c2.38.62,4.81-.8,5.44-3.18m96.25-75.26l-3.83,14.63c-.1.38-.15.76-.15,1.13,0,1.98,1.33,3.78,3.33,4.31,2.38.62,4.81-.8,5.44-3.18l3.83-14.63c.62-2.38-.8-4.81-3.18-5.44-2.38-.62-4.81.8-5.44,3.18m85.93,95.13c0-2.46-1.99-4.45-4.45-4.45h-46.19c-2.46,0-4.45,1.99-4.45,4.45s1.99,4.45,4.45,4.45h46.19c2.46,0,4.45-1.99,4.45-4.45m-101.75,101.75v-46.19c0-2.46-1.99-4.45-4.45-4.45s-4.45,1.99-4.45,4.45v46.19c0,2.46,1.99,4.45,4.45,4.45s4.45-1.99,4.45-4.45m-55.56-101.75c0-2.46-1.99-4.45-4.45-4.45h-46.19c-2.46,0-4.45,1.99-4.45,4.45s1.99,4.45,4.45,4.45h46.19c2.46,0,4.45-1.99,4.45-4.45m51.1-51.1c2.46,0,4.45-2,4.45-4.45v-46.19c0-2.46-1.99-4.45-4.45-4.45s-4.45,1.99-4.45,4.45v46.19c0,2.46,1.99,4.45,4.45,4.45m-45.89,82.74c2.13-1.23,2.86-3.95,1.63-6.08-1.23-2.13-3.95-2.86-6.08-1.63l-40,23.09c-1.43.82-2.23,2.32-2.23,3.86,0,.76.19,1.52.6,2.22,1.23,2.13,3.95,2.86,6.08,1.63l40-23.09Zm20.34-75.89c2.13-1.23,2.86-3.95,1.63-6.09l-23.09-40c-1.23-2.13-3.95-2.86-6.08-1.63-1.43.83-2.23,2.32-2.23,3.86,0,.76.19,1.52.6,2.22l23.09,40c1.23,2.13,3.95,2.86,6.08,1.63m71.44,12.62c-1.43.83-2.23,2.32-2.23,3.86,0,.76.19,1.52.6,2.22,1.23,2.13,3.95,2.86,6.09,1.63l40-23.09c2.13-1.23,2.86-3.95,1.63-6.08-1.23-2.13-3.95-2.86-6.08-1.63l-40,23.09Zm-20.34,75.89c-1.43.82-2.23,2.32-2.23,3.86,0,.76.19,1.52.6,2.22l23.09,40c1.23,2.13,3.95,2.86,6.08,1.63,2.13-1.23,2.86-3.95,1.63-6.08l-23.09-40c-1.23-2.13-3.95-2.86-6.08-1.63m18.7-18.71c-.4.7-.6,1.47-.6,2.22,0,1.54.8,3.04,2.23,3.86l40,23.09c2.13,1.23,4.85.5,6.08-1.63,1.23-2.13.5-4.86-1.63-6.09l-40-23.09c-2.13-1.23-4.85-.5-6.09,1.63m-91.27,64.79l23.09-40c1.23-2.13.5-4.86-1.63-6.08-2.13-1.23-4.85-.5-6.08,1.63l-23.09,40c-.4.7-.6,1.47-.6,2.22,0,1.54.8,3.04,2.23,3.86,2.13,1.23,4.85.5,6.08-1.63m2.76-115.89c1.23-2.13.5-4.85-1.63-6.08l-40-23.09c-2.13-1.23-4.85-.5-6.08,1.63-.4.7-.6,1.47-.6,2.22,0,1.54.8,3.04,2.23,3.86l40,23.09c2.13,1.23,4.85.5,6.08-1.63m91.27-64.79l-23.09,40c-.41.7-.6,1.47-.6,2.22,0,1.54.8,3.04,2.23,3.86,2.13,1.23,4.85.5,6.08-1.63l23.09-40c1.23-2.13.5-4.85-1.63-6.09-2.13-1.23-4.85-.5-6.08,1.63"/></clipPath><clipPath id="clippath-9"><rect class="cls-1" x="372.98" y="1037.85" width="247.78" height="247.78"/></clipPath><radialGradient id="radial-gradient-8" cx="2121.37" cy="3007.83" fx="2121.37" fy="3007.83" r="1" gradientTransform="translate(-373784.56 -262805.81) rotate(90) scale(124.44 -124.44)" xlink:href="#radial-gradient-2"/><clipPath id="clippath-10"><rect class="cls-1" x="0" width="1920" height="1080"/></clipPath><clipPath id="clippath-11"><rect class="cls-1" x="0" y="1212.04" width="1920" height="1080"/></clipPath><clipPath id="clippath-12"><path class="cls-1" d="m-22.5,1408.62c1.17,4.26-1.34,8.66-5.6,9.83-4.26,1.17-8.66-1.34-9.83-5.6l-7.34-26.75c-.19-.71-.29-1.42-.29-2.12,0-3.51,2.33-6.73,5.89-7.71,4.26-1.17,8.66,1.34,9.83,5.6l7.34,26.75Zm87.7-213.32c-3.55.97-5.88,4.2-5.88,7.71,0,.7.09,1.41.29,2.12,1.17,4.26,5.57,6.77,9.83,5.6l24.57-6.74c4.26-1.17,6.77-5.57,5.6-9.83-1.17-4.26-5.57-6.77-9.83-5.6l-24.57,6.74Zm-283.19,94.3c4.26-1.17,6.77-5.57,5.6-9.83-1.17-4.26-5.57-6.77-9.83-5.6l-24.57,6.74c-3.55.98-5.89,4.2-5.89,7.71,0,.7.09,1.41.29,2.12,1.17,4.26,5.57,6.77,9.83,5.6l24.57-6.74Zm95.12-186.29c1.17,4.26,5.57,6.77,9.83,5.6,4.26-1.17,6.77-5.57,5.6-9.83l-7.42-27.03c-1.17-4.26-5.57-6.77-9.83-5.6-3.55.97-5.88,4.2-5.88,7.71,0,.7.09,1.41.29,2.12l7.42,27.03Zm-51.73,249.93c3.1-3.14,3.07-8.21-.07-11.31-3.14-3.1-8.21-3.07-11.31.07l-18.75,18.98c-1.54,1.56-2.31,3.59-2.31,5.62s.79,4.13,2.38,5.69c3.14,3.11,8.21,3.08,11.31-.07l18.75-18.98Zm-1.28-209.08c3.11-3.14,3.08-8.21-.07-11.31l-18.95-18.73c-3.14-3.1-8.21-3.07-11.31.07-1.54,1.56-2.31,3.59-2.31,5.62s.79,4.13,2.38,5.69l18.95,18.73c3.14,3.1,8.21,3.07,11.31-.07m197.7-12.48c-1.54,1.56-2.31,3.59-2.31,5.62s.79,4.13,2.38,5.69c3.14,3.1,8.21,3.08,11.31-.07l18.75-18.98c3.1-3.14,3.08-8.21-.07-11.31-3.14-3.11-8.21-3.07-11.31.07l-18.75,18.98Zm1.28,209.08c-1.54,1.56-2.31,3.59-2.31,5.62s.79,4.13,2.38,5.69l18.95,18.73c3.14,3.1,8.21,3.07,11.31-.07,3.1-3.14,3.08-8.21-.07-11.31l-18.95-18.73c-3.14-3.11-8.21-3.08-11.31.07m36.96-62.62c-.18.68-.26,1.36-.26,2.03,0,3.55,2.38,6.79,5.98,7.73l24.64,6.44c4.28,1.12,8.65-1.44,9.76-5.72,1.12-4.27-1.44-8.65-5.72-9.76l-24.64-6.44c-4.27-1.12-8.64,1.44-9.76,5.72m-172.86,135.17l7.21-27.57c1.12-4.27-1.44-8.65-5.72-9.76-4.27-1.12-8.65,1.44-9.76,5.72l-7.21,27.57c-.18.68-.26,1.36-.26,2.03,0,3.55,2.38,6.79,5.98,7.74,4.28,1.12,8.65-1.44,9.76-5.72m-100.04-206.54c1.12-4.27-1.44-8.65-5.71-9.76l-24.64-6.44c-4.27-1.12-8.65,1.44-9.76,5.72-.18.68-.26,1.36-.26,2.03,0,3.55,2.38,6.79,5.98,7.74l24.64,6.44c4.27,1.12,8.65-1.44,9.76-5.71m172.86-135.17l-6.87,26.28c-.18.68-.26,1.36-.26,2.03,0,3.55,2.38,6.79,5.98,7.74,4.28,1.12,8.65-1.44,9.77-5.72l6.87-26.28c1.12-4.27-1.44-8.65-5.72-9.76-4.28-1.12-8.65,1.44-9.76,5.72m154.33,170.85c0-4.42-3.58-8-8-8H23.39c-4.42,0-8,3.58-8,8s3.58,8,8,8h82.96c4.42,0,8-3.58,8-8m-182.74,182.74v-82.96c0-4.42-3.58-8-8-8s-8,3.58-8,8v82.96c0,4.42,3.58,8,8,8s8-3.58,8-8m-99.78-182.74c0-4.42-3.58-8-8-8h-82.96c-4.42,0-8,3.58-8,8s3.58,8,8,8h82.96c4.42,0,8-3.58,8-8m91.78-91.78c4.42,0,8-3.58,8-8v-82.96c0-4.42-3.58-8-8-8s-8,3.58-8,8v82.96c0,4.42,3.58,8,8,8m-82.41,148.6c3.83-2.21,5.14-7.1,2.93-10.93-2.21-3.83-7.1-5.14-10.93-2.93l-71.84,41.48c-2.57,1.48-4,4.17-4,6.94,0,1.36.35,2.73,1.07,3.99,2.21,3.83,7.1,5.14,10.93,2.93l71.84-41.48Zm36.52-136.31c3.83-2.21,5.14-7.1,2.93-10.93l-41.48-71.84c-2.21-3.83-7.1-5.14-10.93-2.93-2.57,1.48-4,4.17-4,6.94,0,1.36.35,2.73,1.07,3.99l41.48,71.84c2.21,3.83,7.1,5.14,10.93,2.93m128.31,22.67c-2.57,1.48-4,4.17-4,6.94,0,1.36.35,2.73,1.07,3.99,2.21,3.83,7.1,5.14,10.93,2.93l71.84-41.48c3.83-2.21,5.14-7.1,2.93-10.93-2.21-3.83-7.1-5.14-10.93-2.93l-71.84,41.48Zm-36.52,136.31c-2.57,1.48-4,4.17-4,6.94,0,1.36.35,2.73,1.07,3.99l41.48,71.84c2.21,3.83,7.1,5.14,10.93,2.93,3.83-2.21,5.14-7.1,2.93-10.93l-41.48-71.84c-2.21-3.83-7.1-5.14-10.93-2.93m33.59-33.59c-.73,1.26-1.07,2.64-1.07,3.99,0,2.77,1.43,5.46,4,6.94l71.84,41.48c3.83,2.21,8.72.9,10.93-2.93,2.21-3.83.9-8.72-2.93-10.93l-71.84-41.48c-3.83-2.21-8.72-.9-10.93,2.93m-163.93,116.37l41.48-71.84c2.21-3.83.9-8.72-2.93-10.93-3.83-2.21-8.72-.9-10.93,2.93l-41.48,71.84c-.73,1.26-1.07,2.64-1.07,3.99,0,2.77,1.43,5.45,4,6.94,3.83,2.21,8.72.9,10.93-2.93m4.96-208.15c2.21-3.83.9-8.72-2.93-10.93l-71.84-41.48c-3.83-2.21-8.72-.9-10.93,2.93-.73,1.26-1.07,2.63-1.07,3.99,0,2.76,1.44,5.45,4,6.94l71.84,41.48c3.83,2.21,8.72.9,10.93-2.93m163.93-116.37l-41.48,71.84c-.73,1.26-1.07,2.64-1.07,3.99,0,2.76,1.43,5.45,4,6.93,3.83,2.21,8.72.9,10.93-2.93l41.48-71.84c2.21-3.83.9-8.72-2.93-10.93-3.83-2.21-8.72-.9-10.93,2.93"/></clipPath><clipPath id="clippath-13"><rect class="cls-1" x="-298.91" y="1019.94" width="445.02" height="445.02"/></clipPath><radialGradient id="radial-gradient-9" cx="2128.3" cy="3015.44" fx="2128.3" fy="3015.44" r="1" gradientTransform="translate(-673998 -474399.33) rotate(90) scale(223.49 -223.49)" xlink:href="#radial-gradient-2"/><clipPath id="clippath-14"><rect class="cls-1" x="92.87" y="145.73" width="1739.69" height="793.97" rx="63.38" ry="63.38"/></clipPath><clipPath id="clippath-15"><path class="cls-1" d="m1707.74,231.17c-2.18.6-3.61,2.57-3.61,4.73,0,.43.06.87.18,1.3l4.5,16.41c.72,2.61,3.42,4.15,6.03,3.43,2.61-.72,4.15-3.42,3.43-6.03l-4.5-16.41c-.6-2.18-2.58-3.61-4.73-3.61-.43,0-.87.06-1.3.18m-49.94,3.32l-4.42,16.91c-.11.42-.16.83-.16,1.24,0,2.18,1.46,4.17,3.67,4.75,2.62.69,5.3-.89,5.99-3.51l4.42-16.91c.69-2.62-.88-5.3-3.51-5.99-.42-.11-.83-.16-1.24-.16-2.18,0-4.17,1.46-4.74,3.67m-39.82-24.35l-11.5,11.64c-.94.96-1.42,2.2-1.42,3.45s.49,2.53,1.46,3.49c1.93,1.91,5.04,1.89,6.94-.04l11.5-11.64c1.91-1.93,1.89-5.04-.04-6.94-.96-.94-2.2-1.42-3.45-1.42s-2.53.49-3.49,1.46m128.27-.76c-.94.96-1.42,2.2-1.42,3.45s.49,2.53,1.46,3.49l11.63,11.49c1.93,1.9,5.04,1.89,6.94-.04,1.9-1.93,1.89-5.04-.04-6.94l-11.63-11.49c-.96-.94-2.2-1.42-3.45-1.42s-2.53.49-3.49,1.46m-65.94.91v50.89c0,2.71,2.2,4.91,4.91,4.91s4.91-2.2,4.91-4.91v-50.89c0-2.71-2.2-4.91-4.91-4.91s-4.91,2.2-4.91,4.91m-29.95-10.65l-25.45,44.08c-.45.77-.66,1.62-.66,2.45,0,1.7.88,3.35,2.46,4.25,2.35,1.36,5.35.55,6.7-1.8l25.45-44.07c1.36-2.35.55-5.35-1.79-6.7-.77-.45-1.62-.66-2.45-.66-1.7,0-3.35.88-4.25,2.46m63.01-1.8c-1.58.91-2.46,2.56-2.46,4.26,0,.83.21,1.68.66,2.45l25.45,44.07c1.35,2.35,4.36,3.15,6.7,1.8,2.35-1.35,3.15-4.36,1.8-6.7l-25.45-44.08c-.91-1.57-2.56-2.46-4.26-2.46-.83,0-1.68.21-2.45.66m-83.62-22.41l-44.08,25.45c-1.57.91-2.45,2.56-2.45,4.26,0,.83.21,1.68.66,2.45,1.35,2.35,4.36,3.15,6.7,1.8l44.07-25.45c2.35-1.35,3.15-4.36,1.8-6.7-.91-1.58-2.56-2.46-4.25-2.46-.83,0-1.68.21-2.45.66m104.23,1.8c-.45.77-.66,1.62-.66,2.45,0,1.7.88,3.35,2.45,4.26l44.07,25.45c2.35,1.36,5.35.55,6.7-1.8,1.35-2.35.55-5.35-1.8-6.7l-44.07-25.45c-.77-.45-1.62-.66-2.45-.66-1.7,0-3.34.88-4.25,2.46m-138.23-8.69l-15.07,4.14c-2.18.6-3.61,2.57-3.61,4.73,0,.43.06.87.18,1.3.72,2.61,3.42,4.15,6.03,3.43l15.08-4.14c2.61-.72,4.15-3.42,3.43-6.03-.6-2.18-2.57-3.61-4.73-3.61-.43,0-.87.06-1.3.18m173.18,2.43c-.11.42-.16.83-.16,1.24,0,2.18,1.46,4.17,3.67,4.75l15.11,3.95c2.62.69,5.31-.88,5.99-3.51.69-2.62-.88-5.3-3.51-5.99l-15.11-3.95c-.42-.11-.83-.16-1.25-.16-2.18,0-4.17,1.46-4.74,3.67m-195.82-26.8c-2.71,0-4.91,2.2-4.91,4.91s2.2,4.91,4.91,4.91h50.89c2.71,0,4.91-2.2,4.91-4.91s-2.2-4.91-4.91-4.91h-50.89Zm173.33,0c-2.71,0-4.91,2.2-4.91,4.91s2.2,4.91,4.91,4.91h50.89c2.71,0,4.91-2.2,4.91-4.91s-2.2-4.91-4.91-4.91h-50.89Zm-169.54-23.42c-.11.41-.16.83-.16,1.24,0,2.18,1.46,4.17,3.67,4.75l15.11,3.95c2.62.69,5.3-.88,5.99-3.51.69-2.62-.88-5.3-3.51-5.99l-15.11-3.95c-.42-.11-.83-.16-1.24-.16-2.18,0-4.17,1.46-4.74,3.67m210.27-4.74l-15.07,4.14c-2.18.6-3.61,2.57-3.61,4.73,0,.43.06.87.18,1.3.72,2.61,3.42,4.15,6.03,3.43l15.07-4.14c2.61-.72,4.15-3.42,3.44-6.03-.6-2.18-2.58-3.61-4.73-3.61-.43,0-.87.06-1.3.18m-203.28-25.44c-.45.77-.66,1.62-.66,2.45,0,1.7.88,3.35,2.45,4.26l44.08,25.45c2.35,1.35,5.35.55,6.7-1.8,1.35-2.35.55-5.35-1.8-6.7l-44.07-25.45c-.77-.45-1.62-.66-2.45-.66-1.7,0-3.35.88-4.26,2.46m195.97-1.8l-44.07,25.45c-1.57.91-2.45,2.56-2.45,4.25,0,.83.21,1.68.66,2.45,1.35,2.35,4.36,3.15,6.7,1.8l44.07-25.45c2.35-1.36,3.15-4.36,1.8-6.71-.91-1.57-2.56-2.45-4.25-2.46-.83,0-1.68.21-2.45.66m-174.28-18.39c-.94.96-1.41,2.2-1.41,3.45s.49,2.53,1.46,3.49l11.63,11.49c1.93,1.9,5.03,1.89,6.94-.04,1.9-1.93,1.89-5.04-.04-6.94l-11.63-11.49c-.96-.95-2.2-1.42-3.45-1.42s-2.53.49-3.49,1.46m151.4-.91l-11.5,11.64c-.95.96-1.42,2.2-1.42,3.45s.49,2.53,1.46,3.49c1.93,1.9,5.03,1.89,6.94-.04l11.5-11.64c1.91-1.93,1.89-5.04-.04-6.94-.96-.94-2.2-1.42-3.45-1.42s-2.53.49-3.49,1.46m-130.26-21.73c-1.58.91-2.46,2.56-2.46,4.25,0,.83.21,1.68.66,2.45l25.45,44.07c1.36,2.35,4.36,3.15,6.71,1.8,2.35-1.35,3.15-4.36,1.79-6.7l-25.45-44.08c-.91-1.57-2.56-2.45-4.25-2.45-.83,0-1.68.21-2.45.66m110.31,1.79l-25.45,44.08c-.45.77-.66,1.62-.66,2.45,0,1.7.88,3.35,2.46,4.25,2.35,1.36,5.35.55,6.71-1.8l25.45-44.07c1.35-2.35.55-5.35-1.8-6.7-.77-.45-1.62-.66-2.45-.66-1.69,0-3.34.88-4.25,2.45m-81.43-8.43c-2.18.6-3.61,2.57-3.61,4.73,0,.43.06.87.17,1.3l4.55,16.58c.72,2.61,3.42,4.15,6.03,3.43,2.61-.72,4.15-3.42,3.43-6.03l-4.55-16.58c-.6-2.18-2.57-3.61-4.73-3.61-.43,0-.87.06-1.3.18m51.97,3.16l-4.22,16.12c-.11.42-.16.83-.16,1.24,0,2.18,1.46,4.17,3.67,4.74,2.62.69,5.3-.88,5.99-3.51l4.22-16.12c.69-2.62-.88-5.3-3.51-5.99-.42-.11-.83-.16-1.24-.16-2.18,0-4.17,1.46-4.74,3.67m-27.25-7.29v50.89c0,2.71,2.2,4.91,4.91,4.91s4.91-2.2,4.91-4.91v-50.89c0-2.71-2.2-4.91-4.91-4.91s-4.91,2.2-4.91,4.91"/></clipPath><radialGradient id="radial-gradient-10" cx="2117.38" cy="3014.55" fx="2117.38" fy="3014.55" r="1" gradientTransform="translate(-411635.33 -290155.14) rotate(90) scale(137.11 -137.11)" xlink:href="#radial-gradient-2"/><clipPath id="clippath-16"><path class="cls-1" d="m171.58,604.83c-2.18.6-3.61,2.57-3.61,4.73,0,.43.06.87.18,1.3l4.5,16.41c.72,2.61,3.42,4.15,6.03,3.43,2.61-.72,4.15-3.42,3.43-6.03l-4.5-16.41c-.6-2.18-2.58-3.61-4.73-3.61-.43,0-.87.06-1.3.18m-49.94,3.32l-4.42,16.91c-.11.42-.16.83-.16,1.24,0,2.18,1.46,4.17,3.67,4.75,2.62.69,5.3-.89,5.99-3.51l4.42-16.91c.69-2.62-.88-5.3-3.51-5.99-.42-.11-.83-.16-1.24-.16-2.18,0-4.17,1.46-4.74,3.67m-39.82-24.35l-11.5,11.64c-.94.96-1.42,2.2-1.42,3.45s.49,2.53,1.46,3.49c1.93,1.91,5.04,1.89,6.94-.04l11.5-11.64c1.91-1.93,1.89-5.04-.04-6.94-.96-.94-2.2-1.42-3.45-1.42s-2.53.49-3.49,1.46m128.27-.76c-.94.96-1.42,2.2-1.42,3.45s.49,2.53,1.46,3.49l11.63,11.49c1.93,1.9,5.04,1.89,6.94-.04,1.9-1.93,1.89-5.04-.04-6.94l-11.63-11.49c-.96-.94-2.2-1.42-3.45-1.42s-2.53.49-3.49,1.46m-65.94.91v50.89c0,2.71,2.2,4.91,4.91,4.91s4.91-2.2,4.91-4.91v-50.89c0-2.71-2.2-4.91-4.91-4.91s-4.91,2.2-4.91,4.91m-29.95-10.65l-25.45,44.08c-.45.77-.66,1.62-.66,2.45,0,1.7.88,3.35,2.46,4.25,2.35,1.36,5.35.55,6.7-1.8l25.45-44.07c1.36-2.35.55-5.35-1.79-6.7-.77-.45-1.62-.66-2.45-.66-1.7,0-3.35.88-4.25,2.46m63.01-1.8c-1.58.91-2.46,2.56-2.46,4.26,0,.83.21,1.68.66,2.45l25.45,44.07c1.35,2.35,4.36,3.15,6.7,1.8,2.35-1.35,3.15-4.36,1.8-6.7l-25.45-44.08c-.91-1.57-2.56-2.46-4.26-2.46-.83,0-1.68.21-2.45.66m-83.62-22.41l-44.08,25.45c-1.57.91-2.45,2.56-2.45,4.26,0,.83.21,1.68.66,2.45,1.35,2.35,4.36,3.15,6.7,1.8l44.07-25.45c2.35-1.35,3.15-4.36,1.8-6.7-.91-1.58-2.56-2.46-4.25-2.46-.83,0-1.68.21-2.45.66m104.23,1.8c-.45.77-.66,1.62-.66,2.45,0,1.7.88,3.35,2.45,4.26l44.07,25.45c2.35,1.36,5.35.55,6.7-1.8,1.35-2.35.55-5.35-1.8-6.7l-44.07-25.45c-.77-.45-1.62-.66-2.45-.66-1.7,0-3.34.88-4.25,2.46m-138.23-8.69l-15.07,4.14c-2.18.6-3.61,2.57-3.61,4.73,0,.43.06.87.18,1.3.72,2.61,3.42,4.15,6.03,3.43l15.08-4.14c2.61-.72,4.15-3.42,3.43-6.03-.6-2.18-2.57-3.61-4.73-3.61-.43,0-.87.06-1.3.18m173.18,2.43c-.11.42-.16.83-.16,1.24,0,2.18,1.46,4.17,3.67,4.75l15.11,3.95c2.62.69,5.31-.88,5.99-3.51.69-2.62-.88-5.3-3.51-5.99l-15.11-3.95c-.42-.11-.83-.16-1.25-.16-2.18,0-4.17,1.46-4.74,3.67m-195.82-26.8c-2.71,0-4.91,2.2-4.91,4.91s2.2,4.91,4.91,4.91h50.89c2.71,0,4.91-2.2,4.91-4.91s-2.2-4.91-4.91-4.91h-50.89Zm173.33,0c-2.71,0-4.91,2.2-4.91,4.91s2.2,4.91,4.91,4.91h50.89c2.71,0,4.91-2.2,4.91-4.91s-2.2-4.91-4.91-4.91h-50.89Zm-169.54-23.42c-.11.41-.16.83-.16,1.24,0,2.18,1.46,4.17,3.67,4.75l15.11,3.95c2.62.69,5.3-.88,5.99-3.51.69-2.62-.88-5.3-3.51-5.99l-15.11-3.95c-.42-.11-.83-.16-1.24-.16-2.18,0-4.17,1.46-4.74,3.67m210.27-4.74l-15.07,4.14c-2.18.6-3.61,2.57-3.61,4.73,0,.43.06.87.18,1.3.72,2.61,3.42,4.15,6.03,3.43l15.07-4.14c2.61-.72,4.15-3.42,3.44-6.03-.6-2.18-2.58-3.61-4.73-3.61-.43,0-.87.06-1.3.18m-203.28-25.44c-.45.77-.66,1.62-.66,2.45,0,1.7.88,3.35,2.45,4.26l44.08,25.45c2.35,1.35,5.35.55,6.7-1.8,1.35-2.35.55-5.35-1.8-6.7l-44.07-25.45c-.77-.45-1.62-.66-2.45-.66-1.7,0-3.35.88-4.26,2.46m195.97-1.8l-44.07,25.45c-1.57.91-2.45,2.56-2.45,4.25,0,.83.21,1.68.66,2.45,1.35,2.35,4.36,3.15,6.7,1.8l44.07-25.45c2.35-1.36,3.15-4.36,1.8-6.71-.91-1.57-2.56-2.45-4.25-2.46-.83,0-1.68.21-2.45.66m-174.28-18.39c-.94.96-1.41,2.2-1.41,3.45s.49,2.53,1.46,3.49l11.63,11.49c1.93,1.9,5.03,1.89,6.94-.04,1.9-1.93,1.89-5.04-.04-6.94l-11.63-11.49c-.96-.95-2.2-1.42-3.45-1.42s-2.53.49-3.49,1.46m151.4-.91l-11.5,11.64c-.95.96-1.42,2.2-1.42,3.45s.49,2.53,1.46,3.49c1.93,1.9,5.03,1.89,6.94-.04l11.5-11.64c1.91-1.93,1.89-5.04-.04-6.94-.96-.94-2.2-1.42-3.45-1.42s-2.53.49-3.49,1.46m-130.26-21.73c-1.58.91-2.46,2.56-2.46,4.25,0,.83.21,1.68.66,2.45l25.45,44.07c1.36,2.35,4.36,3.15,6.71,1.8,2.35-1.35,3.15-4.36,1.79-6.7l-25.45-44.08c-.91-1.57-2.56-2.45-4.25-2.45-.83,0-1.68.21-2.45.66m110.31,1.79l-25.45,44.08c-.45.77-.66,1.62-.66,2.45,0,1.7.88,3.35,2.46,4.25,2.35,1.36,5.35.55,6.71-1.8l25.45-44.07c1.35-2.35.55-5.35-1.8-6.7-.77-.45-1.62-.66-2.45-.66-1.69,0-3.34.88-4.25,2.45m-81.43-8.43c-2.18.6-3.61,2.57-3.61,4.73,0,.43.06.87.17,1.3l4.55,16.58c.72,2.61,3.42,4.15,6.03,3.43,2.61-.72,4.15-3.42,3.43-6.03l-4.55-16.58c-.6-2.18-2.57-3.61-4.73-3.61-.43,0-.87.06-1.3.18m51.97,3.16l-4.22,16.12c-.11.42-.16.83-.16,1.24,0,2.18,1.46,4.17,3.67,4.74,2.62.69,5.3-.88,5.99-3.51l4.22-16.12c.69-2.62-.88-5.3-3.51-5.99-.42-.11-.83-.16-1.24-.16-2.18,0-4.17,1.46-4.74,3.67m-27.25-7.29v50.89c0,2.71,2.2,4.91,4.91,4.91s4.91-2.2,4.91-4.91v-50.89c0-2.71-2.2-4.91-4.91-4.91s-4.91,2.2-4.91,4.91"/></clipPath><radialGradient id="radial-gradient-11" cx="2120.11" cy="3003.34" fx="2120.11" fy="3003.34" r="1" gradientTransform="translate(-411635.33 -290155.14) rotate(90) scale(137.11 -137.11)" xlink:href="#radial-gradient-2"/></defs><g id="Layer_1-2"><rect class="cls-31" width="1920" height="1080"/><g class="cls-3"><rect class="cls-29" x="404.3" y="0" width="185.22" height="55.9"/></g><g class="cls-4"><rect class="cls-24" x="0" y="22.41" width="114.34" height="175.39"/></g><g class="cls-7"><rect class="cls-25" x="864.48" y="776.59" width="234.03" height="234.03"/></g><g class="cls-6"><rect class="cls-23" x="1659.5" y="847.53" width="138.52" height="138.53"/></g><g class="cls-5"><rect class="cls-22" x="1646.5" y="405.54" width="138.52" height="138.52"/></g><g class="cls-11"><rect class="cls-28" x="0" y="934.6" width="60.55" height="145.4"/></g><line class="cls-2" x1="1503.5" y1="222.5" x2="1503.5" y2="225.5"/><g class="cls-10"><g class="cls-8"><g class="cls-9"><g class="cls-12"><rect class="cls-27" x="372.98" y="1037.85" width="247.78" height="247.78"/></g></g></g></g><g class="cls-18"><g class="cls-21"><g class="cls-17"><g class="cls-16"><rect class="cls-26" x="-298.91" y="1019.94" width="445.02" height="445.02"/></g></g></g></g><g class="cls-30"><g class="cls-15"><g class="cls-19"><rect class="cls-13" x="1568.19" y="32.06" width="234.03" height="234.03"/></g><g class="cls-20"><rect class="cls-14" x="32.03" y="405.71" width="234.03" height="234.03"/></g></g></g></g></svg>