<?xml version="1.0" encoding="UTF-8"?><svg id="Layer_2" xmlns="http://www.w3.org/2000/svg" viewBox="0 0 33.24 58.7"><defs><style>.cls-1{fill:#2461ac;}</style></defs><g id="Layer_1-2"><path class="cls-1" d="m29.04,27.43h-.15c-.56,0-1.11.11-1.62.33-.19-2.27-2.18-3.96-4.45-3.77-.66.05-1.29.26-1.85.61-1.04-1.79-3.25-2.53-5.16-1.72v-5.67c0-2.3-1.86-4.16-4.16-4.16s-4.16,1.86-4.16,4.16v15.32l-.18-.27-.09-.12c-1.43-1.74-4-2-5.74-.57-.05.04-.1.08-.15.12-1.57,1.42-1.79,3.8-.53,5.49l9.22,14.3v5.93c0,.71.58,1.29,1.29,1.29h17.1c.71,0,1.29-.58,1.29-1.29v-5.9l3.28-4.61c.16-.22.24-.48.24-.75v-14.55c0-2.3-1.87-4.16-4.17-4.16h-.02Zm1.57,18.3l-3.28,4.61c-.16.22-.24.48-.24.75v5.02h-14.47v-5.02c0-.25-.07-.49-.21-.7l-9.47-14.63-.07-.09c-.51-.65-.4-1.59.25-2.1.3-.23.67-.35,1.05-.32.39.03.75.21,1.01.5l2.5,3.91c.35.62,1.14.84,1.76.48.43-.24.68-.71.65-1.21v-19.73c0-.87.71-1.58,1.58-1.58s1.58.71,1.58,1.58v15.67c0,.71.58,1.29,1.29,1.29s1.29-.58,1.29-1.29v-6.17c0-.87.71-1.58,1.58-1.58s1.58.71,1.58,1.58v6.17c0,.71.58,1.29,1.29,1.29s1.29-.58,1.29-1.29v-4.75c0-.87.71-1.58,1.58-1.58s1.58.71,1.58,1.58v6.7c0,.71.58,1.29,1.29,1.29s1.29-.58,1.29-1.29v-3.24c0-.87.71-1.58,1.58-1.58h.15c.87,0,1.57.71,1.57,1.58v14.15Z"/><path class="cls-1" d="m12.67,9.18V1.29c0-.71-.58-1.29-1.29-1.29s-1.29.58-1.29,1.29v7.89c0,.71.58,1.29,1.29,1.29s1.29-.58,1.29-1.29"/><path class="cls-1" d="m16.84,11.99l5.56-5.54c.49-.52.46-1.34-.07-1.83-.49-.46-1.26-.46-1.76,0l-5.58,5.58c-.55.46-.62,1.27-.16,1.82.46.55,1.27.62,1.82.16.07-.06.13-.12.18-.19"/><path class="cls-1" d="m5.91,11.73c.5.51,1.33.52,1.84.02.51-.5.52-1.33.02-1.84L2.2,4.33c-.52-.48-1.34-.46-1.83.07-.46.49-.46,1.26,0,1.76l5.54,5.58Z"/></g></svg>