<?xml version="1.0" encoding="UTF-8"?><svg id="Layer_2" xmlns="http://www.w3.org/2000/svg" viewBox="0 0 19.41 34.28"><defs><style>.cls-1{fill:#fff;}</style></defs><g id="Layer_1-2"><path class="cls-1" d="m16.96,16.02h-.09c-.32,0-.65.06-.94.19-.11-1.33-1.27-2.31-2.6-2.2-.38.03-.75.15-1.08.36-.61-1.04-1.9-1.48-3.01-1v-3.31c0-1.34-1.09-2.43-2.43-2.43s-2.43,1.09-2.43,2.43v8.95l-.11-.16-.05-.07c-.83-1.02-2.33-1.17-3.35-.33-.03.02-.06.05-.09.07-.91.83-1.05,2.22-.31,3.21l5.38,8.35v3.46c0,.42.34.75.75.75h9.99c.42,0,.75-.34.75-.75v-3.45l1.91-2.69c.09-.13.14-.28.14-.44v-8.5c0-1.34-1.09-2.43-2.44-2.43h-.01Zm.92,10.69l-1.91,2.69c-.09.13-.14.28-.14.44v2.93H7.37v-2.93c0-.14-.04-.29-.12-.41L1.72,20.89l-.04-.05c-.3-.38-.23-.93.15-1.23.17-.14.39-.2.61-.18.23.02.44.12.59.29l1.46,2.28c.21.36.67.49,1.03.28.25-.14.4-.42.38-.7v-11.52c0-.51.41-.92.92-.92s.92.41.92.92v9.15c0,.42.34.75.75.75s.75-.34.75-.75v-3.6c0-.51.41-.92.92-.92s.92.41.92.92v3.6c0,.42.34.75.75.75s.75-.34.75-.75v-2.77c0-.51.41-.92.92-.92s.92.41.92.92v3.91c0,.42.34.75.75.75s.75-.34.75-.75v-1.89c0-.51.41-.92.92-.92h.09c.51,0,.92.41.92.92v8.26Z"/><path class="cls-1" d="m7.4,5.36V.75c0-.42-.34-.75-.75-.75s-.75.34-.75.75v4.61c0,.42.34.75.75.75s.75-.34.75-.75"/><path class="cls-1" d="m9.84,7l3.25-3.24c.28-.3.27-.78-.04-1.07-.29-.27-.74-.27-1.03,0l-3.26,3.26c-.32.27-.36.74-.09,1.06.27.32.74.36,1.06.09.04-.03.07-.07.11-.11"/><path class="cls-1" d="m3.45,6.85c.29.3.77.3,1.07.01.3-.29.3-.78.01-1.07L1.28,2.53c-.3-.28-.78-.27-1.07.04C-.05,2.85-.05,3.3.22,3.59l3.24,3.26Z"/></g></svg>