<?xml version="1.0" encoding="UTF-8"?><svg id="Layer_2" xmlns="http://www.w3.org/2000/svg" xmlns:xlink="http://www.w3.org/1999/xlink" viewBox="0 0 757.14 435.65"><defs><style>.cls-1{letter-spacing:-.12em;}.cls-1,.cls-2,.cls-3,.cls-4,.cls-5,.cls-6,.cls-7,.cls-8,.cls-9,.cls-10{font-family:AvenirLTStd-Book, 'AvenirLTStd Book';}.cls-11{stroke-dasharray:0 0 6.01 6.01;}.cls-11,.cls-12{stroke-linecap:round;}.cls-11,.cls-12,.cls-13,.cls-14,.cls-15,.cls-16,.cls-17{fill:none;stroke-miterlimit:10;}.cls-11,.cls-12,.cls-14,.cls-17{stroke:#58595b;}.cls-18{font-family:AvenirLTStd-BookOblique, 'AvenirLTStd BookOblique';font-style:oblique;}.cls-18,.cls-19{letter-spacing:0em;}.cls-20,.cls-21,.cls-22,.cls-23,.cls-24,.cls-25,.cls-26,.cls-27,.cls-28,.cls-29,.cls-30{font-weight:800;}.cls-20,.cls-22,.cls-23,.cls-24,.cls-27,.cls-28,.cls-29{font-family:AvenirLTStd-Black, 'AvenirLTStd Black';}.cls-20,.cls-31{font-size:10px;}.cls-20,.cls-31,.cls-28{fill:#fff;}.cls-32{letter-spacing:.01em;}.cls-21{font-size:18.92px;}.cls-21,.cls-33,.cls-34,.cls-25{fill:#58595b;}.cls-21,.cls-25{font-family:Avenir-Heavy, Avenir;}.cls-2,.cls-23,.cls-30{letter-spacing:-.02em;}.cls-3,.cls-22,.cls-26{letter-spacing:-.02em;}.cls-35{letter-spacing:-.06em;}.cls-36{letter-spacing:-.02em;}.cls-37,.cls-38{fill:#0072bc;}.cls-39,.cls-40{fill:#939598;}.cls-33{font-family:ArialNarrow, 'Arial Narrow';font-size:16.89px;}.cls-40{font-size:16.33px;}.cls-13{stroke:#919496;stroke-width:1.08px;}.cls-34{font-family:ArialMT, Arial;font-size:15.15px;}.cls-41{letter-spacing:-.08em;}.cls-4{letter-spacing:-.02em;}.cls-5{letter-spacing:-.02em;}.cls-25{font-size:18.35px;}.cls-42{letter-spacing:0em;}.cls-43{letter-spacing:0em;}.cls-44{letter-spacing:0em;}.cls-14{stroke-width:2px;}.cls-15{stroke:#939598;}.cls-15,.cls-16{stroke-width:4px;}.cls-16{stroke:#0072bc;}.cls-45{letter-spacing:0em;}.cls-46{letter-spacing:-.05em;}.cls-47{letter-spacing:-.05em;}.cls-48,.cls-49{letter-spacing:0em;}.cls-50{letter-spacing:-.04em;}.cls-51{fill:#a37bb7;filter:url(#drop-shadow-1);}.cls-38{font-size:15px;}.cls-49{font-family:AvenirLTStd-Roman, 'AvenirLTStd Roman';}.cls-6{letter-spacing:-.01em;}.cls-7{letter-spacing:-.01em;}.cls-17{opacity:.15;}.cls-8{letter-spacing:-.02em;}.cls-26,.cls-30{font-family:AvenirLTStd-Heavy, 'Avenir LT Std';}.cls-27{letter-spacing:-.02em;}.cls-52{letter-spacing:-.13em;}.cls-28{font-size:26.1px;}.cls-29,.cls-10{letter-spacing:-.02em;}.cls-9{letter-spacing:-.02em;}.cls-53{letter-spacing:0em;}.cls-54{letter-spacing:0em;}</style><filter id="drop-shadow-1" filterUnits="userSpaceOnUse"><feOffset dx="3.37" dy="3.37"/><feGaussianBlur result="blur" stdDeviation="4.72"/><feFlood flood-color="#231f20" flood-opacity=".6"/><feComposite in2="blur" operator="in"/><feComposite in="SourceGraphic"/></filter></defs><g id="Layer_1-2"><rect class="cls-13" x=".54" y=".54" width="756.06" height="434.57"/><circle class="cls-37" cx="665.02" cy="131.79" r="6.44"/><polyline class="cls-16" points="100.4 159.41 216.22 142.08 435.7 151.46 641.19 160.36 660.44 135.3"/><text class="cls-38" transform="translate(146.38 115.98)"><tspan class="cls-22" x="0" y="0">YUPELRI</tspan><tspan class="cls-26" x="50.34" y="0"> </tspan><tspan class="cls-6" x="54.55" y="0">(</tspan><tspan class="cls-1" x="58.59" y="0">1</tspan><tspan class="cls-3" x="64.56" y="0">75 mcg) with </tspan><tspan class="cls-8" x="146.28" y="0">c</tspan><tspan class="cls-3" x="152.68" y="0">on</tspan><tspan class="cls-9" x="168.79" y="0">c</tspan><tspan class="cls-6" x="175.2" y="0">omita</tspan><tspan class="cls-5" x="210.52" y="0">n</tspan><tspan class="cls-3" x="218.56" y="0">t LABA or ICS/LABA (n=</tspan><tspan class="cls-1" x="357.92" y="0">1</tspan><tspan class="cls-3" x="363.89" y="0">18) </tspan></text><text class="cls-40" transform="translate(145.95 337.56)"><tspan class="cls-27" x="0" y="0">P</tspan><tspan class="cls-23" x="8.36" y="0">la</tspan><tspan class="cls-29" x="19.6" y="0">c</tspan><tspan class="cls-23" x="26.57" y="0">ebo</tspan><tspan class="cls-30" x="52.27" y="0"> </tspan><tspan class="cls-7" x="56.86" y="0">with </tspan><tspan class="cls-10" x="89.4" y="0">c</tspan><tspan class="cls-2" x="96.37" y="0">on</tspan><tspan class="cls-10" x="113.91" y="0">c</tspan><tspan class="cls-2" x="120.88" y="0">omita</tspan><tspan class="cls-4" x="159.34" y="0">n</tspan><tspan class="cls-2" x="168.09" y="0">t LABA or ICS/LABA (n=89)</tspan></text><polyline class="cls-15" points="100.49 277.89 216.22 293.55 435.87 304.12 641.04 322.84 660.44 290.09"/><circle class="cls-37" cx="100.49" cy="159.82" r="7.25"/><circle class="cls-37" cx="216.62" cy="141.94" r="7.25"/><circle class="cls-37" cx="435.81" cy="151.29" r="7.25"/><circle class="cls-37" cx="641.05" cy="160.58" r="7.25"/><line class="cls-17" x1="91.91" y1="35.88" x2="690.96" y2="35.88"/><line class="cls-17" x1="91.91" y1="91.33" x2="690.96" y2="91.33"/><line class="cls-17" x1="91.91" y1="146.79" x2="690.96" y2="146.79"/><line class="cls-17" x1="91.91" y1="202.24" x2="690.96" y2="202.24"/><line class="cls-17" x1="91.91" y1="312.47" x2="690.96" y2="312.47"/><line class="cls-17" x1="91.91" y1="285.08" x2="690.96" y2="285.08"/><text class="cls-25" transform="translate(347.87 412.56)"><tspan x="0" y="0">Study day</tspan></text><text class="cls-34" transform="translate(86.66 389.22)"><tspan x="0" y="0">Day 15</tspan></text><text class="cls-34" transform="translate(194.72 389.22)"><tspan x="0" y="0">Day 29</tspan></text><text class="cls-34" transform="translate(412.41 389.22)"><tspan x="0" y="0">Day 57</tspan></text><text class="cls-34" transform="translate(616.64 389.22)"><tspan x="0" y="0">Day 85</tspan></text><line class="cls-14" x1="90.55" y1="369.08" x2="690.96" y2="369.08"/><text class="cls-33" transform="translate(45.7 369.16)"><tspan x="0" y="0">–100</tspan></text><text class="cls-33" transform="translate(53.41 316.69)"><tspan x="0" y="0">–50</tspan></text><text class="cls-33" transform="translate(68.81 261.37)"><tspan x="0" y="0">0</tspan></text><text class="cls-33" transform="translate(61.11 206.05)"><tspan x="0" y="0">50</tspan></text><text class="cls-33" transform="translate(53.41 150.74)"><tspan x="0" y="0">100</tspan></text><text class="cls-33" transform="translate(53.41 95.42)"><tspan x="0" y="0">150</tspan></text><text class="cls-33" transform="translate(53.41 40.1)"><tspan x="0" y="0">200</tspan></text><text class="cls-33" transform="translate(53.41 344.69)"><tspan x="0" y="0">–75</tspan></text><text class="cls-33" transform="translate(53.41 289.03)"><tspan x="0" y="0">–25</tspan></text><text class="cls-33" transform="translate(61.11 233.71)"><tspan x="0" y="0">25</tspan></text><text class="cls-33" transform="translate(61.11 178.39)"><tspan x="0" y="0">75</tspan></text><text class="cls-33" transform="translate(53.41 123.08)"><tspan x="0" y="0">125</tspan></text><text class="cls-33" transform="translate(53.41 67.76)"><tspan x="0" y="0">175</tspan></text><text class="cls-21" transform="translate(36.26 381.64) rotate(-90)"><tspan x="0" y="0">LS mean FEV</tspan></text><text class="cls-21" transform="translate(42.56 266.38) rotate(-90) scale(.58)"><tspan x="0" y="0">1</tspan></text><text class="cls-21" transform="translate(36.26 259.85) rotate(-90)"><tspan x="0" y="0" xml:space="preserve"> change f</tspan><tspan class="cls-36" x="81.64" y="0">r</tspan><tspan x="88.66" y="0">om base</tspan><tspan class="cls-42" x="163.6" y="0">l</tspan><tspan x="168.54" y="0">ine (mL)</tspan></text><polyline class="cls-12" points="692.18 258.26 692.18 257.13 689.18 257.13"/><line class="cls-11" x1="683.17" y1="257.13" x2="96.92" y2="257.13"/><line class="cls-12" x1="93.92" y1="257.13" x2="90.92" y2="257.13"/><line class="cls-17" x1="91.91" y1="63.6" x2="690.96" y2="63.6"/><line class="cls-17" x1="91.91" y1="119.06" x2="690.96" y2="119.06"/><line class="cls-17" x1="91.91" y1="174.51" x2="690.96" y2="174.51"/><line class="cls-17" x1="91.91" y1="229.97" x2="690.96" y2="229.97"/><line class="cls-17" x1="91.91" y1="340.78" x2="690.96" y2="340.78"/><polygon class="cls-39" points="660.58 281.75 652.86 295.12 668.3 295.12 660.58 281.75"/><polygon class="cls-39" points="641.16 314.69 633.44 328.06 648.88 328.06 641.16 314.69"/><polygon class="cls-39" points="435.89 295.87 428.17 309.24 443.61 309.24 435.89 295.87"/><polygon class="cls-39" points="216.34 285.95 208.63 299.32 224.06 299.32 216.34 285.95"/><polygon class="cls-39" points="100.68 270.44 92.96 283.81 108.4 283.81 100.68 270.44"/><polygon class="cls-51" points="735.78 190.77 678.49 158.54 621.19 190.77 634.02 190.77 634.02 251.44 622.58 251.42 679.38 277.12 735.78 251.78 722.96 251.44 722.96 190.77 735.78 190.77"/><text class="cls-28" transform="translate(643.55 229.64)"><tspan class="cls-52" x="0" y="0">1</tspan><tspan class="cls-50" x="9.87" y="0">3</tspan><tspan class="cls-46" x="22.08" y="0">9</tspan><tspan class="cls-41" x="34.17" y="0"> </tspan><tspan class="cls-35" x="37.74" y="0">m</tspan><tspan class="cls-47" x="57.92" y="0">L</tspan></text><text class="cls-31" transform="translate(656.11 243.99)"><tspan class="cls-24"><tspan class="cls-54" x="0" y="0">v</tspan><tspan class="cls-48" x="4.8" y="0">s pla</tspan><tspan class="cls-44" x="24" y="0">c</tspan><tspan class="cls-19" x="28.47" y="0">ebo</tspan></tspan><tspan class="cls-49" x="-.19" y="12.12">(</tspan><tspan class="cls-18" x="2.71" y="12.12">P</tspan><tspan class="cls-49" x="8.07" y="12.12">&lt;0.0001)</tspan></text><text class="cls-20" transform="translate(666.67 182.81)"><tspan class="cls-32" x="0" y="0">M</tspan><tspan class="cls-48" x="8.15" y="0">ean</tspan><tspan class="cls-19" x="-9.26" y="9.58">t</tspan><tspan class="cls-53" x="-5.9" y="9.58">r</tspan><tspan class="cls-19" x="-2.68" y="9.58">e</tspan><tspan class="cls-43" x="2.38" y="9.58">a</tspan><tspan class="cls-19" x="7.21" y="9.58">tme</tspan><tspan class="cls-43" x="24.02" y="9.58">n</tspan><tspan class="cls-19" x="29.58" y="9.58">t</tspan><tspan class="cls-19" x="-9.31" y="20.03">di</tspan><tspan class="cls-45" x="-1.23" y="20.03">ff</tspan><tspan class="cls-19" x="4.52" y="20.03">e</tspan><tspan class="cls-53" x="9.58" y="20.03">r</tspan><tspan class="cls-48" x="12.8" y="20.03">en</tspan><tspan class="cls-44" x="23.46" y="20.03">c</tspan><tspan class="cls-48" x="27.93" y="20.03">e</tspan></text></g></svg>