<?xml version="1.0" encoding="UTF-8"?><svg id="Layer_2" xmlns="http://www.w3.org/2000/svg" xmlns:xlink="http://www.w3.org/1999/xlink" viewBox="0 0 714.19 380.66"><defs><style>.cls-1,.cls-2,.cls-3,.cls-4,.cls-5,.cls-6{fill:none;}.cls-7,.cls-8,.cls-9,.cls-10{font-family:ArialMT, Arial;}.cls-8{font-size:7.97px;}.cls-8,.cls-11,.cls-10{fill:#595a5c;}.cls-12{clip-path:url(#clippath);}.cls-13{font-size:25.49px;}.cls-13,.cls-14{fill:#fff;}.cls-13,.cls-15,.cls-11{font-family:Arial-BoldMT, Arial;font-weight:700;}.cls-2{stroke:#919496;stroke-width:.85px;}.cls-2,.cls-3,.cls-4,.cls-5,.cls-6{stroke-miterlimit:10;}.cls-16,.cls-17{fill:#939598;}.cls-18{fill:#9461a9;}.cls-19,.cls-20{fill:#0d73bb;}.cls-3{stroke:#595a5c;stroke-width:.85px;}.cls-4{stroke-width:1.27px;}.cls-4,.cls-5{stroke:#0d73bb;}.cls-20,.cls-17{font-size:16.8px;}.cls-5,.cls-6{stroke-width:2.55px;}.cls-6{stroke:#939598;}.cls-21{letter-spacing:-.05em;}.cls-22{clip-path:url(#clippath-1);}.cls-23{clip-path:url(#clippath-4);}.cls-24{clip-path:url(#clippath-3);}.cls-25{clip-path:url(#clippath-2);}.cls-26{clip-path:url(#clippath-7);}.cls-27{clip-path:url(#clippath-8);}.cls-28{clip-path:url(#clippath-6);}.cls-29{clip-path:url(#clippath-5);}.cls-30{clip-path:url(#clippath-9);}.cls-31{clip-path:url(#clippath-14);}.cls-32{clip-path:url(#clippath-13);}.cls-33{clip-path:url(#clippath-12);}.cls-34{clip-path:url(#clippath-10);}.cls-35{clip-path:url(#clippath-11);}.cls-36{letter-spacing:-.06em;}.cls-37{opacity:.15;}.cls-9{letter-spacing:0em;}.cls-38{letter-spacing:-.04em;}.cls-39{fill:#231f20;font-family:MyriadPro-Regular, 'Myriad Pro';font-size:12px;}.cls-11{font-size:15.24px;}.cls-40{letter-spacing:-.11em;}.cls-10{font-size:13.67px;}</style><clipPath id="clippath"><rect class="cls-1" x="98.98" y="23.68" width="540.46" height="1.27"/></clipPath><clipPath id="clippath-1"><rect class="cls-1" x="98.98" y="73.71" width="540.46" height="1.27"/></clipPath><clipPath id="clippath-2"><rect class="cls-1" x="98.98" y="123.74" width="540.46" height="1.27"/></clipPath><clipPath id="clippath-3"><rect class="cls-1" x="98.98" y="173.77" width="540.46" height="1.27"/></clipPath><clipPath id="clippath-4"><rect class="cls-1" x="98.98" y="273.83" width="540.46" height="1.27"/></clipPath><clipPath id="clippath-5"><rect class="cls-1" x="99.72" y="121.54" width="12.87" height="12.87"/></clipPath><clipPath id="clippath-6"><rect class="cls-1" x="203.94" y="108.46" width="12.87" height="12.87"/></clipPath><clipPath id="clippath-7"><rect class="cls-1" x="402.43" y="110.56" width="12.87" height="12.87"/></clipPath><clipPath id="clippath-8"><rect class="cls-1" x="588.97" y="120.99" width="12.87" height="12.87"/></clipPath><clipPath id="clippath-9"><rect class="cls-1" x="604.72" y="97.71" width="12.87" height="12.87"/></clipPath><clipPath id="clippath-10"><rect class="cls-1" x="587.28" y="255.15" width="13.31" height="11.53"/></clipPath><clipPath id="clippath-11"><rect class="cls-1" x="604.49" y="250.02" width="13.31" height="11.53"/></clipPath><clipPath id="clippath-12"><rect class="cls-1" x="402.21" y="250.58" width="13.31" height="11.53"/></clipPath><clipPath id="clippath-13"><rect class="cls-1" x="203.49" y="250.58" width="13.31" height="11.53"/></clipPath><clipPath id="clippath-14"><rect class="cls-1" x="100.62" y="238.73" width="13.31" height="11.53"/></clipPath></defs><g id="Layer_1-2"><rect class="cls-14" x=".42" y=".42" width="713.34" height="379.82"/><rect class="cls-2" x=".42" y=".42" width="713.34" height="379.82"/><text class="cls-20" transform="translate(317.12 100.77)"><tspan class="cls-15" x="0" y="0">YUPELRI </tspan><tspan class="cls-7" x="77.48" y="0">(n=395)</tspan></text><text class="cls-39" transform="translate(540.99 219.97) rotate(-180)"><tspan x="0" y="0"> </tspan></text><polyline class="cls-5" points="610.82 105.93 595.4 127.42 411.42 116.49 210.98 115.15 106.04 129.12"/><polyline class="cls-6" points="110.12 247.33 211.04 257.81 410.81 257.54 598.37 261.08 610.82 257.93"/><text class="cls-11" transform="translate(332.18 364.23)"><tspan x="0" y="0">Study day</tspan></text><text class="cls-10" transform="translate(92.06 343.17)"><tspan x="0" y="0">Day 15</tspan></text><text class="cls-8" transform="translate(135.38 338.62)"><tspan x="0" y="0">†</tspan></text><text class="cls-10" transform="translate(192.78 343.17)"><tspan x="0" y="0">Day 29</tspan></text><text class="cls-10" transform="translate(388.17 343.17)"><tspan x="0" y="0">Day 57</tspan></text><text class="cls-10" transform="translate(588.27 343.17)"><tspan x="0" y="0">Day 85</tspan></text><polygon class="cls-18" points="688.97 159.38 630.75 126.63 572.54 159.38 585.57 159.38 585.57 221.02 573.95 221 631.66 247.11 688.97 221.37 675.94 221.02 675.94 159.38 688.97 159.38"/><text class="cls-13" transform="translate(590.71 198.87)"><tspan class="cls-40" x="0" y="0" xml:space="preserve"> 1</tspan><tspan class="cls-38" x="15.86" y="0">4</tspan><tspan class="cls-21" x="28.89" y="0">8 </tspan><tspan class="cls-36" x="47.65" y="0">m</tspan><tspan x="68.89" y="0">L</tspan></text><path class="cls-14" d="m606.81,213.45l-2.13-5.29h1.47l1,2.7.29.9c.08-.23.12-.38.14-.45.05-.15.1-.3.15-.45l1.01-2.7h1.44l-2.1,5.29h-1.26Z"/><path class="cls-14" d="m610.54,211.95l1.4-.21c.06.27.18.48.36.62.18.14.44.21.77.21.36,0,.63-.07.82-.2.12-.09.18-.22.18-.37,0-.11-.03-.19-.1-.26-.07-.07-.23-.13-.47-.18-1.13-.25-1.84-.48-2.15-.68-.42-.29-.63-.68-.63-1.19,0-.46.18-.84.54-1.16.36-.31.92-.47,1.68-.47s1.26.12,1.61.35c.35.24.59.58.73,1.05l-1.32.24c-.06-.21-.16-.36-.32-.47-.16-.11-.38-.16-.67-.16-.37,0-.63.05-.79.15-.11.07-.16.17-.16.28,0,.1.05.18.14.25.13.09.56.22,1.31.39.75.17,1.27.38,1.56.62.29.25.44.6.44,1.04,0,.49-.2.9-.61,1.25-.41.35-1,.52-1.8.52-.72,0-1.29-.15-1.71-.44s-.69-.69-.82-1.19Z"/><path class="cls-14" d="m619.49,208.17h1.3v.78c.17-.27.4-.48.69-.65s.61-.25.96-.25c.61,0,1.14.24,1.56.72.43.48.64,1.15.64,2.01s-.22,1.57-.65,2.06c-.43.49-.95.73-1.57.73-.29,0-.56-.06-.79-.17s-.49-.32-.75-.6v2.66h-1.4v-7.3Zm1.38,2.55c0,.59.12,1.03.35,1.32.24.28.52.42.86.42s.6-.13.81-.39.32-.69.32-1.28c0-.55-.11-.97-.33-1.23-.22-.27-.5-.4-.83-.4s-.63.13-.85.4c-.23.26-.34.66-.34,1.17Z"/><path class="cls-14" d="m625.76,213.45v-7.3h1.4v7.3h-1.4Z"/><path class="cls-14" d="m629.64,209.78l-1.27-.23c.14-.51.39-.89.74-1.14.35-.25.87-.37,1.55-.37.62,0,1.09.07,1.39.22.31.15.52.33.64.56s.19.64.19,1.25l-.02,1.63c0,.46.02.81.07,1.03.04.22.13.46.25.71h-1.38c-.04-.09-.08-.23-.13-.41-.02-.08-.04-.14-.05-.16-.24.23-.49.41-.77.52-.27.12-.56.17-.87.17-.54,0-.97-.15-1.29-.44-.31-.3-.47-.67-.47-1.12,0-.3.07-.56.21-.8.14-.23.34-.41.6-.54.26-.12.63-.23,1.11-.33.65-.12,1.11-.24,1.36-.34v-.14c0-.27-.07-.46-.2-.58s-.38-.17-.75-.17c-.25,0-.44.05-.58.15-.14.1-.25.27-.34.51Zm1.87,1.14c-.18.06-.46.13-.85.21-.39.08-.64.16-.76.24-.18.13-.27.29-.27.49s.07.37.22.51.33.21.56.21c.25,0,.49-.08.72-.25.17-.13.28-.28.33-.46.04-.12.05-.35.05-.68v-.28Z"/><path class="cls-14" d="m638.88,209.73l-1.38.25c-.05-.28-.15-.48-.32-.62-.16-.14-.38-.21-.64-.21-.35,0-.63.12-.83.36-.21.24-.31.64-.31,1.21,0,.63.1,1.07.32,1.33s.49.39.85.39c.27,0,.48-.08.65-.23.17-.15.29-.41.36-.78l1.37.23c-.14.63-.42,1.11-.82,1.43-.4.32-.95.48-1.63.48-.77,0-1.39-.24-1.85-.73-.46-.49-.69-1.16-.69-2.03s.23-1.55.69-2.04,1.09-.73,1.87-.73c.64,0,1.16.14,1.54.42.38.28.65.7.82,1.27Z"/><path class="cls-14" d="m643,211.77l1.39.23c-.18.51-.46.9-.85,1.17s-.87.4-1.45.4c-.92,0-1.6-.3-2.04-.9-.35-.48-.52-1.09-.52-1.82,0-.88.23-1.56.69-2.06.46-.5,1.04-.74,1.74-.74.79,0,1.41.26,1.86.78s.67,1.32.65,2.39h-3.51c.01.42.12.74.34.97.22.23.48.35.81.35.22,0,.4-.06.55-.18.15-.12.26-.31.34-.58Zm.08-1.41c0-.41-.11-.71-.31-.92s-.44-.32-.73-.32c-.31,0-.56.11-.76.33s-.3.52-.29.91h2.09Z"/><path class="cls-14" d="m645.55,213.45v-7.3h1.4v2.63c.43-.49.94-.74,1.53-.74.64,0,1.18.23,1.6.7.42.47.63,1.14.63,2.01s-.22,1.6-.65,2.09-.95.73-1.57.73c-.3,0-.6-.08-.89-.23-.29-.15-.55-.37-.76-.67v.78h-1.3Zm1.39-2.76c0,.55.09.95.26,1.21.24.37.56.56.97.56.31,0,.57-.13.79-.4s.33-.68.33-1.25c0-.6-.11-1.04-.33-1.31-.22-.27-.5-.4-.84-.4s-.61.13-.84.39c-.22.26-.33.66-.33,1.19Z"/><path class="cls-14" d="m651.51,210.74c0-.46.11-.91.34-1.35.23-.44.55-.77.97-1,.42-.23.89-.34,1.41-.34.8,0,1.46.26,1.97.78.51.52.77,1.18.77,1.97s-.26,1.46-.77,1.99c-.52.53-1.17.79-1.95.79-.48,0-.95-.11-1.39-.33-.44-.22-.77-.54-1-.96-.23-.42-.34-.94-.34-1.55Zm1.43.08c0,.52.12.93.37,1.21.25.28.56.42.92.42s.67-.14.92-.42c.25-.28.37-.68.37-1.21s-.12-.92-.37-1.2c-.25-.28-.55-.42-.92-.42s-.67.14-.92.42c-.25.28-.37.68-.37,1.21Z"/><path class="cls-14" d="m603.95,227.84c-.52-1.14-.78-2.31-.78-3.52,0-.8.11-1.55.32-2.24.21-.69.53-1.38.96-2.05.29-.45.74-1.04,1.37-1.75h.7c-.39.42-.8,1-1.23,1.75s-.75,1.49-.94,2.22c-.2.73-.29,1.46-.29,2.19,0,1.1.19,2.23.57,3.41h-.67Z"/><path class="cls-14" d="m606.14,225.69l1.53-7.3h3.05c.53,0,.92.06,1.19.18s.48.33.65.62c.17.29.26.62.26.99,0,.3-.06.61-.18.92-.12.31-.28.57-.47.77-.19.2-.38.35-.57.46-.19.1-.4.18-.62.23-.47.11-.94.16-1.42.16h-1.83l-.62,2.96h-.98Zm1.77-3.79h1.61c.62,0,1.08-.07,1.37-.2.29-.13.53-.34.7-.62.18-.28.26-.57.26-.88,0-.24-.05-.43-.14-.58-.09-.15-.22-.26-.39-.33s-.49-.11-.98-.11h-1.87l-.57,2.72Z"/><path class="cls-14" d="m613.42,222.5v-.84l4.83-2.04v.89l-3.83,1.57,3.83,1.59v.89l-4.83-2.07Z"/><path class="cls-14" d="m619.18,223.3c0-.62.09-1.25.28-1.88.18-.64.39-1.15.62-1.53.23-.38.46-.68.7-.9.24-.22.48-.38.71-.48.23-.1.49-.15.78-.15.56,0,1.02.21,1.4.62.37.42.56,1.01.56,1.8s-.13,1.6-.39,2.39c-.31.94-.73,1.64-1.27,2.11-.42.36-.89.53-1.43.53s-1.01-.21-1.39-.64c-.38-.43-.56-1.05-.56-1.87Zm.87.23c0,.45.07.8.22,1.05.2.35.5.52.9.52.35,0,.67-.16.95-.47.41-.44.72-1.1.93-1.95.21-.86.31-1.56.31-2.1s-.1-.9-.3-1.14-.47-.35-.79-.35c-.24,0-.46.06-.67.18s-.41.33-.59.63c-.27.42-.5,1.05-.7,1.89-.17.72-.25,1.29-.25,1.73Z"/><path class="cls-14" d="m624.72,225.69l.21-1.02h1.02l-.22,1.02h-1.02Z"/><path class="cls-14" d="m627.68,223.3c0-.62.09-1.25.28-1.88.18-.64.39-1.15.62-1.53.23-.38.46-.68.7-.9.24-.22.48-.38.71-.48.23-.1.49-.15.78-.15.56,0,1.02.21,1.4.62.37.42.56,1.01.56,1.8s-.13,1.6-.39,2.39c-.31.94-.73,1.64-1.27,2.11-.42.36-.89.53-1.43.53s-1.01-.21-1.39-.64c-.38-.43-.56-1.05-.56-1.87Zm.87.23c0,.45.07.8.22,1.05.2.35.5.52.9.52.35,0,.67-.16.95-.47.41-.44.72-1.1.93-1.95.21-.86.31-1.56.31-2.1s-.1-.9-.3-1.14-.47-.35-.79-.35c-.24,0-.46.06-.67.18s-.41.33-.59.63c-.27.42-.5,1.05-.7,1.89-.17.72-.25,1.29-.25,1.73Z"/><path class="cls-14" d="m633.36,223.3c0-.62.09-1.25.28-1.88.18-.64.39-1.15.62-1.53.23-.38.46-.68.7-.9.24-.22.48-.38.71-.48.23-.1.49-.15.78-.15.56,0,1.02.21,1.4.62.37.42.56,1.01.56,1.8s-.13,1.6-.39,2.39c-.31.94-.73,1.64-1.27,2.11-.42.36-.89.53-1.43.53s-1.01-.21-1.39-.64c-.38-.43-.56-1.05-.56-1.87Zm.87.23c0,.45.07.8.22,1.05.2.35.5.52.9.52.35,0,.67-.16.95-.47.41-.44.72-1.1.93-1.95.21-.86.31-1.56.31-2.1s-.1-.9-.3-1.14-.47-.35-.79-.35c-.24,0-.46.06-.67.18s-.41.33-.59.63c-.27.42-.5,1.05-.7,1.89-.17.72-.25,1.29-.25,1.73Z"/><path class="cls-14" d="m639.03,223.3c0-.62.09-1.25.28-1.88.18-.64.39-1.15.62-1.53.23-.38.46-.68.7-.9.24-.22.48-.38.71-.48.23-.1.49-.15.78-.15.56,0,1.02.21,1.4.62.37.42.56,1.01.56,1.8s-.13,1.6-.39,2.39c-.31.94-.73,1.64-1.27,2.11-.42.36-.89.53-1.43.53s-1.01-.21-1.39-.64c-.38-.43-.56-1.05-.56-1.87Zm.87.23c0,.45.07.8.22,1.05.2.35.5.52.9.52.35,0,.67-.16.95-.47.41-.44.72-1.1.93-1.95.21-.86.31-1.56.31-2.1s-.1-.9-.3-1.14-.47-.35-.79-.35c-.24,0-.46.06-.67.18s-.41.33-.59.63c-.27.42-.5,1.05-.7,1.89-.17.72-.25,1.29-.25,1.73Z"/><path class="cls-14" d="m646.43,225.69l1.16-5.51c-.5.39-1.2.71-2.1.94l.17-.82c.45-.18.89-.41,1.33-.7.44-.29.76-.54.98-.76.13-.13.26-.29.38-.48h.52l-1.53,7.33h-.91Z"/><path class="cls-14" d="m651.67,218.27c.52,1.14.79,2.31.79,3.52,0,.81-.11,1.55-.32,2.25-.21.69-.53,1.38-.96,2.06-.29.45-.75,1.04-1.37,1.75h-.7c.38-.42.79-1,1.23-1.76.44-.75.75-1.49.94-2.22.19-.72.29-1.46.29-2.19,0-1.1-.19-2.23-.57-3.4h.67Z"/><path class="cls-14" d="m654.82,222.3l.23-1.09h-1.74l.11-.52,2.38-2.65h.43l-.57,2.71h.6l-.1.46h-.6l-.23,1.09h-.53Zm.33-1.55l.37-1.78-1.58,1.78h1.21Z"/><path class="cls-14" d="m657.32,223.31l.23-1.08h-1.16l.1-.46h1.16l.44-2.12h-1.16l.1-.46h1.16l.23-1.09h.53l-.23,1.09h1.15l-.1.46h-1.15l-.44,2.12h1.15l-.09.46h-1.15l-.23,1.08h-.53Z"/><path class="cls-14" d="m618.67,151.29v-7.3h2.21l1.32,4.98,1.31-4.98h2.21v7.3h-1.37v-5.75l-1.45,5.75h-1.42l-1.44-5.75v5.75h-1.37Z"/><path class="cls-14" d="m630.24,149.61l1.39.23c-.18.51-.46.9-.85,1.17s-.87.4-1.45.4c-.92,0-1.6-.3-2.04-.9-.35-.48-.52-1.09-.52-1.82,0-.88.23-1.56.69-2.06.46-.5,1.04-.74,1.74-.74.79,0,1.41.26,1.86.78s.67,1.32.65,2.39h-3.51c.01.42.12.74.34.97.22.23.48.35.81.35.22,0,.4-.06.55-.18.15-.12.26-.31.34-.58Zm.08-1.41c0-.41-.11-.71-.31-.92s-.44-.32-.73-.32c-.31,0-.56.11-.76.33s-.3.52-.29.91h2.09Z"/><path class="cls-14" d="m633.89,147.61l-1.27-.23c.14-.51.39-.89.74-1.14.35-.25.87-.37,1.55-.37.62,0,1.09.07,1.39.22.31.15.52.33.64.56s.19.64.19,1.25l-.02,1.63c0,.46.02.81.07,1.03.04.22.13.46.25.71h-1.38c-.04-.09-.08-.23-.13-.41-.02-.08-.04-.14-.05-.16-.24.23-.49.41-.77.52-.27.12-.56.17-.87.17-.54,0-.97-.15-1.29-.44-.31-.3-.47-.67-.47-1.12,0-.3.07-.56.21-.8.14-.23.34-.41.6-.54.26-.12.63-.23,1.11-.33.65-.12,1.11-.24,1.36-.34v-.14c0-.27-.07-.46-.2-.58s-.38-.17-.75-.17c-.25,0-.44.05-.58.15-.14.1-.25.27-.34.51Zm1.87,1.14c-.18.06-.46.13-.85.21-.39.08-.64.16-.76.24-.18.13-.27.29-.27.49s.07.37.22.51.33.21.56.21c.25,0,.49-.08.72-.25.17-.13.28-.28.33-.46.04-.12.05-.35.05-.68v-.28Z"/><path class="cls-14" d="m643.33,151.29h-1.4v-2.7c0-.57-.03-.94-.09-1.11-.06-.17-.16-.3-.29-.39-.13-.09-.3-.14-.49-.14-.24,0-.46.07-.65.2-.19.13-.32.31-.4.53-.07.22-.11.62-.11,1.21v2.39h-1.4v-5.29h1.3v.78c.46-.6,1.04-.9,1.74-.9.31,0,.59.06.85.17.26.11.45.25.58.43s.22.37.27.59c.05.22.08.53.08.94v3.29Z"/><path class="cls-14" d="m610.91,158.24v1.12h-.96v2.13c0,.43,0,.68.03.75s.06.13.12.18c.06.05.14.07.24.07.13,0,.32-.04.56-.13l.12,1.08c-.33.14-.69.21-1.1.21-.25,0-.48-.04-.68-.13-.2-.08-.35-.19-.45-.33s-.16-.32-.2-.54c-.03-.16-.04-.49-.04-.99v-2.3h-.64v-1.12h.64v-1.05l1.4-.82v1.87h.96Z"/><path class="cls-14" d="m613.22,163.52h-1.4v-5.29h1.3v.75c.22-.35.42-.59.6-.7.18-.11.38-.17.6-.17.32,0,.63.09.92.26l-.43,1.22c-.24-.15-.46-.23-.66-.23s-.36.05-.5.16c-.14.11-.24.3-.32.58-.08.28-.12.87-.12,1.77v1.63Z"/><path class="cls-14" d="m618.91,161.84l1.39.23c-.18.51-.46.9-.85,1.17s-.87.4-1.45.4c-.92,0-1.6-.3-2.04-.9-.35-.48-.52-1.09-.52-1.82,0-.88.23-1.56.69-2.06.46-.5,1.04-.74,1.74-.74.79,0,1.41.26,1.86.78s.67,1.32.65,2.39h-3.51c.01.42.12.74.34.97.22.23.48.35.81.35.22,0,.4-.06.55-.18.15-.12.26-.31.34-.58Zm.08-1.41c0-.41-.11-.71-.31-.92s-.44-.32-.73-.32c-.31,0-.56.11-.76.33s-.3.52-.29.91h2.09Z"/><path class="cls-14" d="m622.56,159.85l-1.27-.23c.14-.51.39-.89.74-1.14.35-.25.87-.37,1.55-.37.62,0,1.09.07,1.39.22.31.15.52.33.64.56s.19.64.19,1.25l-.02,1.63c0,.46.02.81.07,1.03.04.22.13.46.25.71h-1.38c-.04-.09-.08-.23-.13-.41-.02-.08-.04-.14-.05-.16-.24.23-.49.41-.77.52-.27.12-.56.17-.87.17-.54,0-.97-.15-1.29-.44-.31-.3-.47-.67-.47-1.12,0-.3.07-.56.21-.8.14-.23.34-.41.6-.54.26-.12.63-.23,1.11-.33.65-.12,1.11-.24,1.36-.34v-.14c0-.27-.07-.46-.2-.58s-.38-.17-.75-.17c-.25,0-.44.05-.58.15-.14.1-.25.27-.34.51Zm1.87,1.14c-.18.06-.46.13-.85.21-.39.08-.64.16-.76.24-.18.13-.27.29-.27.49s.07.37.22.51.33.21.56.21c.25,0,.49-.08.72-.25.17-.13.28-.28.33-.46.04-.12.05-.35.05-.68v-.28Z"/><path class="cls-14" d="m629.61,158.24v1.12h-.96v2.13c0,.43,0,.68.03.75s.06.13.12.18c.06.05.14.07.24.07.13,0,.32-.04.56-.13l.12,1.08c-.33.14-.69.21-1.1.21-.25,0-.48-.04-.68-.13-.2-.08-.35-.19-.45-.33s-.16-.32-.2-.54c-.03-.16-.04-.49-.04-.99v-2.3h-.64v-1.12h.64v-1.05l1.4-.82v1.87h.96Z"/><path class="cls-14" d="m630.48,158.24h1.29v.72c.46-.56,1.01-.84,1.65-.84.34,0,.63.07.88.21.25.14.45.35.61.63.23-.28.48-.49.75-.63.27-.14.56-.21.86-.21.39,0,.72.08.99.24.27.16.47.39.6.7.1.23.14.59.14,1.09v3.38h-1.4v-3.02c0-.52-.05-.86-.14-1.02-.13-.2-.33-.3-.6-.3-.2,0-.38.06-.55.18-.17.12-.3.29-.37.53-.08.23-.11.59-.11,1.09v2.54h-1.4v-2.9c0-.51-.02-.85-.07-1s-.13-.26-.23-.33c-.1-.07-.25-.11-.43-.11-.22,0-.41.06-.58.17-.17.12-.3.28-.37.5-.07.22-.11.58-.11,1.09v2.57h-1.4v-5.29Z"/><path class="cls-14" d="m642.71,161.84l1.39.23c-.18.51-.46.9-.85,1.17s-.87.4-1.45.4c-.92,0-1.6-.3-2.04-.9-.35-.48-.52-1.09-.52-1.82,0-.88.23-1.56.69-2.06.46-.5,1.04-.74,1.74-.74.79,0,1.41.26,1.86.78s.67,1.32.65,2.39h-3.51c.01.42.12.74.34.97.22.23.48.35.81.35.22,0,.4-.06.55-.18.15-.12.26-.31.34-.58Zm.08-1.41c0-.41-.11-.71-.31-.92s-.44-.32-.73-.32c-.31,0-.56.11-.76.33s-.3.52-.29.91h2.09Z"/><path class="cls-14" d="m650.13,163.52h-1.4v-2.7c0-.57-.03-.94-.09-1.11-.06-.17-.16-.3-.29-.39-.13-.09-.3-.14-.49-.14-.24,0-.46.07-.65.2-.19.13-.32.31-.4.53-.07.22-.11.62-.11,1.21v2.39h-1.4v-5.29h1.3v.78c.46-.6,1.04-.9,1.74-.9.31,0,.59.06.85.17.26.11.45.25.58.43s.22.37.27.59c.05.22.08.53.08.94v3.29Z"/><path class="cls-14" d="m653.97,158.24v1.12h-.96v2.13c0,.43,0,.68.03.75s.06.13.12.18c.06.05.14.07.24.07.13,0,.32-.04.56-.13l.12,1.08c-.33.14-.69.21-1.1.21-.25,0-.48-.04-.68-.13-.2-.08-.35-.19-.45-.33s-.16-.32-.2-.54c-.03-.16-.04-.49-.04-.99v-2.3h-.64v-1.12h.64v-1.05l1.4-.82v1.87h.96Z"/><path class="cls-14" d="m612.2,175.76h-1.3v-.78c-.22.3-.47.53-.76.67-.29.15-.59.22-.89.22-.61,0-1.13-.24-1.56-.73-.43-.49-.65-1.17-.65-2.05s.21-1.58.63-2.04c.42-.47.95-.7,1.6-.7.59,0,1.1.25,1.53.74v-2.63h1.4v7.3Zm-3.73-2.76c0,.56.08.97.23,1.22.23.37.54.55.95.55.32,0,.6-.14.82-.41.23-.27.34-.68.34-1.23,0-.61-.11-1.04-.33-1.31-.22-.27-.5-.4-.84-.4s-.61.13-.83.4c-.22.26-.34.66-.34,1.18Z"/><path class="cls-14" d="m613.57,169.76v-1.29h1.4v1.29h-1.4Zm0,6v-5.29h1.4v5.29h-1.4Z"/><path class="cls-14" d="m615.79,170.47h.78v-.4c0-.45.05-.78.14-1s.27-.4.52-.54.57-.21.96-.21.79.06,1.17.18l-.19.98c-.22-.05-.44-.08-.64-.08s-.35.05-.44.14-.13.28-.13.54v.37h1.05v1.1h-1.05v4.19h-1.4v-4.19h-.78v-1.1Z"/><path class="cls-14" d="m619.19,170.47h.78v-.4c0-.45.05-.78.14-1s.27-.4.52-.54.57-.21.96-.21.79.06,1.17.18l-.19.98c-.22-.05-.44-.08-.64-.08s-.35.05-.44.14-.13.28-.13.54v.37h1.05v1.1h-1.05v4.19h-1.4v-4.19h-.78v-1.1Z"/><path class="cls-14" d="m626.26,174.08l1.39.23c-.18.51-.46.9-.85,1.17s-.87.4-1.45.4c-.92,0-1.6-.3-2.04-.9-.35-.48-.52-1.09-.52-1.82,0-.88.23-1.56.69-2.06.46-.5,1.04-.74,1.74-.74.79,0,1.41.26,1.86.78s.67,1.32.65,2.39h-3.51c.01.42.12.74.34.97.22.23.48.35.81.35.22,0,.4-.06.55-.18.15-.12.26-.31.34-.58Zm.08-1.41c0-.41-.11-.71-.31-.92s-.44-.32-.73-.32c-.31,0-.56.11-.76.33s-.3.52-.29.91h2.09Z"/><path class="cls-14" d="m630.21,175.76h-1.4v-5.29h1.3v.75c.22-.35.42-.59.6-.7.18-.11.38-.17.6-.17.32,0,.63.09.92.26l-.43,1.22c-.24-.15-.46-.23-.66-.23s-.36.05-.5.16c-.14.11-.24.3-.32.58-.08.28-.12.87-.12,1.77v1.63Z"/><path class="cls-14" d="m635.9,174.08l1.39.23c-.18.51-.46.9-.85,1.17s-.87.4-1.45.4c-.92,0-1.6-.3-2.04-.9-.35-.48-.52-1.09-.52-1.82,0-.88.23-1.56.69-2.06.46-.5,1.04-.74,1.74-.74.79,0,1.41.26,1.86.78s.67,1.32.65,2.39h-3.51c.01.42.12.74.34.97.22.23.48.35.81.35.22,0,.4-.06.55-.18.15-.12.26-.31.34-.58Zm.08-1.41c0-.41-.11-.71-.31-.92s-.44-.32-.73-.32c-.31,0-.56.11-.76.33s-.3.52-.29.91h2.09Z"/><path class="cls-14" d="m643.32,175.76h-1.4v-2.7c0-.57-.03-.94-.09-1.11-.06-.17-.16-.3-.29-.39-.13-.09-.3-.14-.49-.14-.24,0-.46.07-.65.2-.19.13-.32.31-.4.53-.07.22-.11.62-.11,1.21v2.39h-1.4v-5.29h1.3v.78c.46-.6,1.04-.9,1.74-.9.31,0,.59.06.85.17.26.11.45.25.58.43s.22.37.27.59c.05.22.08.53.08.94v3.29Z"/><path class="cls-14" d="m649.35,172.04l-1.38.25c-.05-.28-.15-.48-.32-.62-.16-.14-.38-.21-.64-.21-.35,0-.63.12-.83.36-.21.24-.31.64-.31,1.21,0,.63.1,1.07.32,1.33s.49.39.85.39c.27,0,.48-.08.65-.23.17-.15.29-.41.36-.78l1.37.23c-.14.63-.42,1.11-.82,1.43-.4.32-.95.48-1.63.48-.77,0-1.39-.24-1.85-.73-.46-.49-.69-1.16-.69-2.03s.23-1.55.69-2.04,1.09-.73,1.87-.73c.64,0,1.16.14,1.54.42.38.28.65.7.82,1.27Z"/><path class="cls-14" d="m653.47,174.08l1.39.23c-.18.51-.46.9-.85,1.17s-.87.4-1.45.4c-.92,0-1.6-.3-2.04-.9-.35-.48-.52-1.09-.52-1.82,0-.88.23-1.56.69-2.06.46-.5,1.04-.74,1.74-.74.79,0,1.41.26,1.86.78s.67,1.32.65,2.39h-3.51c.01.42.12.74.34.97.22.23.48.35.81.35.22,0,.4-.06.55-.18.15-.12.26-.31.34-.58Zm.08-1.41c0-.41-.11-.71-.31-.92s-.44-.32-.73-.32c-.31,0-.56.11-.76.33s-.3.52-.29.91h2.09Z"/><line class="cls-3" x1="97.76" y1="324.93" x2="639.44" y2="324.93"/><text class="cls-10" transform="translate(58 325.05)"><tspan x="0" y="0">-100</tspan></text><text class="cls-10" transform="translate(65.6 279.67)"><tspan x="0" y="0">-50</tspan></text><text class="cls-10" transform="translate(75.72 226.17)"><tspan x="0" y="0">0</tspan></text><text class="cls-10" transform="translate(70.16 179.77)"><tspan x="0" y="0">50</tspan></text><text class="cls-10" transform="translate(62.55 128.29)"><tspan x="0" y="0">100</tspan></text><text class="cls-10" transform="translate(62.55 76.82)"><tspan x="0" y="0">150</tspan></text><text class="cls-10" transform="translate(62.55 31.43)"><tspan x="0" y="0">200</tspan></text><text class="cls-11" transform="translate(38.24 329.26) rotate(-90)"><tspan x="0" y="0">LS mean FEV</tspan></text><text class="cls-11" transform="translate(43.32 231.87) rotate(-90) scale(.58)"><tspan x="0" y="0">1</tspan></text><text class="cls-11" transform="translate(38.24 226.93) rotate(-90)"><tspan x="0" y="0" xml:space="preserve">  change from baseline (mL)</tspan></text><text class="cls-17" transform="translate(311.43 287.44)"><tspan class="cls-15" x="0" y="0">Placebo </tspan><tspan class="cls-9" x="69.09" y="0">(n=417)</tspan><tspan class="cls-15" x="127.47" y="0"> </tspan></text><g class="cls-37"><g class="cls-12"><line class="cls-4" x1="98.98" y1="24.31" x2="639.44" y2="24.31"/></g></g><g class="cls-37"><g class="cls-22"><line class="cls-4" x1="98.98" y1="74.35" x2="639.44" y2="74.35"/></g></g><g class="cls-37"><g class="cls-25"><line class="cls-4" x1="98.98" y1="124.38" x2="639.44" y2="124.38"/></g></g><g class="cls-37"><g class="cls-24"><line class="cls-4" x1="98.98" y1="174.41" x2="639.44" y2="174.41"/></g></g><g class="cls-37"><g class="cls-23"><line class="cls-4" x1="98.98" y1="274.47" x2="639.44" y2="274.47"/></g></g><g class="cls-29"><path class="cls-19" d="m112.59,127.98c0,3.55-2.88,6.43-6.43,6.43s-6.43-2.88-6.43-6.43,2.88-6.43,6.43-6.43,6.43,2.88,6.43,6.43"/></g><g class="cls-28"><path class="cls-19" d="m216.81,114.89c0,3.55-2.88,6.43-6.43,6.43s-6.43-2.88-6.43-6.43,2.88-6.43,6.43-6.43,6.43,2.88,6.43,6.43"/></g><g class="cls-26"><path class="cls-19" d="m415.3,116.99c0,3.55-2.88,6.43-6.43,6.43s-6.43-2.88-6.43-6.43,2.88-6.43,6.43-6.43,6.43,2.88,6.43,6.43"/></g><g class="cls-27"><path class="cls-19" d="m601.84,127.43c0,3.55-2.88,6.43-6.43,6.43s-6.43-2.88-6.43-6.43,2.88-6.43,6.43-6.43,6.43,2.88,6.43,6.43"/></g><g class="cls-30"><path class="cls-19" d="m617.58,104.15c0,3.55-2.88,6.43-6.43,6.43s-6.43-2.88-6.43-6.43,2.88-6.43,6.43-6.43,6.43,2.88,6.43,6.43"/></g><g class="cls-34"><polygon class="cls-16" points="593.94 255.15 587.28 266.68 600.59 266.68 593.94 255.15"/></g><g class="cls-35"><polygon class="cls-16" points="611.15 250.02 604.49 261.54 617.8 261.54 611.15 250.02"/></g><g class="cls-33"><polygon class="cls-16" points="408.87 250.58 402.21 262.11 415.52 262.11 408.87 250.58"/></g><g class="cls-32"><polygon class="cls-16" points="210.15 250.58 203.49 262.11 216.8 262.11 210.15 250.58"/></g><g class="cls-31"><polygon class="cls-16" points="107.28 238.73 100.62 250.25 113.93 250.25 107.28 238.73"/></g></g></svg>