<?xml version="1.0" encoding="UTF-8"?><svg id="Layer_2" xmlns="http://www.w3.org/2000/svg" xmlns:xlink="http://www.w3.org/1999/xlink" viewBox="0 0 1739.69 793.97"><defs><style>.cls-1{fill:none;}.cls-2{clip-path:url(#clippath);}.cls-3{clip-path:url(#clippath-1);}.cls-4{clip-path:url(#clippath-2);}.cls-5{fill:url(#radial-gradient-2);}.cls-6{opacity:.35;}.cls-7{fill:url(#radial-gradient);}</style><clipPath id="clippath"><rect class="cls-1" width="1739.69" height="793.97" rx="63.38" ry="63.38"/></clipPath><clipPath id="clippath-1"><path class="cls-1" d="m1614.87,85.44c-2.18.6-3.61,2.57-3.61,4.73,0,.43.06.87.18,1.3l4.5,16.41c.72,2.61,3.42,4.15,6.03,3.43,2.61-.72,4.15-3.42,3.43-6.03l-4.5-16.41c-.6-2.18-2.58-3.61-4.73-3.61-.43,0-.87.06-1.3.18m-49.94,3.32l-4.42,16.91c-.11.42-.16.83-.16,1.24,0,2.18,1.46,4.17,3.67,4.75,2.62.69,5.3-.89,5.99-3.51l4.42-16.91c.69-2.62-.88-5.3-3.51-5.99-.42-.11-.83-.16-1.24-.16-2.18,0-4.17,1.46-4.74,3.67m-39.82-24.35l-11.5,11.64c-.94.96-1.42,2.2-1.42,3.45s.49,2.53,1.46,3.49c1.93,1.91,5.04,1.89,6.94-.04l11.5-11.64c1.91-1.93,1.89-5.04-.04-6.94-.96-.94-2.2-1.42-3.45-1.42s-2.53.49-3.49,1.46m128.27-.76c-.94.96-1.42,2.2-1.42,3.45s.49,2.53,1.46,3.49l11.63,11.49c1.93,1.9,5.04,1.89,6.94-.04,1.9-1.93,1.89-5.04-.04-6.94l-11.63-11.49c-.96-.94-2.2-1.42-3.45-1.42s-2.53.49-3.49,1.46m-65.94.91v50.89c0,2.71,2.2,4.91,4.91,4.91s4.91-2.2,4.91-4.91v-50.89c0-2.71-2.2-4.91-4.91-4.91s-4.91,2.2-4.91,4.91m-29.95-10.65l-25.45,44.08c-.45.77-.66,1.62-.66,2.45,0,1.7.88,3.35,2.46,4.25,2.35,1.36,5.35.55,6.7-1.8l25.45-44.07c1.36-2.35.55-5.35-1.79-6.7-.77-.45-1.62-.66-2.45-.66-1.7,0-3.35.88-4.25,2.46m63.01-1.8c-1.58.91-2.46,2.56-2.46,4.26,0,.83.21,1.68.66,2.45l25.45,44.07c1.35,2.35,4.36,3.15,6.7,1.8,2.35-1.35,3.15-4.36,1.8-6.7l-25.45-44.08c-.91-1.57-2.56-2.46-4.26-2.46-.83,0-1.68.21-2.45.66m-83.62-22.41l-44.08,25.45c-1.57.91-2.45,2.56-2.45,4.26,0,.83.21,1.68.66,2.45,1.35,2.35,4.36,3.15,6.7,1.8l44.07-25.45c2.35-1.35,3.15-4.36,1.8-6.7-.91-1.58-2.56-2.46-4.25-2.46-.83,0-1.68.21-2.45.66m104.23,1.8c-.45.77-.66,1.62-.66,2.45,0,1.7.88,3.35,2.45,4.26l44.07,25.45c2.35,1.36,5.35.55,6.7-1.8,1.35-2.35.55-5.35-1.8-6.7l-44.07-25.45c-.77-.45-1.62-.66-2.45-.66-1.7,0-3.34.88-4.25,2.46m-138.23-8.69l-15.07,4.14c-2.18.6-3.61,2.57-3.61,4.73,0,.43.06.87.18,1.3.72,2.61,3.42,4.15,6.03,3.43l15.08-4.14c2.61-.72,4.15-3.42,3.43-6.03-.6-2.18-2.57-3.61-4.73-3.61-.43,0-.87.06-1.3.18m173.18,2.43c-.11.42-.16.83-.16,1.24,0,2.18,1.46,4.17,3.67,4.75l15.11,3.95c2.62.69,5.31-.88,5.99-3.51.69-2.62-.88-5.3-3.51-5.99l-15.11-3.95c-.42-.11-.83-.16-1.25-.16-2.18,0-4.17,1.46-4.74,3.67M1480.23-1.56c-2.71,0-4.91,2.2-4.91,4.91s2.2,4.91,4.91,4.91h50.89c2.71,0,4.91-2.2,4.91-4.91s-2.2-4.91-4.91-4.91h-50.89Zm173.33,0c-2.71,0-4.91,2.2-4.91,4.91s2.2,4.91,4.91,4.91h50.89c2.71,0,4.91-2.2,4.91-4.91s-2.2-4.91-4.91-4.91h-50.89Zm-169.54-23.42c-.11.41-.16.83-.16,1.24,0,2.18,1.46,4.17,3.67,4.75l15.11,3.95c2.62.69,5.3-.88,5.99-3.51.69-2.62-.88-5.3-3.51-5.99l-15.11-3.95c-.42-.11-.83-.16-1.24-.16-2.18,0-4.17,1.46-4.74,3.67m210.27-4.74l-15.07,4.14c-2.18.6-3.61,2.57-3.61,4.73,0,.43.06.87.18,1.3.72,2.61,3.42,4.15,6.03,3.43l15.07-4.14c2.61-.72,4.15-3.42,3.44-6.03-.6-2.18-2.58-3.61-4.73-3.61-.43,0-.87.06-1.3.18m-203.28-25.44c-.45.77-.66,1.62-.66,2.45,0,1.7.88,3.35,2.45,4.26l44.08,25.45c2.35,1.35,5.35.55,6.7-1.8,1.35-2.35.55-5.35-1.8-6.7l-44.07-25.45c-.77-.45-1.62-.66-2.45-.66-1.7,0-3.35.88-4.26,2.46m195.97-1.8l-44.07,25.45c-1.57.91-2.45,2.56-2.45,4.25,0,.83.21,1.68.66,2.45,1.35,2.35,4.36,3.15,6.7,1.8l44.07-25.45c2.35-1.36,3.15-4.36,1.8-6.71-.91-1.57-2.56-2.45-4.25-2.46-.83,0-1.68.21-2.45.66m-174.28-18.39c-.94.96-1.41,2.2-1.41,3.45s.49,2.53,1.46,3.49l11.63,11.49c1.93,1.9,5.03,1.89,6.94-.04,1.9-1.93,1.89-5.04-.04-6.94l-11.63-11.49c-.96-.95-2.2-1.42-3.45-1.42s-2.53.49-3.49,1.46m151.4-.91l-11.5,11.64c-.95.96-1.42,2.2-1.42,3.45s.49,2.53,1.46,3.49c1.93,1.9,5.03,1.89,6.94-.04l11.5-11.64c1.91-1.93,1.89-5.04-.04-6.94-.96-.94-2.2-1.42-3.45-1.42s-2.53.49-3.49,1.46m-130.26-21.73c-1.58.91-2.46,2.56-2.46,4.25,0,.83.21,1.68.66,2.45l25.45,44.07c1.36,2.35,4.36,3.15,6.71,1.8,2.35-1.35,3.15-4.36,1.79-6.7l-25.45-44.08c-.91-1.57-2.56-2.45-4.25-2.45-.83,0-1.68.21-2.45.66m110.31,1.79l-25.45,44.08c-.45.77-.66,1.62-.66,2.45,0,1.7.88,3.35,2.46,4.25,2.35,1.36,5.35.55,6.71-1.8l25.45-44.07c1.35-2.35.55-5.35-1.8-6.7-.77-.45-1.62-.66-2.45-.66-1.69,0-3.34.88-4.25,2.45m-81.43-8.43c-2.18.6-3.61,2.57-3.61,4.73,0,.43.06.87.17,1.3l4.55,16.58c.72,2.61,3.42,4.15,6.03,3.43,2.61-.72,4.15-3.42,3.43-6.03l-4.55-16.58c-.6-2.18-2.57-3.61-4.73-3.61-.43,0-.87.06-1.3.18m51.97,3.16l-4.22,16.12c-.11.42-.16.83-.16,1.24,0,2.18,1.46,4.17,3.67,4.74,2.62.69,5.3-.88,5.99-3.51l4.22-16.12c.69-2.62-.88-5.3-3.51-5.99-.42-.11-.83-.16-1.24-.16-2.18,0-4.17,1.46-4.74,3.67m-27.25-7.29v50.89c0,2.71,2.2,4.91,4.91,4.91s4.91-2.2,4.91-4.91v-50.89c0-2.71-2.2-4.91-4.91-4.91s-4.91,2.2-4.91,4.91"/></clipPath><radialGradient id="radial-gradient" cx="2024.52" cy="2868.82" fx="2024.52" fy="2868.82" r="1" gradientTransform="translate(-391747.87 -277567.98) rotate(90) scale(137.11 -137.11)" gradientUnits="userSpaceOnUse"><stop offset="0" stop-color="#c1a0cb"/><stop offset=".48" stop-color="#c1a0cb"/><stop offset=".91" stop-color="#0773bb"/><stop offset="1" stop-color="#0773bb"/></radialGradient><clipPath id="clippath-2"><path class="cls-1" d="m78.71,459.1c-2.18.6-3.61,2.57-3.61,4.73,0,.43.06.87.18,1.3l4.5,16.41c.72,2.61,3.42,4.15,6.03,3.43,2.61-.72,4.15-3.42,3.43-6.03l-4.5-16.41c-.6-2.18-2.58-3.61-4.73-3.61-.43,0-.87.06-1.3.18m-49.94,3.32l-4.42,16.91c-.11.42-.16.83-.16,1.24,0,2.18,1.46,4.17,3.67,4.75,2.62.69,5.3-.89,5.99-3.51l4.42-16.91c.69-2.62-.88-5.3-3.51-5.99-.42-.11-.83-.16-1.24-.16-2.18,0-4.17,1.46-4.74,3.67m-39.82-24.35l-11.5,11.64c-.94.96-1.42,2.2-1.42,3.45s.49,2.53,1.46,3.49c1.93,1.91,5.04,1.89,6.94-.04l11.5-11.64c1.91-1.93,1.89-5.04-.04-6.94-.96-.94-2.2-1.42-3.45-1.42s-2.53.49-3.49,1.46m128.27-.76c-.94.96-1.42,2.2-1.42,3.45s.49,2.53,1.46,3.49l11.63,11.49c1.93,1.9,5.04,1.89,6.94-.04,1.9-1.93,1.89-5.04-.04-6.94l-11.63-11.49c-.96-.94-2.2-1.42-3.45-1.42s-2.53.49-3.49,1.46m-65.94.91v50.89c0,2.71,2.2,4.91,4.91,4.91s4.91-2.2,4.91-4.91v-50.89c0-2.71-2.2-4.91-4.91-4.91s-4.91,2.2-4.91,4.91m-29.95-10.65l-25.45,44.08c-.45.77-.66,1.62-.66,2.45,0,1.7.88,3.35,2.46,4.25,2.35,1.36,5.35.55,6.7-1.8l25.45-44.07c1.36-2.35.55-5.35-1.79-6.7-.77-.45-1.62-.66-2.45-.66-1.7,0-3.35.88-4.25,2.46m63.01-1.8c-1.58.91-2.46,2.56-2.46,4.26,0,.83.21,1.68.66,2.45l25.45,44.07c1.35,2.35,4.36,3.15,6.7,1.8,2.35-1.35,3.15-4.36,1.8-6.7l-25.45-44.08c-.91-1.57-2.56-2.46-4.26-2.46-.83,0-1.68.21-2.45.66M.71,403.36l-44.08,25.45c-1.57.91-2.45,2.56-2.45,4.26,0,.83.21,1.68.66,2.45,1.35,2.35,4.36,3.15,6.7,1.8l44.07-25.45c2.35-1.35,3.15-4.36,1.8-6.7-.91-1.58-2.56-2.46-4.25-2.46-.83,0-1.68.21-2.45.66m104.23,1.8c-.45.77-.66,1.62-.66,2.45,0,1.7.88,3.35,2.45,4.26l44.07,25.45c2.35,1.36,5.35.55,6.7-1.8,1.35-2.35.55-5.35-1.8-6.7l-44.07-25.45c-.77-.45-1.62-.66-2.45-.66-1.7,0-3.34.88-4.25,2.46m-138.23-8.69l-15.07,4.14c-2.18.6-3.61,2.57-3.61,4.73,0,.43.06.87.18,1.3.72,2.61,3.42,4.15,6.03,3.43l15.08-4.14c2.61-.72,4.15-3.42,3.43-6.03-.6-2.18-2.57-3.61-4.73-3.61-.43,0-.87.06-1.3.18m173.18,2.43c-.11.42-.16.83-.16,1.24,0,2.18,1.46,4.17,3.67,4.75l15.11,3.95c2.62.69,5.31-.88,5.99-3.51.69-2.62-.88-5.3-3.51-5.99l-15.11-3.95c-.42-.11-.83-.16-1.25-.16-2.18,0-4.17,1.46-4.74,3.67m-195.82-26.8c-2.71,0-4.91,2.2-4.91,4.91s2.2,4.91,4.91,4.91H-5.04c2.71,0,4.91-2.2,4.91-4.91s-2.2-4.91-4.91-4.91h-50.89Zm173.33,0c-2.71,0-4.91,2.2-4.91,4.91s2.2,4.91,4.91,4.91h50.89c2.71,0,4.91-2.2,4.91-4.91s-2.2-4.91-4.91-4.91h-50.89Zm-169.54-23.42c-.11.41-.16.83-.16,1.24,0,2.18,1.46,4.17,3.67,4.75l15.11,3.95c2.62.69,5.3-.88,5.99-3.51.69-2.62-.88-5.3-3.51-5.99l-15.11-3.95c-.42-.11-.83-.16-1.24-.16-2.18,0-4.17,1.46-4.74,3.67m210.27-4.74l-15.07,4.14c-2.18.6-3.61,2.57-3.61,4.73,0,.43.06.87.18,1.3.72,2.61,3.42,4.15,6.03,3.43l15.07-4.14c2.61-.72,4.15-3.42,3.44-6.03-.6-2.18-2.58-3.61-4.73-3.61-.43,0-.87.06-1.3.18m-203.28-25.44c-.45.77-.66,1.62-.66,2.45,0,1.7.88,3.35,2.45,4.26L.71,350.65c2.35,1.35,5.35.55,6.7-1.8,1.35-2.35.55-5.35-1.8-6.7l-44.07-25.45c-.77-.45-1.62-.66-2.45-.66-1.7,0-3.35.88-4.26,2.46m195.97-1.8l-44.07,25.45c-1.57.91-2.45,2.56-2.45,4.25,0,.83.21,1.68.66,2.45,1.35,2.35,4.36,3.15,6.7,1.8l44.07-25.45c2.35-1.36,3.15-4.36,1.8-6.71-.91-1.57-2.56-2.45-4.25-2.46-.83,0-1.68.21-2.45.66m-174.28-18.39c-.94.96-1.41,2.2-1.41,3.45s.49,2.53,1.46,3.49l11.63,11.49c1.93,1.9,5.03,1.89,6.94-.04,1.9-1.93,1.89-5.04-.04-6.94l-11.63-11.49c-.96-.95-2.2-1.42-3.45-1.42s-2.53.49-3.49,1.46m151.4-.91l-11.5,11.64c-.95.96-1.42,2.2-1.42,3.45s.49,2.53,1.46,3.49c1.93,1.9,5.03,1.89,6.94-.04l11.5-11.64c1.91-1.93,1.89-5.04-.04-6.94-.96-.94-2.2-1.42-3.45-1.42s-2.53.49-3.49,1.46M-2.33,275.67c-1.58.91-2.46,2.56-2.46,4.25,0,.83.21,1.68.66,2.45l25.45,44.07c1.36,2.35,4.36,3.15,6.71,1.8,2.35-1.35,3.15-4.36,1.79-6.7l-25.45-44.08c-.91-1.57-2.56-2.45-4.25-2.45-.83,0-1.68.21-2.45.66m110.31,1.79l-25.45,44.08c-.45.77-.66,1.62-.66,2.45,0,1.7.88,3.35,2.46,4.25,2.35,1.36,5.35.55,6.71-1.8l25.45-44.07c1.35-2.35.55-5.35-1.8-6.7-.77-.45-1.62-.66-2.45-.66-1.69,0-3.34.88-4.25,2.45m-81.43-8.43c-2.18.6-3.61,2.57-3.61,4.73,0,.43.06.87.17,1.3l4.55,16.58c.72,2.61,3.42,4.15,6.03,3.43,2.61-.72,4.15-3.42,3.43-6.03l-4.55-16.58c-.6-2.18-2.57-3.61-4.73-3.61-.43,0-.87.06-1.3.18m51.97,3.16l-4.22,16.12c-.11.42-.16.83-.16,1.24,0,2.18,1.46,4.17,3.67,4.74,2.62.69,5.3-.88,5.99-3.51l4.22-16.12c.69-2.62-.88-5.3-3.51-5.99-.42-.11-.83-.16-1.24-.16-2.18,0-4.17,1.46-4.74,3.67m-27.25-7.29v50.89c0,2.71,2.2,4.91,4.91,4.91s4.91-2.2,4.91-4.91v-50.89c0-2.71-2.2-4.91-4.91-4.91s-4.91,2.2-4.91,4.91"/></clipPath><radialGradient id="radial-gradient-2" cx="2027.24" cy="2857.62" fx="2027.24" fy="2857.62" r="1" xlink:href="#radial-gradient"/></defs><g id="Layer_1-2"><g class="cls-6"><g class="cls-2"><g class="cls-3"><rect class="cls-7" x="1475.32" y="-113.67" width="234.03" height="234.03"/></g><g class="cls-4"><rect class="cls-5" x="-60.84" y="259.99" width="234.03" height="234.03"/></g></g></g></g></svg>