<?xml version="1.0" encoding="UTF-8"?><svg id="Layer_2" xmlns="http://www.w3.org/2000/svg" viewBox="0 0 40.53 35.63"><defs><style>.cls-1{fill:#fff;}</style></defs><g id="Layer_1-2"><path class="cls-1" d="m1.28,16.92c.33.46.96.56,1.42.23L19.67,4.99c.36-.25.83-.25,1.19,0l16.97,12.16c.46.33,1.09.22,1.42-.23l1.09-1.52c.33-.46.22-1.09-.23-1.42l-5.27-3.77c-.27-.19-.42-.5-.42-.83V3.48c0-.56-.45-1.02-1.01-1.02h-1.87c-.56,0-1.02.45-1.02,1.02v1.65c0,.83-.94,1.31-1.61.82L20.85.19c-.36-.25-.83-.25-1.18,0L.42,13.98c-.46.33-.56.96-.23,1.42l1.09,1.52Z"/><path class="cls-1" d="m35.39,33.8v-15.84c0-.61-.3-1.18-.8-1.52l-13.28-9.09c-.62-.43-1.45-.43-2.08,0l-13.28,9.08c-.5.35-.8.91-.8,1.52v15.84c0,1.02.83,1.84,1.84,1.84h7.54c1.01,0,1.84-.82,1.84-1.84v-9c0-1.02.82-1.84,1.84-1.84h4.13c1.01,0,1.84.82,1.84,1.84v9c0,1.02.82,1.84,1.84,1.84h7.54c1.01,0,1.84-.82,1.84-1.84"/></g></svg>