<?xml version="1.0" encoding="UTF-8"?><svg id="Layer_2" xmlns="http://www.w3.org/2000/svg" viewBox="0 0 14.4 42.4"><defs><style>.cls-1{fill:#fff;}</style></defs><g id="Layer_1-2"><path class="cls-1" d="m7.2,0c1.78,0,3.23,1.45,3.23,3.23s-1.44,3.23-3.23,3.23-3.23-1.45-3.23-3.23S5.42,0,7.2,0"/><path class="cls-1" d="m2.12,13.52c-1.14,1.59-1.87,3.43-2.12,5.37,1.77-3.05,3.97-4.46,3.97-.6v21.15c0,3.34,5.03,4.49,8.31.04,1.14-1.59,1.87-3.43,2.12-5.37-1.77,3.05-3.97,4.46-3.97.61V13.56c0-3.34-5.03-4.5-8.31-.04"/></g></svg>