<?xml version="1.0" encoding="UTF-8"?><svg id="Layer_2" xmlns="http://www.w3.org/2000/svg" viewBox="0 0 45.22 31.15"><defs><style>.cls-1{fill:#fff;}</style></defs><g id="Layer_1-2"><path class="cls-1" d="m2.42,4.85c-1.34,0-2.42-1.08-2.42-2.42S1.09,0,2.42,0h40.38c1.34,0,2.42,1.08,2.42,2.42s-1.08,2.42-2.42,2.42H2.42Z"/><path class="cls-1" d="m2.42,18c-1.34,0-2.42-1.08-2.42-2.42s1.09-2.42,2.42-2.42h40.38c1.34,0,2.42,1.09,2.42,2.42s-1.08,2.42-2.42,2.42H2.42Z"/><path class="cls-1" d="m2.42,31.15c-1.34,0-2.42-1.08-2.42-2.42s1.09-2.42,2.42-2.42h40.38c1.34,0,2.42,1.08,2.42,2.42s-1.08,2.42-2.42,2.42H2.42Z"/></g></svg>