<?xml version="1.0" encoding="UTF-8"?><svg id="Layer_2" xmlns="http://www.w3.org/2000/svg" xmlns:xlink="http://www.w3.org/1999/xlink" viewBox="0 0 238.79 150.19"><defs><style>.cls-1,.cls-2{fill:none;}.cls-3{clip-path:url(#clippath);}.cls-4{fill:#9362a6;}.cls-5{fill:#9461a9;}.cls-6{fill:#0773bb;}.cls-7{opacity:.2;}.cls-2{stroke:#0d73bb;stroke-miterlimit:10;stroke-width:4.33px;}</style><clipPath id="clippath"><rect class="cls-1" x="0" y="78.82" width="238.79" height="71.36"/></clipPath></defs><g id="Layer_1-2"><g class="cls-7"><g class="cls-3"><path class="cls-6" d="m227.9,150.19H10.89c-6.02,0-10.89-4.88-10.89-10.89v-49.58c0-6.01,4.88-10.89,10.89-10.89h217.01c6.01,0,10.89,4.88,10.89,10.89v49.58c0,6.01-4.88,10.89-10.89,10.89"/></g></g><path class="cls-4" d="m73.29,105.85c0-1.33.2-2.45.6-3.36.3-.67.71-1.27,1.22-1.8s1.08-.92,1.69-1.18c.82-.35,1.76-.52,2.82-.52,1.93,0,3.47.6,4.63,1.8s1.74,2.86,1.74,4.99-.58,3.77-1.72,4.96c-1.15,1.19-2.69,1.79-4.61,1.79s-3.5-.59-4.65-1.78-1.72-2.82-1.72-4.91Zm2.72-.09c0,1.48.34,2.61,1.03,3.37.69.77,1.55,1.15,2.61,1.15s1.92-.38,2.6-1.14c.68-.76,1.01-1.9,1.01-3.42s-.33-2.62-.99-3.36c-.66-.74-1.53-1.11-2.62-1.11s-1.97.37-2.64,1.12c-.67.75-1,1.88-1,3.38Z"/><path class="cls-4" d="m96.67,112.32h-2.51v-4.84c0-1.02-.05-1.69-.16-1.99-.11-.3-.28-.53-.52-.7-.24-.17-.53-.25-.87-.25-.44,0-.83.12-1.17.36-.34.24-.58.55-.71.95-.13.39-.19,1.12-.19,2.18v4.3h-2.51v-9.49h2.33v1.39c.83-1.07,1.87-1.61,3.13-1.61.55,0,1.06.1,1.52.3s.8.45,1.04.76c.23.31.4.66.49,1.05s.14.96.14,1.69v5.9Z"/><path class="cls-4" d="m107.49,105.64l-2.47.45c-.08-.49-.27-.87-.57-1.12-.29-.25-.68-.38-1.15-.38-.63,0-1.12.22-1.5.65-.37.43-.56,1.15-.56,2.17,0,1.13.19,1.92.57,2.39.38.46.89.7,1.52.7.48,0,.87-.14,1.17-.41s.52-.74.64-1.4l2.46.42c-.26,1.13-.75,1.99-1.47,2.56-.73.58-1.7.87-2.92.87-1.39,0-2.5-.44-3.32-1.31-.82-.88-1.24-2.09-1.24-3.64s.41-2.79,1.24-3.66c.83-.87,1.95-1.31,3.36-1.31,1.16,0,2.07.25,2.76.75.68.5,1.17,1.26,1.47,2.27Z"/><path class="cls-4" d="m114.89,109.3l2.5.42c-.32.92-.83,1.62-1.52,2.1s-1.56.72-2.6.72c-1.65,0-2.87-.54-3.66-1.62-.62-.86-.94-1.95-.94-3.27,0-1.57.41-2.8,1.23-3.69.82-.89,1.86-1.34,3.12-1.34,1.41,0,2.53.47,3.34,1.4.82.93,1.21,2.36,1.17,4.28h-6.29c.02.74.22,1.32.61,1.74s.87.62,1.45.62c.39,0,.72-.11.99-.32s.47-.56.61-1.04Zm.14-2.54c-.02-.73-.21-1.28-.56-1.66s-.79-.57-1.3-.57c-.55,0-1,.2-1.36.6s-.53.94-.53,1.63h3.75Z"/><path class="cls-4" d="m119.29,108.83v-2.51h4.93v2.51h-4.93Z"/><path class="cls-4" d="m134.37,112.32h-2.33v-1.39c-.39.54-.85.95-1.37,1.21-.53.27-1.06.4-1.59.4-1.09,0-2.02-.44-2.8-1.32-.78-.88-1.17-2.1-1.17-3.68s.38-2.83,1.13-3.67c.76-.84,1.71-1.26,2.87-1.26,1.06,0,1.98.44,2.75,1.32v-4.72h2.51v13.1Zm-6.7-4.95c0,1.01.14,1.75.42,2.2.4.66.97.98,1.7.98.58,0,1.07-.25,1.47-.74.4-.49.61-1.23.61-2.2,0-1.09-.2-1.88-.59-2.35-.39-.48-.9-.72-1.51-.72s-1.1.24-1.5.71c-.4.47-.6,1.18-.6,2.12Z"/><path class="cls-4" d="m138.72,105.73l-2.28-.41c.26-.92.7-1.6,1.32-2.04s1.55-.66,2.79-.66c1.12,0,1.95.13,2.5.4.55.27.93.6,1.16,1.01s.33,1.16.33,2.25l-.03,2.93c0,.83.04,1.45.12,1.84.08.4.23.82.45,1.27h-2.48c-.06-.17-.15-.41-.24-.74-.04-.15-.07-.25-.09-.29-.43.42-.89.73-1.38.94s-1.01.31-1.56.31c-.98,0-1.75-.27-2.31-.79-.56-.53-.84-1.2-.84-2.01,0-.54.13-1.01.38-1.43s.62-.74,1.08-.97c.46-.22,1.13-.42,2-.58,1.17-.22,1.99-.43,2.44-.62v-.25c0-.48-.12-.83-.36-1.03-.24-.21-.69-.31-1.35-.31-.45,0-.8.09-1.05.26-.25.18-.45.48-.61.92Zm3.36,2.04c-.32.11-.83.24-1.53.38s-1.15.29-1.37.44c-.33.23-.49.53-.49.88s.13.66.39.91c.26.26.6.38,1,.38.45,0,.88-.15,1.3-.45.3-.23.5-.5.6-.83.07-.21.1-.62.1-1.22v-.5Z"/><path class="cls-4" d="m147.02,101.54v-2.32h2.51v2.32h-2.51Zm0,10.78v-9.49h2.51v9.49h-2.51Z"/><path class="cls-4" d="m152.1,112.32v-13.1h2.51v13.1h-2.51Z"/><path class="cls-4" d="m156,102.83h2.67l2.27,6.74,2.22-6.74h2.6l-3.35,9.13-.6,1.65c-.22.55-.43.98-.63,1.27-.2.29-.43.53-.69.71s-.58.32-.96.42c-.38.1-.81.15-1.28.15s-.96-.05-1.42-.15l-.22-1.97c.39.08.75.12,1.06.12.58,0,1.02-.17,1.3-.51.28-.34.5-.78.64-1.31l-3.61-9.52Z"/><path class="cls-4" d="m96.34,134.28h-2.33v-1.39c-.39.54-.85.95-1.37,1.21-.53.27-1.06.4-1.59.4-1.09,0-2.02-.44-2.8-1.32-.78-.88-1.17-2.1-1.17-3.68s.38-2.83,1.13-3.67c.76-.84,1.71-1.26,2.87-1.26,1.06,0,1.98.44,2.75,1.32v-4.72h2.51v13.1Zm-6.7-4.95c0,1.01.14,1.75.42,2.2.4.66.97.98,1.7.98.58,0,1.07-.25,1.47-.74.4-.49.61-1.23.61-2.2,0-1.09-.2-1.88-.59-2.35-.39-.48-.9-.72-1.51-.72s-1.1.24-1.5.71c-.4.47-.6,1.18-.6,2.12Z"/><path class="cls-4" d="m98.23,129.4c0-.83.21-1.64.62-2.42s.99-1.38,1.75-1.79c.75-.41,1.6-.62,2.53-.62,1.43,0,2.61.47,3.53,1.4.92.93,1.38,2.11,1.38,3.53s-.46,2.63-1.39,3.57c-.93.94-2.09,1.42-3.5,1.42-.87,0-1.7-.2-2.49-.59-.79-.39-1.39-.97-1.8-1.73-.41-.76-.62-1.68-.62-2.77Zm2.57.13c0,.94.22,1.66.67,2.16.45.5,1,.75,1.65.75s1.21-.25,1.65-.75c.44-.5.67-1.23.67-2.18s-.22-1.64-.67-2.14c-.44-.5-.99-.75-1.65-.75s-1.21.25-1.65.75c-.45.5-.67,1.22-.67,2.16Z"/><path class="cls-4" d="m109.11,131.57l2.52-.38c.11.49.32.86.65,1.11.33.25.79.38,1.38.38.65,0,1.14-.12,1.47-.36.22-.17.33-.39.33-.67,0-.19-.06-.35-.18-.47-.12-.12-.4-.23-.84-.33-2.03-.45-3.31-.85-3.85-1.22-.75-.51-1.13-1.22-1.13-2.14,0-.82.33-1.51.97-2.07.65-.56,1.66-.84,3.02-.84s2.26.21,2.89.63c.63.42,1.07,1.05,1.3,1.88l-2.37.44c-.1-.37-.29-.65-.58-.85s-.69-.29-1.21-.29c-.66,0-1.13.09-1.42.28-.19.13-.29.3-.29.51,0,.18.08.33.25.46.23.17,1.01.4,2.35.71,1.34.3,2.27.68,2.8,1.12.52.45.79,1.07.79,1.87,0,.87-.36,1.62-1.09,2.24-.73.63-1.8.94-3.23.94-1.29,0-2.31-.26-3.07-.79-.75-.52-1.25-1.24-1.48-2.14Z"/><path class="cls-4" d="m120.17,123.5v-2.32h2.51v2.32h-2.51Zm0,10.78v-9.49h2.51v9.49h-2.51Z"/><path class="cls-4" d="m133.88,134.28h-2.51v-4.84c0-1.02-.05-1.69-.16-1.99s-.28-.53-.52-.7c-.24-.17-.53-.25-.87-.25-.43,0-.83.12-1.17.36-.34.24-.58.55-.71.95-.13.39-.19,1.12-.19,2.18v4.3h-2.51v-9.49h2.33v1.39c.83-1.07,1.87-1.61,3.13-1.61.55,0,1.06.1,1.52.3.46.2.81.45,1.04.76.24.31.4.66.49,1.05.09.39.14.96.14,1.69v5.9Z"/><path class="cls-4" d="m136.2,134.9l2.87.35c.05.33.16.56.33.69.24.18.61.27,1.12.27.66,0,1.15-.1,1.47-.29.22-.13.39-.34.5-.63.08-.21.12-.59.12-1.15v-1.38c-.75,1.02-1.7,1.54-2.84,1.54-1.28,0-2.29-.54-3.03-1.62-.58-.85-.88-1.91-.88-3.18,0-1.59.38-2.81,1.15-3.65.77-.84,1.72-1.26,2.85-1.26s2.14.52,2.9,1.55v-1.33h2.35v8.51c0,1.12-.09,1.96-.28,2.51-.18.55-.44.99-.78,1.3-.33.32-.78.56-1.34.74-.56.18-1.26.27-2.11.27-1.61,0-2.75-.28-3.42-.83s-1.01-1.25-1.01-2.1c0-.08,0-.18,0-.3Zm2.24-5.57c0,1.01.2,1.74.59,2.21.39.47.87.7,1.44.7.61,0,1.13-.24,1.55-.72.42-.48.63-1.19.63-2.13s-.2-1.71-.61-2.19-.92-.71-1.54-.71-1.1.23-1.49.7c-.39.47-.59,1.18-.59,2.14Z"/><path class="cls-4" d="m150.49,128.18h-1.46v-5.52c-.54.5-1.17.87-1.89,1.11v-1.33c.38-.12.8-.36,1.25-.71.45-.35.75-.76.92-1.22h1.19v7.67Z"/><path class="cls-2" d="m162.58,45.47c0,23.92-19.39,43.31-43.31,43.31s-43.31-19.39-43.31-43.31S95.35,2.17,119.27,2.17s43.31,19.39,43.31,43.31Z"/><path class="cls-5" d="m140.27,22.31h-2.76v2.76c0,2.74-2.23,4.97-4.97,4.97s-4.97-2.23-4.97-4.97v-2.76h-16.58v2.76c0,2.74-2.23,4.97-4.97,4.97s-4.97-2.23-4.97-4.97v-2.76h-2.76c-3.05,0-5.53,2.48-5.53,5.53v37.58c0,3.05,2.47,5.53,5.53,5.53h42c3.05,0,5.53-2.48,5.53-5.53V27.84c0-3.05-2.48-5.53-5.53-5.53m3.32,43.1c0,1.82-1.49,3.32-3.32,3.32h-42c-1.82,0-3.31-1.49-3.31-3.32v-26.25h48.63v26.25Z"/><path class="cls-5" d="m106.01,28.94c1.83,0,3.32-1.73,3.32-3.87v-3.32c0-2.13-1.49-3.87-3.32-3.87s-3.32,1.73-3.32,3.87v3.32c0,2.13,1.49,3.87,3.32,3.87"/><path class="cls-5" d="m132.54,28.94c1.83,0,3.32-1.73,3.32-3.87v-3.32c0-2.13-1.49-3.87-3.32-3.87s-3.32,1.73-3.32,3.87v3.32c0,2.13,1.49,3.87,3.32,3.87"/><path class="cls-5" d="m113.47,43.48v20.21h-4.07v-13.94h-4.75v-2.7c1.25-.06,2.13-.14,2.63-.25.8-.18,1.45-.53,1.95-1.06.34-.36.6-.85.78-1.45.1-.36.15-.63.15-.81h3.32m0-2.34h-3.32c-1.26,0-2.28.99-2.33,2.24,0,.04-.03.12-.07.27-.09.32-.2.45-.23.48-.11.12-.31.28-.75.38-.17.04-.72.13-2.23.2-1.25.06-2.23,1.08-2.23,2.33v2.7c0,1.29,1.04,2.33,2.33,2.33h2.42v11.6c0,1.29,1.05,2.33,2.34,2.33h4.07c1.29,0,2.34-1.05,2.34-2.33v-20.21c0-1.29-1.05-2.34-2.34-2.34"/><path class="cls-5" d="m133.72,48.53l-4.99,7.4,5.18,7.76h-4.95l-2.62-4.57-2.64,4.57h-4.82l5.18-7.69-4.96-7.47h4.87l2.54,4.4,2.48-4.4h4.73m0-2.34h-4.73c-.84,0-1.62.45-2.04,1.19l-.47.83-.49-.85c-.42-.72-1.19-1.17-2.02-1.17h-4.87c-.86,0-1.65.47-2.06,1.23-.41.76-.36,1.68.11,2.4l4.1,6.17-4.31,6.4c-.48.72-.53,1.64-.13,2.4.41.76,1.2,1.24,2.06,1.24h4.82c.83,0,1.6-.44,2.02-1.17l.61-1.05.6,1.04c.42.73,1.19,1.17,2.03,1.17h4.95c.86,0,1.65-.47,2.06-1.23.41-.76.36-1.68-.12-2.4l-4.31-6.46,4.11-6.1c.48-.72.53-1.64.13-2.4-.41-.76-1.2-1.24-2.06-1.24"/></g></svg>