<?xml version="1.0" encoding="UTF-8"?><svg id="Layer_2" xmlns="http://www.w3.org/2000/svg" xmlns:xlink="http://www.w3.org/1999/xlink" viewBox="0 0 202.48 158.36"><defs><style>.cls-1{fill:none;}.cls-2{clip-path:url(#clippath);}.cls-3{fill:#fff;}.cls-4{fill:#0773bb;}.cls-5{fill:#25ac4a;}.cls-6{fill:url(#radial-gradient);}</style><clipPath id="clippath"><path class="cls-1" d="m52.05,69.51c-.32.42-.24,1.02.18,1.33l2.29,1.75c.22.17.49.22.74.18.23-.04.44-.16.59-.36.32-.42.24-1.02-.18-1.33l-2.29-1.75c-.17-.13-.37-.2-.58-.2-.29,0-.57.13-.76.38m-2.48-7.08c-.3.14-.53.39-.64.7-.11.31-.1.64.04.94.14.3.39.53.7.64l9.09,3.31c.14.05.28.08.42.08.06,0,.12,0,.18-.01.45-.06.83-.37.99-.8.11-.31.1-.65-.04-.94-.14-.3-.39-.53-.7-.64l-9.09-3.31c-.14-.05-.28-.08-.42-.08-.18,0-.36.04-.52.12m-30.31-2.17l-2.88.08c-.53.01-.94.45-.92.98.02.53.45.94.98.93l2.88-.08c.26,0,.49-.12.66-.29.17-.18.28-.42.27-.69-.01-.52-.44-.92-.95-.92h-.03Zm36.92-.97c-.51,0-.93.41-.95.93-.02.53.4.96.93.98l2.88.08c.28,0,.53-.1.71-.29.16-.16.26-.39.27-.63.02-.53-.4-.97-.92-.98l-2.88-.08h-.03Zm-40.99-4.84c-.28.17-.48.45-.55.77-.16.66.26,1.33.92,1.49l10.39,2.45c.09.02.19.03.28.03.33,0,.66-.13.89-.37.16-.16.27-.36.32-.58.16-.66-.26-1.33-.92-1.49l-10.39-2.45c-.09-.02-.19-.03-.28-.03-.23,0-.45.06-.65.18m44.14-1.99l-9.22,2.91c-.65.21-1.01.9-.81,1.55.1.31.31.57.61.72.18.09.37.14.57.14.13,0,.25-.02.37-.06l9.23-2.91c.19-.06.37-.17.51-.31h0c.32-.33.43-.8.29-1.23-.1-.32-.31-.57-.61-.73-.18-.09-.37-.14-.57-.14-.12,0-.25.02-.37.06m-41.25-2.5c-.27.45-.11,1.04.34,1.3l2.49,1.45c.39.23.87.15,1.16-.16.05-.05.1-.12.14-.18.27-.46.11-1.04-.34-1.3l-2.49-1.45c-.15-.09-.32-.13-.48-.13-.33,0-.65.17-.82.47m37.72-1.46l-2.56,1.34c-.47.24-.65.82-.4,1.29.24.47.82.65,1.28.4l2.56-1.34c.09-.05.17-.11.24-.18.28-.29.36-.73.16-1.11-.17-.33-.5-.51-.84-.51-.15,0-.3.03-.44.11m-34.26-4.31c-.31,0-.61.12-.84.34l-.07.07c-.44.49-.42,1.25.05,1.71l7.63,7.46c.24.23.54.36.87.36h.02c.33,0,.63-.14.86-.38.47-.49.46-1.27-.02-1.75l-7.63-7.47c-.23-.23-.57-.35-.86-.35h-.01Zm31.36-1.75c-.33.02-.63.18-.83.42l-6.46,7.41c-.22.25-.32.57-.3.89.02.33.17.63.42.85.23.2.52.3.81.3.32,0,.64-.13.88-.37l6.5-7.46c.22-.25.32-.57.3-.9-.02-.33-.17-.63-.42-.85-.23-.2-.52-.31-.82-.31-.03,0-.06,0-.09,0m-26.59-.74c-.47.25-.64.82-.4,1.29l1.35,2.55c.25.46.82.64,1.29.4.09-.05.17-.11.24-.18.28-.29.36-.73.16-1.11l-1.35-2.55c-.17-.32-.5-.51-.84-.51-.15,0-.3.04-.44.11m20.56-1.11l-1.27,2.71c-.22.48-.02,1.04.46,1.27.38.18.81.09,1.09-.2.07-.07.13-.16.18-.26l1.27-2.71c.22-.48.02-1.04-.46-1.27-.13-.06-.27-.09-.41-.09-.36,0-.7.2-.86.55m-16.01-2.62c-.65.2-1.02.89-.81,1.55l3.04,9.82c.16.53.65.87,1.18.87.12,0,.24-.02.37-.06.2-.06.38-.17.52-.32.31-.33.43-.8.29-1.23l-3.04-9.82c-.1-.31-.31-.57-.6-.73-.18-.1-.38-.14-.58-.14-.12,0-.25.02-.37.06m5.71-.09c-.53.02-.93.47-.9,1l.16,3.15c.03.53.47.93,1,.9.25-.01.47-.12.63-.29.18-.18.28-.44.27-.71l-.16-3.15c-.03-.51-.45-.9-.95-.9-.02,0-.03,0-.05,0m4.81.25l-1.97,9.94c-.13.67.3,1.32.97,1.45.08.02.16.02.24.02.33,0,.65-.13.89-.38.16-.17.28-.38.32-.62l1.97-9.94c.06-.32,0-.65-.19-.93-.18-.27-.46-.46-.79-.52-.08-.02-.16-.02-.24-.02-.58,0-1.09.41-1.21,1"/></clipPath><radialGradient id="radial-gradient" cx="-1259.09" cy="2933.5" fx="-1259.09" fy="2933.5" r=".81" gradientTransform="translate(41448.96 -96421.56) scale(32.89)" gradientUnits="userSpaceOnUse"><stop offset="0" stop-color="#c1a0cb"/><stop offset=".48" stop-color="#c1a0cb"/><stop offset=".91" stop-color="#0773bb"/><stop offset="1" stop-color="#0773bb"/></radialGradient></defs><g id="Layer_1-2"><path class="cls-3" d="m10.88,0h191.6v158.36H10.88c-6.01,0-10.88-6.29-10.88-14.05V14.05C0,6.29,4.87,0,10.88,0"/><polygon class="cls-4" points="49.59 100.7 50.89 91.55 44.55 78.22 51.29 78.22 54.64 86.67 60.4 78.22 67.14 78.22 56.99 91.55 55.68 100.7 49.59 100.7"/><path class="cls-4" d="m80.97,78.22h5.84l-1.87,13.13c-1.02,7.16-5.5,9.54-10.34,9.54s-8.77-2.38-7.72-9.54l1.91-13.13h5.84l-1.94,13.58c-.26,1.83.03,3.85,2.66,3.85s3.43-2.02,3.7-3.85l1.94-13.58Z"/><path class="cls-4" d="m87.33,100.7l3.21-22.47h8.31c5.74,0,9,2.57,8.22,8.06-.77,5.39-5.12,7.8-9.68,7.8h-3.27l-.94,6.61h-5.84Zm9.65-11.21c2.41,0,3.91-1.06,4.21-3.21.28-1.99-.76-3.43-3.49-3.43h-1.99l-.95,6.65h2.21Z"/><polygon class="cls-4" points="107.08 100.7 110.29 78.22 125.15 78.22 124.49 82.85 115.47 82.85 114.83 87.31 121.48 87.31 120.83 91.84 114.19 91.84 113.58 96.07 122.6 96.07 121.94 100.7 107.08 100.7"/><polygon class="cls-4" points="125.14 100.7 128.34 78.22 134.18 78.22 131.64 96.07 140.65 96.07 139.99 100.7 125.14 100.7"/><path class="cls-4" d="m161.24,100.6s-.91.29-2.9.29c-7.51,0-3.84-7.93-8.4-7.93h-1.06l-1.1,7.74h-5.84l3.21-22.47h8.41c6.03,0,8.79,2.05,8.03,7.35-.48,3.34-2.96,5.01-4.31,5.68,1.49,2.15.98,4.82,3.61,4.82h.99l-.65,4.53Zm-9.78-12.01c2.34,0,4.15-.96,4.41-2.83.27-1.86-.96-2.92-3.21-2.92h-2.34l-.82,5.75h1.96Z"/><polygon class="cls-4" points="163.59 100.7 166.79 78.22 172.63 78.22 169.43 100.7 163.59 100.7"/><path class="cls-5" d="m44.33,70.27l-3.8-12.67c-.33-1.09-1.48-1.72-2.58-1.39-.27.08-.51.22-.72.39l-.07.06-16.72,13.9c-.43.36-.49.99-.13,1.42.33.4.91.48,1.33.2l15.18-10.01-2.89,19.54c-.08.55.3,1.07.85,1.15.55.08,1.06-.3,1.15-.84l2.81-18.22,3.71,7.24c.25.5.87.7,1.37.44.44-.23.65-.73.51-1.19"/><path class="cls-5" d="m138.48,113.89s-.1.03-.3.03c-.41,0-.63-.25-.56-.84l.32-3h.69l-.31,2.92c-.02.25.02.38.22.38l-.06.51Zm-.09-4.58c-.25,0-.4-.17-.4-.42,0-.29.22-.52.5-.52.23,0,.4.18.4.43,0,.29-.24.52-.5.52"/><path class="cls-5" d="m142.19,113.89s-.11.03-.3.03c-.41,0-.63-.25-.56-.84l.16-1.55c.06-.53-.07-.91-.49-.91-.46,0-.74.63-.79,1.1l-.23,2.18h-.67l.31-2.93c.02-.23-.02-.37-.21-.37l.06-.51s.1-.03.3-.03c.31,0,.52.22.49.58l-.02.2c.13-.41.45-.8,1.01-.8.78,0,1.02.67.94,1.5l-.15,1.47c-.02.25.02.38.22.38l-.05.51Z"/><path class="cls-5" d="m145.74,113.89s-.1.03-.31.03c-.41,0-.62-.25-.55-.84l.17-1.61c.05-.48-.11-.86-.5-.86-.47,0-.74.63-.79,1.09l-.23,2.19h-.68l.6-5.75h.68l-.27,2.61c.17-.4.48-.72.93-.72.78,0,1.02.67.94,1.5l-.15,1.47c-.02.25.02.38.22.38l-.06.51Z"/><path class="cls-5" d="m149.09,113.88s-.1.04-.3.04c-.36,0-.57-.21-.51-.6v-.04s-.25.66-1.09.66c-.58,0-.89-.34-.89-.87,0-.71.41-1.16,1.35-1.16h.71l.06-.54c.05-.51-.13-.75-.49-.75-.41,0-.63.29-.63.71,0,.13.02.21.02.21h-.62s-.03-.09-.03-.28c0-.71.48-1.23,1.34-1.23s1.19.47,1.09,1.36l-.17,1.59c-.02.25,0,.4.21.4l-.05.5Zm-.78-1.48h-.69c-.4,0-.61.21-.61.56,0,.29.17.44.44.44.59,0,.85-.86.85-.86v-.14Z"/><path class="cls-5" d="m150.68,113.89s-.11.03-.31.03c-.41,0-.62-.25-.55-.84l.51-4.94h.69l-.51,4.86c-.02.25.03.38.22.38l-.05.51Z"/><path class="cls-5" d="m154.09,113.88s-.1.04-.3.04c-.36,0-.57-.21-.51-.6v-.04s-.25.66-1.08.66c-.58,0-.9-.34-.9-.87,0-.71.41-1.16,1.35-1.16h.7l.06-.54c.05-.51-.13-.75-.49-.75-.41,0-.63.29-.63.71,0,.13.02.21.02.21h-.62s-.03-.09-.03-.28c0-.71.48-1.23,1.34-1.23s1.19.47,1.09,1.36l-.17,1.59c-.02.25,0,.4.21.4l-.05.5Zm-.78-1.48h-.69c-.4,0-.61.21-.61.56,0,.29.17.44.44.44.59,0,.86-.86.86-.86v-.14Z"/><path class="cls-5" d="m156.95,113.53s-.36.41-.85.41c-.84,0-1.11-.52-1.01-1.47l.19-1.83h-.48l.05-.56h.48l.13-1.19h.69l-.13,1.19h1.13l-.06.56h-1.13l-.19,1.81c-.06.6.07.9.45.9.33,0,.55-.29.55-.29l.16.48Z"/><path class="cls-5" d="m158.41,113.89s-.1.03-.3.03c-.41,0-.63-.25-.56-.84l.32-3h.69l-.31,2.92c-.02.25.02.38.22.38l-.06.51Zm-.09-4.58c-.25,0-.4-.17-.4-.42,0-.29.22-.52.5-.52.23,0,.4.18.4.43,0,.29-.24.52-.5.52"/><path class="cls-5" d="m159.16,112.31c0-1.4.65-2.28,1.62-2.28.78,0,1.22.61,1.22,1.64,0,1.38-.64,2.27-1.63,2.27-.77,0-1.21-.61-1.21-1.63m2.17-.64c0-.7-.22-1.05-.61-1.05-.53,0-.89.61-.89,1.69,0,.7.21,1.06.6,1.06.56,0,.9-.63.9-1.69"/><path class="cls-5" d="m165.5,113.89s-.11.03-.3.03c-.41,0-.63-.25-.56-.84l.16-1.55c.05-.53-.07-.91-.49-.91-.46,0-.75.63-.79,1.1l-.23,2.18h-.67l.31-2.93c.02-.23-.02-.37-.21-.37l.06-.51s.1-.03.3-.03c.31,0,.52.22.49.58l-.02.2c.13-.41.45-.8,1.01-.8.78,0,1.02.67.93,1.5l-.15,1.47c-.02.25.02.38.22.38l-.06.51Z"/><path class="cls-5" d="m139.54,118.62s.05-.2.05-.36c0-.26-.14-.48-.55-.48-.43,0-.64.25-.64.62,0,.84,1.64.2,1.64,1.46,0,.75-.44,1.25-1.37,1.25-1.08,0-1.3-.76-1.3-.76l.44-.45s.26.63.89.63c.45,0,.66-.22.66-.55,0-.73-1.64-.17-1.64-1.47,0-.66.37-1.31,1.39-1.31.85,0,1.13.48,1.13.96,0,.28-.1.47-.1.47h-.59Z"/><path class="cls-5" d="m140.7,119.47c0-1.39.65-2.28,1.62-2.28.78,0,1.22.61,1.22,1.64,0,1.38-.64,2.27-1.63,2.27-.77,0-1.21-.61-1.21-1.63m2.17-.64c0-.7-.22-1.05-.61-1.05-.53,0-.89.61-.89,1.69,0,.7.21,1.05.6,1.05.56,0,.9-.63.9-1.69"/><path class="cls-5" d="m144.99,121.05s-.11.03-.31.03c-.41,0-.62-.25-.55-.84l.51-4.94h.69l-.51,4.86c-.02.25.03.38.22.38l-.05.51Z"/><path class="cls-5" d="m148.56,121.05s-.11.03-.3.03c-.37,0-.59-.21-.5-.63v-.03c-.17.36-.52.69-1.1.69-.67,0-.93-.48-.83-1.37l.26-2.49h.68l-.25,2.41c-.07.66.13.87.44.87.54,0,.81-.74.84-1.04l.24-2.24h.68l-.31,2.92c-.02.25,0,.39.21.39l-.06.51Z"/><path class="cls-5" d="m151.53,120.7s-.36.41-.85.41c-.84,0-1.11-.52-1.01-1.47l.19-1.83h-.48l.05-.56h.48l.13-1.19h.69l-.13,1.19h1.13l-.06.56h-1.12l-.19,1.81c-.06.6.07.9.45.9.32,0,.55-.29.55-.29l.16.48Z"/><path class="cls-5" d="m152.98,121.05s-.1.03-.3.03c-.41,0-.63-.25-.56-.84l.32-3h.69l-.31,2.92c-.02.25.02.38.22.38l-.06.51Zm-.09-4.58c-.25,0-.4-.17-.4-.42,0-.29.22-.52.5-.52.23,0,.4.18.4.43,0,.29-.24.51-.5.51"/><path class="cls-5" d="m153.74,119.47c0-1.39.65-2.28,1.62-2.28.78,0,1.22.61,1.22,1.64,0,1.38-.64,2.27-1.63,2.27-.77,0-1.21-.61-1.21-1.63m2.17-.64c0-.7-.22-1.05-.61-1.05-.53,0-.89.61-.89,1.69,0,.7.21,1.05.6,1.05.56,0,.89-.63.89-1.69"/><path class="cls-5" d="m160.08,121.05s-.11.03-.3.03c-.41,0-.63-.25-.56-.84l.16-1.55c.05-.53-.07-.91-.49-.91-.46,0-.75.63-.79,1.1l-.23,2.18h-.67l.31-2.93c.02-.23-.02-.37-.21-.37l.06-.51s.1-.03.3-.03c.31,0,.52.21.49.58l-.02.2c.13-.41.45-.8,1.01-.8.78,0,1.02.67.94,1.5l-.15,1.47c-.02.25.02.38.22.38l-.05.51Z"/><path class="cls-5" d="m47.88,121.06l.94-8.76c.07-.71-.05-1.14-.62-1.14l.11-1.07s.18-.07.62-.07c.71,0,1.32.46,1.16,1.69l-.09.87c.43-1.37,1.39-2.65,3.04-2.65.75,0,1.14.25,1.14.25l-.71,1.3s-.3-.23-.91-.23c-1.51,0-2.42,2.03-2.6,3.54l-.66,6.28h-1.42Z"/><path class="cls-5" d="m55.48,115.47l-.02.27c-.37,3.42,1.16,4.25,2.24,4.25,1.62,0,2.49-1.6,2.49-1.6l.71.82s-1.09,1.98-3.51,1.98c-1.8,0-3.4-1.21-3.4-4.63,0-4.45,1.71-6.64,4.52-6.64,2.46,0,3.08,2.17,2.78,4.93l-.05.62h-5.75Zm4.52-1.03c.18-1.83-.21-3.31-1.71-3.31-1.23,0-2.26.98-2.67,3.31h4.38Z"/><polygon class="cls-5" points="64.83 121.06 62.67 110.06 64.22 110.06 65.81 119.4 69.37 110.06 70.86 110.06 66.39 121.06 64.83 121.06"/><path class="cls-5" d="m72.52,115.47l-.02.27c-.37,3.42,1.16,4.25,2.24,4.25,1.62,0,2.49-1.6,2.49-1.6l.71.82s-1.09,1.98-3.51,1.98c-1.8,0-3.4-1.21-3.4-4.63,0-4.45,1.71-6.64,4.52-6.64,2.46,0,3.08,2.17,2.78,4.93l-.05.62h-5.75Zm4.52-1.03c.18-1.83-.2-3.31-1.71-3.31-1.23,0-2.26.98-2.67,3.31h4.38Z"/><path class="cls-5" d="m80.05,121.06l1.05-9.83h-1.28l.11-1.16h1.28l.21-1.94c.21-2.17,1.32-3.67,3.29-3.67,1.53,0,2.1,1.09,2.1,1.09l-.62,1.05s-.37-.94-1.46-.94c-1,0-1.74.94-1.92,2.51l-.21,1.89h3.19l-.11,1.16h-3.19l-1.03,9.83h-1.42Z"/><path class="cls-5" d="m87.36,115.47l-.02.27c-.37,3.42,1.16,4.25,2.24,4.25,1.62,0,2.49-1.6,2.49-1.6l.71.82s-1.09,1.98-3.51,1.98c-1.8,0-3.4-1.21-3.4-4.63,0-4.45,1.71-6.64,4.52-6.64,2.46,0,3.08,2.17,2.78,4.93l-.05.62h-5.75Zm4.52-1.03c.18-1.83-.21-3.31-1.71-3.31-1.23,0-2.26.98-2.67,3.31h4.38Z"/><path class="cls-5" d="m102.48,121.04s-.23.07-.64.07c-.93,0-1.48-.62-1.32-2.15l.5-4.75c.18-1.73-.3-3.08-1.69-3.08-1.57,0-2.53,2.1-2.69,3.65l-.66,6.28h-1.39l.94-8.79c.07-.68-.05-1.12-.62-1.12l.11-1.07s.21-.07.64-.07c.73,0,1.26.55,1.17,1.64l-.07.87c.02-.16.64-2.6,3.03-2.6,2.21,0,2.9,1.92,2.65,4.29l-.48,4.61c-.09.75.05,1.14.64,1.14l-.11,1.07Z"/><path class="cls-5" d="m112,121.04s-.27.07-.68.07c-.8,0-1.28-.5-1.19-1.67l.05-.5s-.91,2.26-3.08,2.26c-1.57,0-2.94-1.37-2.94-4.54,0-4.72,1.99-6.73,4.2-6.73,1.96,0,2.6,1.8,2.6,1.8l.16-1.67h1.28l-.91,8.76c-.09.75.05,1.14.64,1.14l-.11,1.07Zm-1.39-7.55c0-.16-.3-2.35-2.14-2.35-1.6,0-2.92,1.87-2.92,5.36,0,2.35.87,3.49,2.01,3.49,2.03,0,2.67-2.72,2.67-2.74l.39-3.77Z"/><path class="cls-5" d="m120.74,119.21s-.91,1.98-3.51,1.98c-1.8,0-3.4-1.21-3.4-4.63,0-4.47,1.8-6.64,4.59-6.64,2.01,0,2.83,1.39,2.83,2.92,0,.82-.25,1.48-.25,1.48h-1.3s.21-.59.21-1.21c0-.94-.36-1.98-1.6-1.98-1.8,0-3.06,1.67-3.06,5.27,0,2.85,1.3,3.58,2.3,3.58,1.62,0,2.49-1.6,2.49-1.6l.71.82Z"/><path class="cls-5" d="m124.43,121.04s-.23.07-.64.07c-.94,0-1.48-.62-1.32-2.15l.94-8.9h1.41l-.91,8.76c-.07.75.07,1.14.64,1.14l-.12,1.07Zm0-13.35c-.55,0-.91-.41-.91-.96,0-.66.5-1.19,1.12-1.19.52,0,.91.41.91.98,0,.66-.55,1.16-1.12,1.16"/><path class="cls-5" d="m134.29,121.04s-.23.07-.64.07c-.94,0-1.48-.62-1.32-2.15l.5-4.75c.18-1.73-.3-3.08-1.69-3.08-1.57,0-2.53,2.1-2.69,3.65l-.66,6.28h-1.39l.94-8.79c.07-.68-.05-1.12-.62-1.12l.11-1.07s.21-.07.64-.07c.73,0,1.26.55,1.16,1.64l-.07.87c.02-.16.64-2.6,3.03-2.6,2.21,0,2.9,1.92,2.65,4.29l-.48,4.61c-.09.75.05,1.14.64,1.14l-.11,1.07Z"/><path class="cls-5" d="m69.7,71.66c0-2.32,1.34-3.45,2.89-3.45,1.26,0,2.23.85,2.23,2.6,0,2.34-1.34,3.45-2.87,3.45-1.27,0-2.25-.83-2.25-2.59m3.91-.81c0-1.18-.51-1.61-1.14-1.61-.82,0-1.56.65-1.56,2.39,0,1.17.5,1.61,1.14,1.61.82,0,1.56-.66,1.56-2.39"/><polygon class="cls-5" points="78.62 74.2 76.98 70.42 76.59 74.2 75.42 74.2 76.05 68.26 77.26 68.26 78.87 72.17 79.28 68.26 80.46 68.26 79.83 74.2 78.62 74.2"/><path class="cls-5" d="m85.6,73.14s-.72,1.11-2.17,1.11-2.37-.88-2.37-2.59c0-2.22,1.13-3.45,2.86-3.45,2.02,0,2,1.76,1.98,2.07l-1.1.18s.1-1.22-.97-1.22c-.88,0-1.55.76-1.55,2.32,0,1.18.61,1.67,1.32,1.67.81,0,1.42-.81,1.42-.81l.59.72Z"/><polygon class="cls-5" points="86.35 74.2 86.97 68.26 90.56 68.26 90.45 69.21 88.03 69.21 87.87 70.79 89.77 70.79 89.65 71.72 87.77 71.72 87.61 73.25 90.03 73.25 89.94 74.2 86.35 74.2"/><polygon class="cls-5" points="90.89 72.29 90.97 71.49 93.29 71.49 93.2 72.29 90.89 72.29"/><path class="cls-5" d="m94.09,74.2l.63-5.94h1.67c1.36,0,2.52.74,2.52,2.64,0,2.43-1.41,3.3-2.91,3.3h-1.91Zm2-.95c.93,0,1.66-.79,1.66-2.33,0-1.08-.46-1.72-1.48-1.72h-.49l-.42,4.04h.74Z"/><path class="cls-5" d="m102.63,72.71h-1.96l-.63,1.49h-1.21l2.7-5.94h1.2l1.44,5.94h-1.21l-.32-1.49Zm-1.56-.89h1.36l-.46-2.15-.9,2.15Z"/><polygon class="cls-5" points="104.85 74.2 105.47 68.26 106.64 68.26 106.02 74.2 104.85 74.2"/><polygon class="cls-5" points="107.21 74.2 107.84 68.26 109.01 68.26 108.48 73.25 110.94 73.25 110.84 74.2 107.21 74.2"/><polygon class="cls-5" points="112.27 74.2 112.53 71.71 110.85 68.26 112.2 68.26 113.25 70.72 114.8 68.26 116.16 68.26 113.74 71.71 113.48 74.2 112.27 74.2"/><path class="cls-4" d="m176.65,78.25c1.13,0,2.05.92,2.05,2.05s-.92,2.05-2.05,2.05-2.05-.92-2.05-2.05.92-2.05,2.05-2.05m0-.38c-1.34,0-2.42,1.09-2.42,2.43s1.09,2.42,2.42,2.42,2.42-1.09,2.42-2.42-1.09-2.43-2.42-2.43"/><path class="cls-4" d="m49.75,72.52c.79,0,1.44.65,1.44,1.44s-.64,1.44-1.44,1.44-1.44-.64-1.44-1.44.64-1.44,1.44-1.44m0-.26c-.94,0-1.7.76-1.7,1.7s.76,1.7,1.7,1.7,1.7-.76,1.7-1.7-.76-1.7-1.7-1.7"/><path class="cls-4" d="m175.64,78.99h1.18c.58,0,1.01.26,1.01.83,0,.4-.22.67-.55.78l.64.9h-.73l-.54-.79h-.39v.79h-.61v-2.51Zm1.14,1.22c.28,0,.43-.14.43-.35,0-.22-.17-.35-.43-.35h-.53v.69h.53Z"/><path class="cls-4" d="m49.04,73.04h.83c.41,0,.71.19.71.58,0,.28-.16.47-.39.55l.45.63h-.52l-.38-.55h-.27v.55h-.43v-1.76Zm.8.86c.19,0,.3-.1.3-.24,0-.16-.12-.24-.3-.24h-.37v.49h.37Z"/><g class="cls-2"><rect class="cls-6" x="14.48" y="37.16" width="46.54" height="35.66"/></g></g></svg>