<?xml version="1.0" encoding="UTF-8"?><svg id="Layer_2" xmlns="http://www.w3.org/2000/svg" xmlns:xlink="http://www.w3.org/1999/xlink" viewBox="0 0 886.51 282"><defs><style>.cls-1{fill:none;}.cls-2{clip-path:url(#clippath);}.cls-3{fill:#fff;}.cls-4{fill:#9362a6;}.cls-5{fill:#0773bb;}.cls-6{fill:#0d73bb;}.cls-7{clip-path:url(#clippath-1);}.cls-8{clip-path:url(#clippath-2);}.cls-9{opacity:.2;}</style><clipPath id="clippath"><rect class="cls-1" y="202.82" width="228.85" height="79.18"/></clipPath><clipPath id="clippath-1"><rect class="cls-1" x="324.41" y="202.82" width="228.85" height="79.18"/></clipPath><clipPath id="clippath-2"><rect class="cls-1" x="649.3" y="202.82" width="228.85" height="79.18"/></clipPath></defs><g id="Layer_1-2"><g class="cls-9"><g class="cls-2"><path class="cls-5" d="m219.54,282H9.31C4.17,282,0,277.83,0,272.69v-60.55c0-5.14,4.17-9.31,9.31-9.31h210.23c5.14,0,9.31,4.17,9.31,9.31v60.55c0,5.14-4.17,9.31-9.31,9.31"/></g></g><g class="cls-9"><g class="cls-7"><path class="cls-5" d="m543.95,282h-210.23c-5.14,0-9.31-4.17-9.31-9.31v-60.55c0-5.14,4.17-9.31,9.31-9.31h210.23c5.14,0,9.31,4.17,9.31,9.31v60.55c0,5.14-4.17,9.31-9.31,9.31"/></g></g><g class="cls-9"><g class="cls-8"><path class="cls-5" d="m868.84,282h-210.23c-5.14,0-9.31-4.17-9.31-9.31v-60.55c0-5.14,4.17-9.31,9.31-9.31h210.23c5.14,0,9.31,4.17,9.31,9.31v60.55c0,5.14-4.17,9.31-9.31,9.31"/></g></g><path class="cls-5" d="m35.68,226.25l3.37,1.07c-.52,1.88-1.38,3.27-2.58,4.18-1.2.91-2.72,1.37-4.57,1.37-2.29,0-4.16-.78-5.63-2.34-1.47-1.56-2.21-3.7-2.21-6.4,0-2.86.74-5.09,2.22-6.67,1.48-1.58,3.42-2.38,5.83-2.38,2.1,0,3.81.62,5.13,1.87.78.74,1.37,1.79,1.76,3.17l-3.44.82c-.2-.89-.63-1.6-1.27-2.11-.65-.52-1.43-.77-2.35-.77-1.28,0-2.31.46-3.1,1.37-.79.92-1.19,2.4-1.19,4.45,0,2.18.39,3.73,1.17,4.65.78.92,1.8,1.38,3.05,1.38.92,0,1.72-.29,2.38-.88.67-.59,1.14-1.51,1.43-2.77Z"/><path class="cls-5" d="m41.33,224.07c0-1.75.26-3.22.79-4.41.39-.88.92-1.66,1.6-2.36s1.42-1.21,2.22-1.55c1.07-.45,2.31-.68,3.71-.68,2.54,0,4.56.79,6.09,2.36,1.52,1.57,2.28,3.76,2.28,6.56s-.76,4.95-2.27,6.52c-1.51,1.57-3.53,2.35-6.06,2.35s-4.59-.78-6.1-2.34c-1.51-1.56-2.27-3.71-2.27-6.45Zm3.58-.12c0,1.95.45,3.43,1.35,4.43.9,1,2.04,1.51,3.43,1.51s2.52-.5,3.41-1.5c.89-1,1.33-2.5,1.33-4.49s-.43-3.44-1.3-4.41c-.86-.97-2.01-1.46-3.45-1.46s-2.59.49-3.46,1.47c-.88.98-1.31,2.46-1.31,4.44Z"/><path class="cls-5" d="m60.73,232.57v-17.21h5.58c2.11,0,3.49.09,4.13.26.99.26,1.81.82,2.48,1.68.67.86,1,1.98,1,3.35,0,1.06-.19,1.94-.58,2.66-.38.72-.87,1.29-1.46,1.7-.59.41-1.19.68-1.8.82-.83.16-2.03.25-3.6.25h-2.27v6.49h-3.47Zm3.47-14.3v4.88h1.9c1.37,0,2.29-.09,2.75-.27.46-.18.82-.46,1.09-.85.26-.38.39-.83.39-1.34,0-.63-.18-1.14-.55-1.55s-.83-.66-1.4-.76c-.42-.08-1.25-.12-2.5-.12h-1.68Z"/><path class="cls-5" d="m76.76,215.36h6.35c1.43,0,2.52.11,3.28.33,1.01.3,1.87.83,2.59,1.58.72.76,1.27,1.69,1.64,2.79s.56,2.46.56,4.07c0,1.42-.18,2.64-.53,3.66-.43,1.25-1.04,2.27-1.84,3.04-.6.59-1.42,1.04-2.44,1.37-.77.24-1.79.36-3.08.36h-6.54v-17.21Zm3.48,2.91v11.4h2.59c.97,0,1.67-.05,2.1-.16.56-.14,1.03-.38,1.4-.72.37-.34.68-.89.91-1.66.23-.77.35-1.82.35-3.15s-.12-2.35-.35-3.06c-.23-.71-.56-1.27-.99-1.67-.42-.4-.96-.67-1.61-.81-.49-.11-1.44-.17-2.85-.17h-1.56Z"/><path class="cls-5" d="m99.62,229.02l3.31-.5c.14.64.43,1.13.86,1.46.43.33,1.03.5,1.81.5.85,0,1.5-.16,1.92-.47.29-.22.43-.51.43-.88,0-.25-.08-.46-.23-.62-.17-.16-.53-.3-1.1-.43-2.66-.59-4.35-1.12-5.06-1.61-.99-.67-1.48-1.61-1.48-2.81,0-1.08.43-1.99,1.28-2.72.85-.74,2.18-1.1,3.97-1.1s2.97.28,3.8.83c.83.56,1.4,1.38,1.71,2.46l-3.11.58c-.13-.49-.39-.86-.76-1.12-.37-.26-.9-.39-1.59-.39-.87,0-1.49.12-1.87.36-.25.17-.38.4-.38.67,0,.24.11.43.33.6.3.22,1.32.53,3.08.93,1.76.4,2.98.89,3.68,1.47.69.59,1.03,1.4,1.03,2.45,0,1.14-.48,2.12-1.43,2.95-.95.82-2.37,1.23-4.24,1.23-1.7,0-3.04-.34-4.03-1.03-.99-.69-1.64-1.62-1.94-2.81Z"/><path class="cls-5" d="m112.6,220.11h3.51l2.98,8.85,2.91-8.85h3.42l-4.4,12-.79,2.17c-.29.73-.57,1.28-.83,1.67-.26.38-.56.69-.9.93-.34.24-.76.42-1.26.56-.5.13-1.06.2-1.68.2s-1.26-.07-1.87-.2l-.29-2.58c.52.1.98.15,1.4.15.77,0,1.33-.22,1.7-.67s.65-1.02.85-1.72l-4.74-12.5Z"/><path class="cls-5" d="m127.28,220.11h3.04v1.7c1.09-1.32,2.38-1.98,3.89-1.98.8,0,1.49.17,2.08.49.59.33,1.07.83,1.44,1.49.55-.67,1.14-1.16,1.77-1.49.63-.33,1.31-.49,2.03-.49.92,0,1.69.19,2.32.56.63.37,1.11.92,1.42,1.64.23.53.34,1.39.34,2.58v7.97h-3.3v-7.13c0-1.24-.11-2.03-.34-2.39-.31-.47-.78-.7-1.41-.7-.46,0-.9.14-1.3.42-.41.28-.7.69-.88,1.24s-.27,1.4-.27,2.58v5.99h-3.3v-6.83c0-1.21-.06-2-.18-2.35-.12-.35-.3-.61-.55-.79-.25-.17-.58-.26-1-.26-.51,0-.97.14-1.37.41-.41.27-.7.67-.87,1.19-.18.52-.26,1.37-.26,2.57v6.06h-3.3v-12.47Z"/><path class="cls-5" d="m148.81,220.11h3.08v1.83c.4-.63.94-1.13,1.62-1.53.68-.39,1.44-.59,2.27-.59,1.45,0,2.68.57,3.69,1.7,1.01,1.13,1.51,2.72,1.51,4.74s-.51,3.7-1.53,4.85c-1.02,1.16-2.25,1.73-3.7,1.73-.69,0-1.31-.14-1.87-.41-.56-.27-1.15-.74-1.77-1.41v6.28h-3.3v-17.21Zm3.26,6.02c0,1.4.28,2.44.83,3.11s1.23,1,2.03,1,1.4-.31,1.91-.92.76-1.62.76-3.02c0-1.31-.26-2.28-.79-2.91-.52-.63-1.17-.95-1.95-.95s-1.47.31-2.01.93c-.53.62-.8,1.54-.8,2.76Z"/><path class="cls-5" d="m169.31,220.11v2.63h-2.25v5.02c0,1.02.02,1.61.06,1.78.04.17.14.31.29.42.15.11.34.17.56.17.31,0,.75-.11,1.33-.32l.28,2.56c-.77.33-1.64.49-2.61.49-.59,0-1.13-.1-1.61-.3-.48-.2-.83-.46-1.05-.77-.22-.32-.38-.75-.46-1.29-.07-.38-.11-1.16-.11-2.32v-5.44h-1.51v-2.63h1.51v-2.48l3.31-1.92v4.4h2.25Z"/><path class="cls-5" d="m170.83,226.16c0-1.1.27-2.16.81-3.18s1.31-1.81,2.3-2.35c.99-.54,2.09-.81,3.32-.81,1.89,0,3.43.61,4.64,1.84,1.21,1.22,1.81,2.77,1.81,4.64s-.61,3.45-1.83,4.69c-1.22,1.24-2.75,1.86-4.6,1.86-1.14,0-2.23-.26-3.27-.78-1.04-.52-1.83-1.27-2.37-2.27s-.81-2.21-.81-3.64Zm3.38.18c0,1.24.29,2.18.88,2.84s1.31.99,2.17.99,1.58-.33,2.17-.99.88-1.61.88-2.86-.29-2.16-.88-2.82-1.3-.99-2.17-.99-1.58.33-2.17.99-.88,1.6-.88,2.84Z"/><path class="cls-5" d="m186.04,220.11h3.04v1.7c1.09-1.32,2.38-1.98,3.89-1.98.8,0,1.49.17,2.08.49.59.33,1.07.83,1.44,1.49.55-.67,1.14-1.16,1.77-1.49.63-.33,1.31-.49,2.03-.49.92,0,1.69.19,2.32.56.63.37,1.11.92,1.42,1.64.23.53.34,1.39.34,2.58v7.97h-3.3v-7.13c0-1.24-.11-2.03-.34-2.39-.31-.47-.78-.7-1.41-.7-.46,0-.9.14-1.3.42-.41.28-.7.69-.88,1.24s-.27,1.4-.27,2.58v5.99h-3.3v-6.83c0-1.21-.06-2-.18-2.35-.12-.35-.3-.61-.55-.79-.25-.17-.58-.26-1-.26-.51,0-.97.14-1.37.41-.41.27-.7.67-.87,1.19-.18.52-.26,1.37-.26,2.57v6.06h-3.3v-12.47Z"/><path class="cls-5" d="m40.67,247.27v-3.05h3.3v3.05h-3.3Zm0,14.16v-12.47h3.3v12.47h-3.3Z"/><path class="cls-5" d="m47.1,248.96h3.04v1.7c1.09-1.32,2.38-1.98,3.89-1.98.8,0,1.49.17,2.08.49.59.33,1.07.83,1.44,1.49.55-.67,1.14-1.16,1.77-1.49.63-.33,1.31-.49,2.03-.49.92,0,1.69.19,2.32.56.63.37,1.11.92,1.42,1.64.23.53.34,1.39.34,2.58v7.97h-3.3v-7.13c0-1.24-.11-2.03-.34-2.39-.3-.47-.77-.7-1.41-.7-.46,0-.9.14-1.3.42-.41.28-.7.69-.88,1.24-.18.54-.27,1.4-.27,2.58v5.99h-3.3v-6.83c0-1.21-.06-2-.18-2.35-.12-.35-.3-.61-.55-.79-.25-.17-.58-.26-1-.26-.51,0-.97.14-1.37.41-.41.27-.7.67-.88,1.19-.18.52-.26,1.37-.26,2.57v6.06h-3.3v-12.47Z"/><path class="cls-5" d="m68.63,248.96h3.08v1.83c.4-.63.94-1.13,1.62-1.53.68-.39,1.44-.59,2.27-.59,1.45,0,2.68.57,3.69,1.7s1.51,2.72,1.51,4.74-.51,3.7-1.53,4.85c-1.02,1.16-2.25,1.73-3.7,1.73-.69,0-1.31-.14-1.87-.41-.56-.27-1.15-.74-1.77-1.41v6.28h-3.3v-17.21Zm3.26,6.02c0,1.4.28,2.44.83,3.11s1.23,1,2.03,1,1.4-.31,1.91-.92c.51-.61.76-1.62.76-3.02,0-1.31-.26-2.28-.79-2.91-.52-.63-1.17-.95-1.95-.95s-1.48.31-2.01.93c-.53.62-.8,1.54-.8,2.76Z"/><path class="cls-5" d="m86.57,261.42h-3.3v-12.47h3.06v1.77c.52-.84,1-1.39,1.42-1.66.42-.27.89-.4,1.43-.4.75,0,1.48.21,2.17.62l-1.02,2.88c-.56-.36-1.07-.54-1.55-.54s-.85.13-1.17.38c-.32.25-.57.71-.76,1.38s-.28,2.06-.28,4.18v3.85Z"/><path class="cls-5" d="m92.01,255.01c0-1.1.27-2.16.81-3.18s1.31-1.81,2.3-2.35c.99-.54,2.09-.81,3.32-.81,1.89,0,3.43.61,4.64,1.84,1.21,1.22,1.81,2.77,1.81,4.64s-.61,3.45-1.83,4.69c-1.22,1.24-2.75,1.86-4.6,1.86-1.14,0-2.23-.26-3.27-.78-1.04-.52-1.83-1.27-2.37-2.27s-.81-2.21-.81-3.64Zm3.38.18c0,1.24.29,2.18.88,2.84s1.31.99,2.17.99,1.58-.33,2.17-.99.88-1.61.88-2.86-.29-2.16-.88-2.82-1.3-.99-2.17-.99-1.58.33-2.17.99-.88,1.6-.88,2.84Z"/><path class="cls-5" d="m110.88,261.42l-5.02-12.47h3.46l2.35,6.36.68,2.12c.18-.54.29-.9.34-1.07.11-.35.23-.7.35-1.06l2.37-6.36h3.39l-4.95,12.47h-2.97Z"/><path class="cls-5" d="m128.04,257.46l3.29.55c-.42,1.21-1.09,2.12-2,2.75-.91.63-2.05.95-3.42.95-2.17,0-3.77-.71-4.81-2.12-.82-1.13-1.23-2.57-1.23-4.3,0-2.07.54-3.68,1.62-4.85,1.08-1.17,2.45-1.75,4.1-1.75,1.85,0,3.32.61,4.39,1.84,1.07,1.22,1.58,3.1,1.54,5.63h-8.26c.02.98.29,1.74.8,2.28s1.14.82,1.9.82c.52,0,.95-.14,1.3-.42.35-.28.62-.74.8-1.36Zm.19-3.33c-.02-.96-.27-1.68-.74-2.18s-1.04-.75-1.71-.75c-.72,0-1.31.26-1.78.79s-.7,1.24-.69,2.14h4.93Z"/><path class="cls-5" d="m133.95,248.96h3.04v1.7c1.09-1.32,2.38-1.98,3.89-1.98.8,0,1.49.17,2.08.49.59.33,1.07.83,1.44,1.49.55-.67,1.14-1.16,1.77-1.49.63-.33,1.31-.49,2.03-.49.92,0,1.69.19,2.32.56.63.37,1.11.92,1.42,1.64.23.53.34,1.39.34,2.58v7.97h-3.3v-7.13c0-1.24-.11-2.03-.34-2.39-.3-.47-.77-.7-1.41-.7-.46,0-.9.14-1.3.42-.41.28-.7.69-.88,1.24-.18.54-.27,1.4-.27,2.58v5.99h-3.3v-6.83c0-1.21-.06-2-.18-2.35-.12-.35-.3-.61-.55-.79-.25-.17-.58-.26-1-.26-.51,0-.97.14-1.37.41-.41.27-.7.67-.88,1.19-.18.52-.26,1.37-.26,2.57v6.06h-3.3v-12.47Z"/><path class="cls-5" d="m162.79,257.46l3.29.55c-.42,1.21-1.09,2.12-2,2.75-.91.63-2.05.95-3.42.95-2.17,0-3.77-.71-4.81-2.12-.82-1.13-1.23-2.57-1.23-4.3,0-2.07.54-3.68,1.62-4.85,1.08-1.17,2.45-1.75,4.1-1.75,1.85,0,3.32.61,4.39,1.84,1.07,1.22,1.58,3.1,1.54,5.63h-8.26c.02.98.29,1.74.8,2.28s1.14.82,1.9.82c.52,0,.95-.14,1.3-.42.35-.28.62-.74.8-1.36Zm.19-3.33c-.02-.96-.27-1.68-.74-2.18s-1.04-.75-1.71-.75c-.72,0-1.31.26-1.78.79s-.7,1.24-.69,2.14h4.93Z"/><path class="cls-5" d="m180.29,261.42h-3.3v-6.36c0-1.35-.07-2.22-.21-2.61-.14-.4-.37-.7-.69-.92-.32-.22-.7-.33-1.14-.33-.57,0-1.08.16-1.54.47-.45.31-.76.73-.93,1.24-.17.52-.25,1.47-.25,2.86v5.65h-3.3v-12.47h3.06v1.83c1.09-1.41,2.46-2.11,4.11-2.11.73,0,1.39.13,2,.39.6.26,1.06.6,1.37,1s.52.87.65,1.38.18,1.26.18,2.22v7.75Z"/><path class="cls-5" d="m189.35,248.96v2.63h-2.25v5.02c0,1.02.02,1.61.06,1.78.04.17.14.31.29.42.15.11.34.17.56.17.31,0,.75-.11,1.33-.32l.28,2.56c-.77.33-1.64.49-2.61.49-.59,0-1.13-.1-1.61-.3-.48-.2-.83-.46-1.05-.77-.22-.32-.38-.75-.46-1.29-.07-.38-.11-1.16-.11-2.32v-5.44h-1.51v-2.63h1.51v-2.48l3.31-1.92v4.4h2.25Z"/><path class="cls-5" d="m402.66,232.57h-3.78l-1.5-3.91h-6.88l-1.42,3.91h-3.69l6.7-17.21h3.67l6.89,17.21Zm-6.4-6.81l-2.37-6.39-2.32,6.39h4.7Z"/><path class="cls-5" d="m415.35,223.79l-3.25.59c-.11-.65-.36-1.14-.75-1.47-.39-.33-.89-.49-1.51-.49-.82,0-1.48.28-1.97.85-.49.57-.73,1.52-.73,2.85,0,1.48.25,2.52.75,3.13s1.16.92,2,.92c.63,0,1.14-.18,1.54-.53.4-.36.68-.97.84-1.84l3.24.55c-.34,1.49-.98,2.61-1.94,3.37-.96.76-2.24,1.14-3.84,1.14-1.82,0-3.28-.58-4.36-1.73s-1.63-2.74-1.63-4.78.54-3.66,1.63-4.81,2.56-1.72,4.41-1.72c1.52,0,2.73.33,3.62.98.9.65,1.54,1.65,1.93,2.99Z"/><path class="cls-5" d="m423.57,220.11v2.63h-2.25v5.02c0,1.02.02,1.61.06,1.78.04.17.14.31.29.42.15.11.34.17.56.17.31,0,.75-.11,1.33-.32l.28,2.56c-.77.33-1.64.49-2.61.49-.59,0-1.13-.1-1.61-.3-.48-.2-.83-.46-1.05-.77-.22-.32-.38-.75-.46-1.29-.07-.38-.11-1.16-.11-2.32v-5.44h-1.51v-2.63h1.51v-2.48l3.31-1.92v4.4h2.25Z"/><path class="cls-5" d="m425.85,218.42v-3.05h3.3v3.05h-3.3Zm0,14.16v-12.47h3.3v12.47h-3.3Z"/><path class="cls-5" d="m435.96,232.57l-5.02-12.47h3.46l2.35,6.36.68,2.12c.18-.54.29-.9.34-1.07.11-.35.23-.7.35-1.06l2.37-6.36h3.39l-4.95,12.47h-2.97Z"/><path class="cls-5" d="m445.91,218.42v-3.05h3.3v3.05h-3.3Zm0,14.16v-12.47h3.3v12.47h-3.3Z"/><path class="cls-5" d="m458.3,220.11v2.63h-2.25v5.02c0,1.02.02,1.61.06,1.78.04.17.14.31.29.42.15.11.34.17.56.17.3,0,.75-.11,1.33-.32l.28,2.56c-.77.33-1.64.49-2.61.49-.59,0-1.13-.1-1.61-.3s-.83-.46-1.05-.77c-.22-.32-.38-.75-.46-1.29-.07-.38-.11-1.16-.11-2.32v-5.44h-1.51v-2.63h1.51v-2.48l3.31-1.92v4.4h2.25Z"/><path class="cls-5" d="m460.59,218.42v-3.05h3.3v3.05h-3.3Zm0,14.16v-12.47h3.3v12.47h-3.3Z"/><path class="cls-5" d="m474.49,228.6l3.29.55c-.42,1.21-1.09,2.12-2,2.75-.91.63-2.05.95-3.42.95-2.17,0-3.77-.71-4.81-2.12-.82-1.13-1.23-2.57-1.23-4.3,0-2.07.54-3.68,1.62-4.85,1.08-1.17,2.45-1.75,4.1-1.75,1.85,0,3.32.61,4.39,1.84,1.07,1.22,1.58,3.1,1.54,5.63h-8.26c.02.98.29,1.74.8,2.28s1.14.82,1.9.82c.52,0,.95-.14,1.3-.42.35-.28.62-.74.8-1.36Zm.19-3.33c-.02-.96-.27-1.68-.74-2.18s-1.04-.75-1.71-.75c-.72,0-1.31.26-1.78.79s-.7,1.24-.69,2.14h4.93Z"/><path class="cls-5" d="m479.48,229.02l3.31-.5c.14.64.43,1.13.86,1.46.43.33,1.03.5,1.81.5.85,0,1.49-.16,1.92-.47.29-.22.43-.51.43-.88,0-.25-.08-.46-.24-.62-.16-.16-.53-.3-1.1-.43-2.66-.59-4.35-1.12-5.06-1.61-.99-.67-1.48-1.61-1.48-2.81,0-1.08.43-1.99,1.28-2.72.85-.74,2.18-1.1,3.97-1.1s2.97.28,3.8.83c.83.56,1.4,1.38,1.71,2.46l-3.11.58c-.13-.49-.38-.86-.76-1.12-.37-.26-.9-.39-1.59-.39-.87,0-1.49.12-1.87.36-.25.17-.38.4-.38.67,0,.24.11.43.33.6.3.22,1.32.53,3.08.93s2.98.89,3.68,1.47c.69.59,1.03,1.4,1.03,2.45,0,1.14-.48,2.12-1.43,2.95-.96.82-2.37,1.23-4.24,1.23-1.7,0-3.04-.34-4.03-1.03-.99-.69-1.64-1.62-1.94-2.81Z"/><path class="cls-5" d="m362.99,255.01c0-1.1.27-2.16.81-3.18s1.3-1.81,2.29-2.35,2.1-.81,3.32-.81c1.89,0,3.43.61,4.64,1.84,1.21,1.22,1.81,2.77,1.81,4.64s-.61,3.45-1.83,4.69-2.75,1.86-4.6,1.86c-1.14,0-2.23-.26-3.27-.78s-1.83-1.27-2.37-2.27-.81-2.21-.81-3.64Zm3.38.18c0,1.24.29,2.18.88,2.84s1.31.99,2.17.99,1.58-.33,2.17-.99.87-1.61.87-2.86-.29-2.16-.87-2.82-1.31-.99-2.17-.99-1.58.33-2.17.99-.88,1.6-.88,2.84Z"/><path class="cls-5" d="m377,248.96h1.83v-.94c0-1.05.11-1.83.33-2.35.22-.52.63-.94,1.23-1.26.6-.33,1.36-.49,2.27-.49s1.86.14,2.76.42l-.45,2.3c-.52-.12-1.03-.19-1.51-.19s-.82.11-1.03.33c-.21.22-.31.65-.31,1.29v.88h2.47v2.59h-2.47v9.87h-3.3v-9.87h-1.83v-2.59Z"/><path class="cls-5" d="m404.56,261.42h-3.06v-1.83c-.51.71-1.11,1.24-1.8,1.59-.69.35-1.39.52-2.1.52-1.43,0-2.66-.58-3.68-1.73-1.02-1.15-1.53-2.76-1.53-4.83s.5-3.72,1.49-4.82c.99-1.1,2.25-1.65,3.77-1.65,1.39,0,2.6.58,3.62,1.74v-6.2h3.3v17.21Zm-8.8-6.5c0,1.33.18,2.29.55,2.89.53.86,1.28,1.29,2.23,1.29.76,0,1.4-.32,1.94-.97s.8-1.61.8-2.89c0-1.43-.26-2.46-.78-3.09-.52-.63-1.18-.94-1.98-.94s-1.44.31-1.97.93c-.53.62-.79,1.55-.79,2.79Z"/><path class="cls-5" d="m410.28,252.76l-2.99-.54c.34-1.21.92-2.1,1.74-2.68.82-.58,2.04-.87,3.66-.87,1.47,0,2.57.17,3.29.52.72.35,1.23.79,1.52,1.33.29.54.44,1.52.44,2.95l-.04,3.85c0,1.1.05,1.9.16,2.42.11.52.3,1.08.59,1.67h-3.26c-.09-.22-.19-.54-.32-.97-.05-.2-.09-.32-.12-.39-.56.55-1.17.96-1.81,1.23-.64.27-1.33.41-2.05.41-1.28,0-2.29-.35-3.03-1.04-.74-.7-1.11-1.58-1.11-2.64,0-.7.17-1.33.5-1.88.34-.55.81-.97,1.41-1.27.61-.29,1.48-.55,2.62-.77,1.54-.29,2.61-.56,3.21-.81v-.33c0-.63-.16-1.09-.47-1.36-.31-.27-.9-.4-1.77-.4-.59,0-1.04.12-1.37.35-.33.23-.59.64-.8,1.22Zm4.41,2.68c-.42.14-1.09.31-2.01.5-.92.2-1.51.39-1.8.58-.43.31-.65.69-.65,1.16s.17.86.52,1.2c.34.34.78.5,1.31.5.59,0,1.16-.2,1.7-.59.4-.3.66-.66.79-1.09.09-.28.13-.82.13-1.61v-.66Z"/><path class="cls-5" d="m421.18,247.27v-3.05h3.3v3.05h-3.3Zm0,14.16v-12.47h3.3v12.47h-3.3Z"/><path class="cls-5" d="m427.86,261.42v-17.21h3.3v17.21h-3.3Z"/><path class="cls-5" d="m432.98,248.96h3.51l2.98,8.85,2.91-8.85h3.42l-4.4,12-.79,2.17c-.29.73-.57,1.28-.83,1.67-.26.38-.56.69-.9.93-.34.24-.76.42-1.26.56-.5.13-1.06.2-1.68.2s-1.26-.07-1.87-.2l-.29-2.58c.52.1.98.15,1.4.15.77,0,1.33-.22,1.7-.67.37-.45.65-1.02.85-1.72l-4.74-12.5Z"/><path class="cls-5" d="m454.59,261.42v-17.21h3.3v17.21h-3.3Z"/><path class="cls-5" d="m461.27,247.27v-3.05h3.3v3.05h-3.3Zm0,14.16v-12.47h3.3v12.47h-3.3Z"/><path class="cls-5" d="m471.38,261.42l-5.02-12.47h3.46l2.35,6.36.68,2.12c.18-.54.29-.9.34-1.07.11-.35.23-.7.35-1.06l2.37-6.36h3.39l-4.95,12.47h-2.97Z"/><path class="cls-5" d="m481.32,247.27v-3.05h3.3v3.05h-3.3Zm0,14.16v-12.47h3.3v12.47h-3.3Z"/><path class="cls-5" d="m499.34,261.42h-3.3v-6.36c0-1.35-.07-2.22-.21-2.61s-.37-.7-.69-.92c-.32-.22-.7-.33-1.14-.33-.57,0-1.08.16-1.54.47-.45.31-.76.73-.93,1.24-.17.52-.25,1.47-.25,2.86v5.65h-3.3v-12.47h3.06v1.83c1.09-1.41,2.46-2.11,4.11-2.11.73,0,1.39.13,2,.39.6.26,1.06.6,1.37,1,.31.41.52.87.65,1.38s.18,1.26.18,2.22v7.75Z"/><path class="cls-5" d="m502.38,262.24l3.77.46c.06.44.21.74.43.9.31.23.81.35,1.48.35.86,0,1.51-.13,1.94-.39.29-.17.51-.45.66-.83.1-.27.15-.78.15-1.51v-1.82c-.99,1.35-2.23,2.02-3.73,2.02-1.67,0-3-.71-3.98-2.12-.77-1.12-1.15-2.51-1.15-4.18,0-2.09.5-3.69,1.51-4.79,1.01-1.1,2.26-1.66,3.75-1.66s2.81.68,3.82,2.03v-1.75h3.09v11.19c0,1.47-.12,2.57-.36,3.3-.24.73-.58,1.3-1.02,1.71-.44.41-1.02.74-1.75.97-.73.24-1.66.35-2.78.35-2.11,0-3.61-.36-4.5-1.09-.88-.72-1.33-1.64-1.33-2.75,0-.11,0-.24.01-.4Zm2.95-7.31c0,1.32.26,2.29.77,2.91s1.14.92,1.9.92c.81,0,1.49-.31,2.04-.94s.83-1.56.83-2.8-.27-2.25-.8-2.88c-.53-.63-1.21-.94-2.02-.94s-1.44.31-1.96.92c-.51.62-.77,1.55-.77,2.81Z"/><path class="cls-5" d="m729.18,226.97l3.38-.33c.2,1.14.62,1.97,1.24,2.5s1.46.8,2.52.8c1.12,0,1.96-.24,2.53-.71s.85-1.03.85-1.66c0-.41-.12-.75-.36-1.04-.24-.29-.66-.53-1.25-.75-.41-.14-1.33-.39-2.78-.75-1.86-.46-3.17-1.03-3.92-1.7-1.06-.95-1.58-2.1-1.58-3.46,0-.88.25-1.7.75-2.46s1.21-1.34,2.15-1.74c.93-.4,2.06-.6,3.39-.6,2.16,0,3.79.47,4.88,1.42,1.09.95,1.66,2.21,1.72,3.79l-3.48.15c-.15-.88-.47-1.52-.96-1.91-.49-.39-1.22-.58-2.2-.58s-1.8.21-2.37.62c-.37.27-.55.62-.55,1.07,0,.41.17.75.52,1.04.44.37,1.5.75,3.19,1.15s2.94.81,3.75,1.24c.81.43,1.44,1.01,1.9,1.75s.69,1.65.69,2.74c0,.99-.27,1.91-.82,2.77-.55.86-1.32,1.5-2.32,1.92-1,.42-2.25.63-3.75.63-2.18,0-3.85-.5-5.01-1.51s-1.86-2.47-2.09-4.4Z"/><path class="cls-5" d="m745.31,226.16c0-1.1.27-2.16.81-3.18s1.3-1.81,2.29-2.35,2.1-.81,3.32-.81c1.89,0,3.43.61,4.64,1.84,1.21,1.22,1.81,2.77,1.81,4.64s-.61,3.45-1.83,4.69-2.75,1.86-4.6,1.86c-1.14,0-2.23-.26-3.27-.78s-1.83-1.27-2.37-2.27-.81-2.21-.81-3.64Zm3.38.18c0,1.24.29,2.18.88,2.84s1.31.99,2.17.99,1.58-.33,2.17-.99.88-1.61.88-2.86-.29-2.16-.88-2.82-1.3-.99-2.17-.99-1.58.33-2.17.99-.88,1.6-.88,2.84Z"/><path class="cls-5" d="m771.63,223.79l-3.25.59c-.11-.65-.36-1.14-.75-1.47-.39-.33-.89-.49-1.51-.49-.82,0-1.48.28-1.97.85-.49.57-.73,1.52-.73,2.85,0,1.48.25,2.52.75,3.13s1.16.92,2,.92c.63,0,1.14-.18,1.54-.53.4-.36.68-.97.85-1.84l3.24.55c-.34,1.49-.98,2.61-1.94,3.37-.96.76-2.23,1.14-3.84,1.14-1.82,0-3.28-.58-4.36-1.73s-1.63-2.74-1.63-4.78.54-3.66,1.63-4.81,2.56-1.72,4.41-1.72c1.52,0,2.72.33,3.62.98s1.54,1.65,1.93,2.99Z"/><path class="cls-5" d="m774.13,218.42v-3.05h3.3v3.05h-3.3Zm0,14.16v-12.47h3.3v12.47h-3.3Z"/><path class="cls-5" d="m783.27,223.91l-2.99-.54c.34-1.21.92-2.1,1.74-2.68.82-.58,2.04-.87,3.66-.87,1.47,0,2.57.17,3.29.52.72.35,1.23.79,1.52,1.33.29.54.44,1.52.44,2.95l-.04,3.85c0,1.1.05,1.9.16,2.42.11.52.3,1.08.59,1.67h-3.26c-.09-.22-.19-.54-.32-.97-.05-.2-.09-.32-.12-.39-.56.55-1.17.96-1.81,1.23-.64.27-1.33.41-2.05.41-1.28,0-2.29-.35-3.03-1.04-.74-.7-1.11-1.58-1.11-2.64,0-.7.17-1.33.5-1.88.34-.55.81-.97,1.42-1.27.61-.29,1.48-.55,2.62-.77,1.54-.29,2.61-.56,3.2-.81v-.33c0-.63-.16-1.09-.47-1.36-.31-.27-.9-.4-1.77-.4-.59,0-1.04.12-1.37.35-.33.23-.59.64-.8,1.22Zm4.41,2.68c-.42.14-1.09.31-2.01.5-.92.2-1.51.39-1.8.58-.43.31-.65.69-.65,1.16s.17.86.52,1.2c.34.34.78.5,1.32.5.59,0,1.16-.2,1.7-.59.4-.3.66-.66.79-1.09.09-.28.13-.82.13-1.61v-.66Z"/><path class="cls-5" d="m794.18,232.57v-17.21h3.3v17.21h-3.3Z"/><path class="cls-5" d="m704,247.27v-3.05h3.3v3.05h-3.3Zm0,14.16v-12.47h3.3v12.47h-3.3Z"/><path class="cls-5" d="m722.02,261.42h-3.3v-6.36c0-1.35-.07-2.22-.21-2.61s-.37-.7-.69-.92c-.32-.22-.7-.33-1.14-.33-.57,0-1.08.16-1.54.47-.45.31-.76.73-.93,1.24-.17.52-.25,1.47-.25,2.86v5.65h-3.3v-12.47h3.06v1.83c1.09-1.41,2.46-2.11,4.11-2.11.73,0,1.39.13,2,.39.6.26,1.06.6,1.37,1,.31.41.52.87.65,1.38s.18,1.26.18,2.22v7.75Z"/><path class="cls-5" d="m731.08,248.96v2.63h-2.25v5.02c0,1.02.02,1.61.06,1.78.04.17.14.31.29.42.15.11.34.17.56.17.3,0,.75-.11,1.33-.32l.28,2.56c-.77.33-1.64.49-2.61.49-.59,0-1.13-.1-1.61-.3s-.83-.46-1.05-.77c-.22-.32-.38-.75-.46-1.29-.07-.38-.11-1.16-.11-2.32v-5.44h-1.51v-2.63h1.51v-2.48l3.31-1.92v4.4h2.25Z"/><path class="cls-5" d="m740.59,257.46l3.29.55c-.42,1.21-1.09,2.12-2,2.75-.91.63-2.05.95-3.42.95-2.17,0-3.77-.71-4.81-2.12-.82-1.13-1.23-2.57-1.23-4.3,0-2.07.54-3.68,1.62-4.85,1.08-1.17,2.45-1.75,4.1-1.75,1.85,0,3.32.61,4.39,1.84,1.07,1.22,1.58,3.1,1.54,5.63h-8.26c.02.98.29,1.74.8,2.28s1.14.82,1.9.82c.52,0,.95-.14,1.3-.42.35-.28.62-.74.8-1.36Zm.19-3.33c-.02-.96-.27-1.68-.74-2.18s-1.04-.75-1.71-.75c-.72,0-1.31.26-1.78.79s-.7,1.24-.69,2.14h4.93Z"/><path class="cls-5" d="m749.9,261.42h-3.3v-12.47h3.06v1.77c.52-.84,1-1.39,1.42-1.66.42-.27.89-.4,1.43-.4.75,0,1.48.21,2.17.62l-1.02,2.88c-.56-.36-1.07-.54-1.55-.54s-.85.13-1.17.38c-.32.25-.57.71-.76,1.38s-.28,2.06-.28,4.18v3.85Z"/><path class="cls-5" d="m758.56,252.76l-2.99-.54c.34-1.21.92-2.1,1.74-2.68.82-.58,2.04-.87,3.66-.87,1.47,0,2.57.17,3.29.52.72.35,1.23.79,1.52,1.33.29.54.44,1.52.44,2.95l-.04,3.85c0,1.1.05,1.9.16,2.42.11.52.3,1.08.59,1.67h-3.26c-.09-.22-.19-.54-.32-.97-.05-.2-.09-.32-.12-.39-.56.55-1.17.96-1.81,1.23-.64.27-1.33.41-2.05.41-1.28,0-2.29-.35-3.03-1.04-.74-.7-1.11-1.58-1.11-2.64,0-.7.17-1.33.5-1.88.34-.55.81-.97,1.42-1.27.61-.29,1.48-.55,2.62-.77,1.54-.29,2.61-.56,3.2-.81v-.33c0-.63-.16-1.09-.47-1.36-.31-.27-.9-.4-1.77-.4-.59,0-1.04.12-1.37.35-.33.23-.59.64-.8,1.22Zm4.41,2.68c-.42.14-1.09.31-2.01.5-.92.2-1.51.39-1.8.58-.43.31-.65.69-.65,1.16s.17.86.52,1.2c.34.34.78.5,1.32.5.59,0,1.16-.2,1.7-.59.4-.3.66-.66.79-1.09.09-.28.13-.82.13-1.61v-.66Z"/><path class="cls-5" d="m780.34,252.64l-3.25.59c-.11-.65-.36-1.14-.75-1.47-.39-.33-.89-.49-1.51-.49-.82,0-1.48.28-1.97.85-.49.57-.73,1.52-.73,2.85,0,1.48.25,2.52.75,3.13s1.16.92,2,.92c.63,0,1.14-.18,1.54-.53.4-.36.68-.97.85-1.84l3.24.55c-.34,1.49-.98,2.61-1.94,3.37-.96.76-2.23,1.14-3.84,1.14-1.82,0-3.28-.58-4.36-1.73s-1.63-2.74-1.63-4.78.54-3.66,1.63-4.81,2.56-1.72,4.41-1.72c1.52,0,2.72.33,3.62.98s1.54,1.65,1.93,2.99Z"/><path class="cls-5" d="m788.55,248.96v2.63h-2.25v5.02c0,1.02.02,1.61.06,1.78.04.17.14.31.29.42.15.11.34.17.56.17.3,0,.75-.11,1.33-.32l.28,2.56c-.77.33-1.64.49-2.61.49-.59,0-1.13-.1-1.61-.3s-.83-.46-1.05-.77c-.22-.32-.38-.75-.46-1.29-.07-.38-.11-1.16-.11-2.32v-5.44h-1.51v-2.63h1.51v-2.48l3.31-1.92v4.4h2.25Z"/><path class="cls-5" d="m790.84,247.27v-3.05h3.3v3.05h-3.3Zm0,14.16v-12.47h3.3v12.47h-3.3Z"/><path class="cls-5" d="m796.76,255.01c0-1.1.27-2.16.81-3.18s1.3-1.81,2.29-2.35,2.1-.81,3.32-.81c1.89,0,3.43.61,4.64,1.84,1.21,1.22,1.81,2.77,1.81,4.64s-.61,3.45-1.83,4.69-2.75,1.86-4.6,1.86c-1.14,0-2.23-.26-3.27-.78s-1.83-1.27-2.37-2.27-.81-2.21-.81-3.64Zm3.38.18c0,1.24.29,2.18.88,2.84s1.31.99,2.17.99,1.58-.33,2.17-.99.88-1.61.88-2.86-.29-2.16-.88-2.82-1.3-.99-2.17-.99-1.58.33-2.17.99-.88,1.6-.88,2.84Z"/><path class="cls-5" d="m823.55,261.42h-3.3v-6.36c0-1.35-.07-2.22-.21-2.61s-.37-.7-.69-.92c-.32-.22-.7-.33-1.14-.33-.57,0-1.08.16-1.54.47-.45.31-.76.73-.93,1.24-.17.52-.25,1.47-.25,2.86v5.65h-3.3v-12.47h3.06v1.83c1.09-1.41,2.46-2.11,4.11-2.11.73,0,1.39.13,2,.39.6.26,1.06.6,1.37,1,.31.41.52.87.65,1.38s.18,1.26.18,2.22v7.75Z"/><path class="cls-5" d="m148.54,52.83c-13.04,0-17.68,18.39-19.34,31.12l-5.8-5.67V30.23c0-3.54-2.93-6.41-6.55-6.41s-6.55,2.87-6.55,6.41v48.53l-5.31,5.2c-1.65-12.73-6.3-31.12-19.34-31.12-7.14-.65-67.69,18.09-50.69,108.98.9,4.85,3.64,12.96,14.25,13.93,10.6.97,55.64-18.44,56.58-42.26.47-11.94.24-29.72.15-35.63l11.16-10.91,11.16,10.91c-.09,5.91-.32,23.69.15,35.63.94,23.82,45.97,43.23,56.58,42.26,10.6-.97,13.34-9.08,14.25-13.93,17-90.9-43.55-109.63-50.69-108.98"/><path class="cls-3" d="m185.55,127.72c-1.65-1.61-4.32-1.61-5.97,0l-8.19,8.01v-38.41c0-2.28-1.89-4.13-4.22-4.13s-4.22,1.84-4.22,4.13v38.04l-8.19-8.01c-1.65-1.61-4.32-1.61-5.97,0-1.65,1.61-1.65,4.23,0,5.84l15.59,15.24c.79.77,1.87,1.21,2.98,1.21s2.2-.44,2.98-1.21l15.2-14.87c1.65-1.61,1.65-4.23,0-5.84"/><path class="cls-3" d="m53.25,98.59c1.65,1.61,4.32,1.61,5.97,0l8.19-8.01v38.41c0,2.28,1.89,4.13,4.22,4.13s4.22-1.85,4.22-4.13v-38.04l8.19,8.01c1.65,1.61,4.32,1.61,5.97,0,1.65-1.61,1.65-4.23,0-5.84l-15.59-15.24c-.79-.77-1.87-1.21-2.98-1.21s-2.2.44-2.98,1.21l-15.2,14.87c-1.65,1.61-1.65,4.23,0,5.84"/><path class="cls-6" d="m506.52,169.18c1.05,2.38-.03,5.16-2.41,6.2-2.38,1.05-5.16-.03-6.2-2.41l-7.46-16.96-3.52,16.07c-.55,2.54-3.06,4.15-5.6,3.59-2.54-.55-4.15-3.06-3.59-5.6l3.62-16.54c-5.38-.56-11.89-1.87-17.3-3.5l4.72,19.96c.6,2.53-.96,5.06-3.49,5.66-2.53.6-5.06-.97-5.66-3.49l-5.6-23.68-5.16,23.6c-.56,2.54-3.06,4.15-5.6,3.59-2.54-.55-4.15-3.06-3.59-5.6l5.83-26.65v-13.58c-5.96-1.34-11.24-4.44-14.81-8.85-1.12-1.38-.91-3.41.47-4.53,1.38-1.12,3.41-.91,4.53.47,2.9,3.57,7.37,6.11,12.42,6.97,9.88,0,34.07.05,35.21,0,.81-.86,1.63-1.72,2.46-2.58l17.23,13.24-5.27,14.66,8.78,19.96Zm19.57-46.51l-7.71,8.06-13.31-1.91-1.01,2.82-50.26-38.67c-1.25.83-2.75,1.31-4.36,1.31h-27.4l-9.21-11.65v35.22l14.34,45c1.66,5.22-1.22,10.8-6.44,12.46-5.22,1.66-10.8-1.22-12.46-6.44l-13.15-41.24-13.15,41.24c-1.66,5.22-7.24,8.1-12.46,6.44-5.22-1.66-8.1-7.24-6.44-12.46l13.96-43.79v-56.58c-.99-6.62,5.81-15.9,18.09-15.92,7.76,0,12.61,3.78,15.85,8.12,3.25,4.34,15.7,19.87,18.74,23.73h19.71c4.38,0,7.93,3.55,7.93,7.94,0,.88-.17,1.71-.44,2.5l34.65,26.63c1.79-1.77,3.48-3.42,4.94-4.82l-6.6-3.77c9.64-2.69,22.42.88,25.29,2.75l2.66,6.22,8.22,6.82ZM375.26,19.86c0-11.02,8.88-19.86,19.86-19.86s19.87,8.84,19.87,19.86-8.89,19.87-19.87,19.87-19.86-8.85-19.86-19.87m-19.34,92.39c-3.9-2-5.44-6.78-3.44-10.68l18.65-36.39v34.79l-4.53,8.83c-2,3.9-6.78,5.44-10.68,3.44"/><path class="cls-5" d="m826.21,135.08c6.79-2.27,13.56-4.51,20.31-6.81.5-.17.86-.82,1.29-1.24-.58-.08-1.22-.37-1.74-.2-6.23,2.03-12.44,4.13-18.66,6.18-1.02.34-1.55.88-1.2,2.07m.16-14.16c4.42-1.42,8.7-2.71,12.92-4.19,1.16-.41,2.32-3.52,1.65-4.52-.51-.76-1.73-1.13-2.7-1.31-.82-.15-1.78.06-2.59.38-4.01,1.54-8.06,2.32-12.29,1.21-.35-.09-.74-.01-1.62-.01,3.21,1.98,4.19,4.88,4.64,8.44m-17.86-3.12c-.48,9.83-.93,19.01-1.39,28.48,2.69-.98,5.11-1.84,7.53-2.74,4.11-1.53,5.13-3.03,5.39-8.03-.35,0-.69.03-1.03,0-3.4-.33-5.54-2.99-5.35-6.65.15-2.98,1.62-4.56,5.4-5.75.98-.31,2.06-.4,1.74-2.04-.3-1.55-.43-3.22-2.39-3.25-3.22-.05-6.43-.01-9.88-.01m-59.75-13.97h60.27v8.13h11.45c-1.22-1.14-2.55-2.19-3.66-3.46-1.56-1.79-1.7-4.09-.62-6.29.81-1.66,2.26-2.26,4.67-1.91,3.71.54,7.32.44,10.98-.77,6.31-2.08,12.56-.74,18.73,1.12,4.6,1.39,9.17,2.92,13.8,4.22,5.81,1.63,11.68,2.02,17.92.16,1.41,13.55,2.8,26.95,4.22,40.56-5.25,1.63-9.21,5.32-13.26,8.99-2.01,1.82-4.52,3.2-7.01,4.16-5.34,2.05-10.82,3.7-16.24,5.53-2.33.78-4.39.26-6.14-1.53-2.85-2.9-2.19-6.82,1.45-8.33,2.17-.9,4.45-1.51,6.65-2.34.54-.2.96-.76,1.43-1.15-.62-.09-1.29-.4-1.84-.22-3.44,1.07-6.85,2.26-10.28,3.39-3.07,1.02-6.35-1.05-7.02-4.41-.54-2.7.65-4.79,3.39-5.71,3.71-1.24,7.45-2.37,11.18-3.55.4-.13.84-.2,1.18-.43.24-.17.33-.58.49-.89-.29-.16-.58-.44-.87-.44-.4,0-.81.19-1.21.32-5.05,1.6-10.09,3.21-15.13,4.82-4.84,1.55-5.72,1.17-8.31-3.69-.23.59-.48,1.05-.62,1.56-.97,3.69-3.31,5.86-6.58,7.05-3.17,1.15-6.32,2.37-9.52,3.43-1.11.37-1.45.93-1.54,2.16-.2,2.69-.46,5.4-.98,8.04-1.46,7.35-5.68,12.39-12.58,12.89-9.46.68-19.04.79-28.48-.06-7.89-.71-12.28-6.84-13.06-16.17-.68-8.1-.99-16.23-1.42-24.35-.5-9.6-.95-19.21-1.42-28.81-.03-.58,0-1.15,0-2.02"/><path class="cls-4" d="m692.74,53.25c3,1.05,5.98,1.99,9.14,2.99.57.18,1.13.36,1.7.54.26-1.19.65-2.39,1.25-3.52-.3.01-.59.02-.89.02-2.74,0-5.55-.59-8.83-1.85-.53-.2-1.03-.32-1.42-.32-.1,0-.19,0-.27.02-.73.13-1.17.31-1.39.44.08.52.43,1.39.71,1.68m20.54,22.4c.34,2.59,1.2,3.34,4.02,4.38,1.63.6,3.27,1.2,4.98,1.82,0,0,.02,0,.02.01l-1.16-23.8c-.46,0-.91,0-1.35,0-.97,0-1.93,0-2.88,0-1.52,0-2.77,0-3.92.02-.15,0-.22.02-.26.03-.12.2-.25.86-.32,1.26,0,.02,0,.05-.01.07.02,0,.03,0,.05.01.13.04.25.07.38.11,3.17,1,6.44,2.67,6.69,7.51.22,4.41-2.31,7.83-6.23,8.57m39.43,40.38c-4.63,0-9.54-.18-14.61-.55-7.32-.53-12.5-5.78-14.22-14.42-.57-2.87-.84-5.8-1.02-8.29-.01-.18-.03-.3-.05-.37-.05-.02-.12-.05-.23-.09-2.32-.77-4.64-1.63-6.89-2.46-.89-.33-1.78-.66-2.67-.98-3.33-1.22-5.68-3.33-7.01-6.29-1.09,1.42-2.36,2.28-4.22,2.28-.95,0-1.97-.22-3.22-.58.48,1.21.6,2.61.29,4.13-.72,3.59-3.73,6.21-7.18,6.21-.4,0-.79-.04-1.19-.11.2.46.35.94.45,1.45.42,2.28-.4,4.65-2.23,6.51-1.57,1.6-3.37,2.41-5.35,2.41-.83,0-1.69-.15-2.57-.44-1.64-.55-3.32-1.1-4.94-1.63-3.74-1.22-7.61-2.48-11.37-3.92-2.96-1.14-5.58-2.69-7.57-4.5l-.34-.31c-3.87-3.52-7.52-6.84-12.26-8.31l-1.46-.45,4.62-44.45,2.03.61c2.63.79,5.23,1.17,7.95,1.17,2.88,0,5.84-.44,9.04-1.33,2.83-.79,5.7-1.7,8.47-2.57,1.73-.54,3.52-1.11,5.29-1.64,3.67-1.11,8.02-2.24,12.44-2.24,2.59,0,4.98.37,7.3,1.14,2.03.67,4.11,1,6.36,1,1.23,0,2.49-.09,3.86-.29.52-.07,1.01-.11,1.47-.11,2.35,0,4.05,1.02,5.04,3.04,1.47,3,1.13,6.18-.9,8.52-.06.07-.12.14-.18.2h4.86v-8.13h63.86v1.94c0,.29,0,.55,0,.78,0,.48.01.9-.01,1.34l-.34,7c-.35,7.15-.7,14.55-1.08,21.83-.1,1.89-.19,3.77-.28,5.66-.3,6.14-.61,12.5-1.14,18.75-.89,10.63-6.25,17.16-14.7,17.92-4.49.4-9.25.61-14.14.61"/><path class="cls-3" d="m715.55,76.97c1.38-.59,2.59-1.49,3.54-2.67.37-.46.69-.95.97-1.47l.31,6.29c-.84-.3-1.66-.61-2.49-.91-1.23-.46-2.02-.88-2.33-1.24m3.97-15.33c-.47-.64-1.02-1.18-1.6-1.64.5,0,1.01,0,1.52,0l.08,1.64Zm-26.78-28.7c-4.63,0-9.13,1.17-12.93,2.31-1.78.53-3.57,1.1-5.31,1.65-2.76.87-5.62,1.77-8.42,2.55-3.05.86-5.86,1.27-8.59,1.27-2.55,0-4.99-.36-7.47-1.1l-4.06-1.21-.47,4.52-1.23,11.8-2.99,28.76-.34,3.25,2.91.91c4.37,1.35,7.88,4.54,11.6,7.92l.34.31c2.15,1.96,4.96,3.63,8.12,4.85,3.8,1.46,7.69,2.73,11.45,3.95,1.62.53,3.29,1.07,4.92,1.62,1.04.35,2.09.53,3.1.53,2.42,0,4.69-1.02,6.58-2.93,2.06-2.1,3.08-4.76,2.87-7.41,3.79-.52,6.98-3.58,7.79-7.66.14-.71.21-1.4.21-2.07.32.04.64.05.96.05,1.55,0,2.79-.47,3.81-1.2,1.59,2.31,3.88,4.02,6.84,5.1.89.32,1.77.65,2.66.98,1.97.73,3.99,1.48,6.03,2.18.19,2.34.46,4.99.98,7.61,1.9,9.55,7.68,15.36,15.86,15.94,5.1.37,10.06.55,14.73.55,4.94,0,9.74-.21,14.29-.61,4.77-.43,8.8-2.58,11.64-6.21,2.65-3.39,4.23-7.92,4.7-13.47.53-6.28.84-12.66,1.14-18.82.09-1.88.19-3.77.28-5.65.38-7.27.74-14.67,1.08-21.81.11-2.34.23-4.68.34-7.01.02-.5.02-.97.01-1.46,0-.23,0-.48,0-.76v-3.88h-67.45v1.36c-.12-.31-.25-.61-.4-.91-.91-1.86-2.8-4.07-6.62-4.07-.53,0-1.11.04-1.71.13-1.28.19-2.47.28-3.61.28-2.06,0-3.97-.3-5.84-.91-2.49-.82-5.05-1.22-7.82-1.22m12.41,40.47c.35-1.19-.19-1.73-1.2-2.07-6.22-2.05-12.43-4.16-18.66-6.18-.11-.03-.23-.05-.35-.05-.44,0-.93.19-1.39.25.42.42.79,1.07,1.29,1.24,6.75,2.31,13.53,4.55,20.31,6.81m6.84.44c-.22,0-.44,0-.66,0,.26,5,1.28,6.5,5.39,8.03,2.42.9,4.84,1.76,7.53,2.74-.46-9.47-.91-18.65-1.39-28.48-2.05,0-4.01-.01-5.94-.01-1.33,0-2.63,0-3.94.02-1.96.03-2.09,1.7-2.39,3.25-.32,1.64.76,1.73,1.74,2.04,3.78,1.19,5.24,2.77,5.4,5.75.18,3.66-1.96,6.32-5.36,6.65-.12.01-.25.01-.37.01m-7-14.6c.45-3.56,1.43-6.46,4.64-8.44-.56,0-.92-.03-1.2-.03-.16,0-.29.01-.42.04-1.38.36-2.73.52-4.07.52-2.79,0-5.52-.69-8.22-1.73-.63-.24-1.34-.43-2.02-.43-.2,0-.39.02-.58.05-.96.18-2.19.55-2.7,1.31-.67,1,.48,4.11,1.65,4.52,4.22,1.49,8.5,2.78,12.92,4.19m-12.25-22.44c2.25,0,4.51.31,6.77,1.05,2.3.76,4.59,1.08,6.89,1.08,1.36,0,2.72-.11,4.09-.31.44-.06.85-.1,1.23-.1,1.7,0,2.78.65,3.45,2.01,1.08,2.2.94,4.49-.62,6.29-1.11,1.28-2.45,2.33-3.66,3.46h11.45v-8.13h60.27c0,.86.03,1.44,0,2.01-.47,9.6-.92,19.21-1.42,28.81-.42,8.12-.74,16.25-1.42,24.34-.78,9.33-5.17,15.46-13.06,16.17-4.64.42-9.31.6-13.99.6s-9.68-.2-14.49-.54c-6.91-.49-11.12-5.54-12.58-12.89-.52-2.63-.79-5.34-.98-8.04-.09-1.23-.43-1.79-1.54-2.16-3.2-1.06-6.35-2.28-9.52-3.43-3.26-1.19-5.61-3.36-6.58-7.05-.14-.51-.38-.98-.62-1.56-1.73,3.26-2.7,4.5-4.61,4.5-.94,0-2.1-.3-3.7-.81-5.04-1.61-10.09-3.22-15.13-4.82-.4-.12-.8-.32-1.2-.32h-.01c-.29,0-.58.28-.88.44.16.3.25.72.49.89.33.24.78.31,1.18.43,3.73,1.18,7.47,2.31,11.18,3.55,2.74.92,3.93,3.02,3.39,5.71-.56,2.78-2.89,4.67-5.42,4.67-.53,0-1.07-.09-1.6-.26-3.43-1.13-6.84-2.32-10.28-3.39-.11-.04-.24-.05-.36-.05-.47,0-.99.21-1.48.28.47.39.9.95,1.43,1.16,2.2.83,4.47,1.43,6.65,2.34,3.64,1.51,4.3,5.43,1.45,8.33-1.22,1.25-2.6,1.88-4.11,1.88-.65,0-1.33-.12-2.03-.35-5.42-1.83-10.9-3.47-16.24-5.52-2.49-.96-5.01-2.34-7.01-4.16-4.05-3.68-8.01-7.37-13.26-9,1.42-13.61,2.81-27.02,4.22-40.56,2.88.86,5.68,1.24,8.43,1.24,3.21,0,6.36-.52,9.49-1.4,4.62-1.3,9.19-2.83,13.8-4.22,3.95-1.19,7.94-2.17,11.96-2.17"/></g></svg>