<?xml version="1.0" encoding="UTF-8"?><svg id="Layer_2" xmlns="http://www.w3.org/2000/svg" xmlns:xlink="http://www.w3.org/1999/xlink" viewBox="0 0 238.79 149.27"><defs><style>.cls-1,.cls-2,.cls-3,.cls-4{fill:none;}.cls-2{stroke:#0773bb;stroke-width:4.33px;}.cls-5{clip-path:url(#clippath);}.cls-3,.cls-4{stroke:#9362a6;stroke-linejoin:round;stroke-width:4.67px;}.cls-6{fill:#e8edf6;}.cls-7{fill:#fff;}.cls-8{fill:#9362a6;}.cls-9{fill:#0773bb;}.cls-4{stroke-dasharray:0 0 1.66 11.72;}.cls-10{opacity:.2;}</style><clipPath id="clippath"><rect class="cls-1" y="77.91" width="238.79" height="71.36"/></clipPath></defs><g id="Layer_1-2"><g class="cls-10"><g class="cls-5"><path class="cls-9" d="m227.9,149.27H10.89C4.88,149.27,0,144.4,0,138.38v-49.58C0,82.78,4.88,77.91,10.89,77.91h217.01c6.01,0,10.89,4.88,10.89,10.89v49.58c0,6.01-4.88,10.89-10.89,10.89"/></g></g><path class="cls-8" d="m25.03,111.4v-13.1h4.24c1.61,0,2.66.07,3.15.2.75.2,1.38.62,1.89,1.28.51.66.76,1.51.76,2.55,0,.8-.15,1.48-.44,2.03s-.66.98-1.11,1.29-.91.52-1.37.62c-.63.12-1.55.19-2.74.19h-1.72v4.94h-2.65Zm2.65-10.88v3.72h1.45c1.04,0,1.74-.07,2.09-.21s.63-.35.83-.64c.2-.29.3-.63.3-1.02,0-.48-.14-.87-.42-1.18s-.63-.5-1.06-.58c-.32-.06-.95-.09-1.9-.09h-1.28Z"/><path class="cls-8" d="m39.09,104.81l-2.28-.41c.26-.92.7-1.6,1.32-2.04.62-.44,1.55-.66,2.79-.66,1.12,0,1.95.13,2.5.4.55.27.93.6,1.16,1.01.22.41.33,1.16.33,2.25l-.03,2.93c0,.83.04,1.45.12,1.84.08.4.23.82.45,1.27h-2.48c-.07-.17-.15-.41-.24-.74-.04-.15-.07-.25-.09-.29-.43.42-.89.73-1.38.94s-1.01.31-1.56.31c-.98,0-1.75-.27-2.31-.79-.56-.53-.84-1.2-.84-2.01,0-.54.13-1.01.38-1.43.26-.42.61-.74,1.08-.97.46-.22,1.13-.42,2-.58,1.17-.22,1.99-.43,2.44-.62v-.25c0-.48-.12-.83-.36-1.03-.24-.21-.69-.31-1.35-.31-.45,0-.79.09-1.04.26s-.45.48-.61.92Zm3.36,2.04c-.32.11-.83.24-1.53.38-.7.15-1.15.29-1.37.44-.33.23-.49.53-.49.88s.13.66.39.91c.26.26.59.38,1,.38.45,0,.88-.15,1.29-.45.3-.23.5-.5.6-.83.07-.21.1-.62.1-1.22v-.5Z"/><path class="cls-8" d="m51.74,101.92v2h-1.71v3.82c0,.77.02,1.23.05,1.35s.11.23.22.32c.12.08.26.13.42.13.23,0,.57-.08,1.01-.24l.21,1.95c-.58.25-1.25.38-1.98.38-.45,0-.86-.08-1.22-.23-.36-.15-.63-.35-.8-.59s-.29-.57-.35-.98c-.05-.29-.08-.88-.08-1.77v-4.14h-1.15v-2h1.15v-1.89l2.52-1.47v3.35h1.71Z"/><path class="cls-8" d="m53.49,100.63v-2.32h2.51v2.32h-2.51Zm0,10.78v-9.49h2.51v9.49h-2.51Z"/><path class="cls-8" d="m64.06,108.38l2.5.42c-.32.92-.83,1.62-1.52,2.1-.69.48-1.56.72-2.61.72-1.65,0-2.87-.54-3.66-1.62-.63-.86-.94-1.95-.94-3.27,0-1.57.41-2.8,1.23-3.69.82-.89,1.86-1.34,3.12-1.34,1.41,0,2.53.47,3.34,1.4s1.21,2.36,1.17,4.28h-6.29c.02.74.22,1.32.61,1.74s.87.62,1.45.62c.39,0,.72-.11.99-.32.27-.21.47-.56.61-1.04Zm.14-2.54c-.02-.73-.21-1.28-.56-1.66s-.79-.57-1.3-.57c-.55,0-1,.2-1.36.6-.36.4-.53.94-.53,1.63h3.75Z"/><path class="cls-8" d="m77.38,111.4h-2.51v-4.84c0-1.02-.05-1.69-.16-1.99s-.28-.53-.52-.7c-.24-.17-.53-.25-.87-.25-.43,0-.83.12-1.17.36-.34.24-.58.55-.71.95-.13.39-.19,1.12-.19,2.18v4.3h-2.51v-9.49h2.33v1.39c.83-1.07,1.87-1.61,3.13-1.61.55,0,1.06.1,1.52.3.46.2.81.45,1.04.76.24.31.4.66.49,1.05.09.39.14.96.14,1.69v5.9Z"/><path class="cls-8" d="m84.27,101.92v2h-1.72v3.82c0,.77.02,1.23.05,1.35.03.13.11.23.22.32.12.08.26.13.42.13.23,0,.57-.08,1.01-.24l.21,1.95c-.58.25-1.25.38-1.98.38-.45,0-.86-.08-1.22-.23-.36-.15-.63-.35-.8-.59s-.29-.57-.35-.98c-.05-.29-.08-.88-.08-1.77v-4.14h-1.15v-2h1.15v-1.89l2.52-1.47v3.35h1.72Z"/><path class="cls-8" d="m85.13,108.7l2.52-.38c.11.49.33.86.65,1.11.33.25.79.38,1.38.38.65,0,1.14-.12,1.46-.36.22-.17.33-.39.33-.67,0-.19-.06-.35-.18-.47-.12-.12-.4-.23-.84-.33-2.03-.45-3.31-.85-3.85-1.22-.75-.51-1.13-1.22-1.13-2.14,0-.82.32-1.51.97-2.07s1.66-.84,3.02-.84,2.26.21,2.89.63,1.07,1.05,1.3,1.88l-2.37.44c-.1-.37-.29-.65-.58-.85-.28-.2-.69-.29-1.21-.29-.66,0-1.13.09-1.42.28-.19.13-.29.3-.29.51,0,.18.08.33.25.46.23.17,1.01.4,2.35.71,1.34.3,2.27.68,2.8,1.12.52.45.79,1.07.79,1.87,0,.87-.36,1.62-1.09,2.24-.73.63-1.8.94-3.23.94-1.29,0-2.32-.26-3.07-.79-.75-.52-1.25-1.24-1.48-2.14Z"/><path class="cls-8" d="m103.68,111.4h-2.51v-9.49h2.33v1.35c.4-.64.76-1.06,1.08-1.26.32-.2.68-.3,1.09-.3.57,0,1.12.16,1.65.47l-.78,2.19c-.42-.27-.82-.41-1.18-.41s-.65.1-.89.29-.44.54-.58,1.05-.21,1.57-.21,3.18v2.93Z"/><path class="cls-8" d="m113.89,108.38l2.5.42c-.32.92-.83,1.62-1.52,2.1-.69.48-1.56.72-2.6.72-1.65,0-2.87-.54-3.66-1.62-.62-.86-.94-1.95-.94-3.27,0-1.57.41-2.8,1.23-3.69.82-.89,1.86-1.34,3.12-1.34,1.41,0,2.53.47,3.34,1.4s1.21,2.36,1.17,4.28h-6.29c.02.74.22,1.32.61,1.74.39.41.87.62,1.45.62.39,0,.72-.11.99-.32.27-.21.47-.56.61-1.04Zm.14-2.54c-.02-.73-.21-1.28-.56-1.66s-.79-.57-1.3-.57c-.55,0-1,.2-1.36.6s-.53.94-.53,1.63h3.75Z"/><path class="cls-8" d="m117.69,108.7l2.52-.38c.11.49.33.86.65,1.11.33.25.79.38,1.38.38.65,0,1.14-.12,1.46-.36.22-.17.33-.39.33-.67,0-.19-.06-.35-.18-.47-.12-.12-.4-.23-.84-.33-2.03-.45-3.31-.85-3.85-1.22-.75-.51-1.13-1.22-1.13-2.14,0-.82.32-1.51.97-2.07s1.66-.84,3.02-.84,2.26.21,2.89.63,1.07,1.05,1.3,1.88l-2.37.44c-.1-.37-.29-.65-.58-.85-.28-.2-.69-.29-1.21-.29-.66,0-1.13.09-1.42.28-.19.13-.29.3-.29.51,0,.18.08.33.25.46.23.17,1.01.4,2.35.71,1.34.3,2.27.68,2.8,1.12.52.45.79,1.07.79,1.87,0,.87-.36,1.62-1.09,2.24-.73.63-1.8.94-3.23.94-1.29,0-2.32-.26-3.07-.79-.75-.52-1.25-1.24-1.48-2.14Z"/><path class="cls-8" d="m128.68,101.92h2.34v1.39c.3-.48.71-.86,1.23-1.16.52-.3,1.09-.45,1.72-.45,1.1,0,2.04.43,2.81,1.3.77.86,1.15,2.07,1.15,3.61s-.39,2.82-1.16,3.69c-.77.88-1.71,1.32-2.81,1.32-.52,0-1-.1-1.43-.31s-.87-.57-1.34-1.07v4.78h-2.51v-13.1Zm2.48,4.58c0,1.07.21,1.85.63,2.36.42.51.94.76,1.54.76s1.07-.23,1.46-.7c.39-.47.58-1.23.58-2.3,0-.99-.2-1.73-.6-2.22-.4-.48-.89-.72-1.48-.72s-1.12.24-1.53.71c-.4.47-.61,1.17-.61,2.1Z"/><path class="cls-8" d="m139.35,106.53c0-.83.21-1.64.62-2.42s.99-1.38,1.75-1.79c.75-.41,1.6-.62,2.53-.62,1.43,0,2.61.47,3.53,1.4.92.93,1.38,2.11,1.38,3.53s-.46,2.63-1.39,3.57c-.93.94-2.09,1.42-3.5,1.42-.87,0-1.7-.2-2.49-.59-.79-.39-1.39-.97-1.8-1.73-.41-.76-.62-1.68-.62-2.77Zm2.57.13c0,.94.22,1.66.67,2.16.45.5,1,.75,1.65.75s1.21-.25,1.65-.75c.44-.5.67-1.23.67-2.18s-.22-1.64-.67-2.14c-.44-.5-.99-.75-1.65-.75s-1.21.25-1.65.75c-.45.5-.67,1.22-.67,2.16Z"/><path class="cls-8" d="m159.74,111.4h-2.51v-4.84c0-1.02-.05-1.69-.16-1.99-.11-.3-.28-.53-.52-.7-.24-.17-.53-.25-.87-.25-.43,0-.82.12-1.17.36s-.58.55-.71.95c-.13.39-.19,1.12-.19,2.18v4.3h-2.51v-9.49h2.33v1.39c.83-1.07,1.87-1.61,3.13-1.61.55,0,1.06.1,1.52.3s.81.45,1.04.76c.24.31.4.66.49,1.05.09.39.14.96.14,1.69v5.9Z"/><path class="cls-8" d="m170.99,111.4h-2.33v-1.39c-.39.54-.84.95-1.37,1.21s-1.06.4-1.59.4c-1.09,0-2.02-.44-2.8-1.32-.78-.88-1.17-2.1-1.17-3.68s.38-2.83,1.13-3.67c.76-.84,1.71-1.26,2.87-1.26,1.06,0,1.98.44,2.75,1.32v-4.72h2.51v13.1Zm-6.7-4.95c0,1.01.14,1.75.42,2.2.41.66.97.98,1.7.98.58,0,1.07-.25,1.47-.74.41-.49.61-1.23.61-2.2,0-1.09-.2-1.88-.59-2.35-.39-.48-.9-.72-1.51-.72s-1.09.24-1.5.71-.6,1.18-.6,2.12Z"/><path class="cls-8" d="m178.96,108.38l2.5.42c-.32.92-.83,1.62-1.52,2.1s-1.56.72-2.6.72c-1.65,0-2.87-.54-3.66-1.62-.63-.86-.94-1.95-.94-3.27,0-1.57.41-2.8,1.23-3.69.82-.89,1.86-1.34,3.12-1.34,1.41,0,2.53.47,3.34,1.4.82.93,1.21,2.36,1.17,4.28h-6.29c.02.74.22,1.32.61,1.74.39.41.87.62,1.45.62.39,0,.72-.11.99-.32s.47-.56.61-1.04Zm.14-2.54c-.02-.73-.21-1.28-.56-1.66s-.79-.57-1.3-.57c-.55,0-1,.2-1.36.6-.36.4-.53.94-.53,1.63h3.75Z"/><path class="cls-8" d="m192.34,111.4h-2.33v-1.39c-.39.54-.84.95-1.37,1.21s-1.06.4-1.59.4c-1.09,0-2.02-.44-2.8-1.32-.78-.88-1.17-2.1-1.17-3.68s.38-2.83,1.13-3.67,1.71-1.26,2.87-1.26c1.06,0,1.98.44,2.75,1.32v-4.72h2.51v13.1Zm-6.7-4.95c0,1.01.14,1.75.42,2.2.41.66.97.98,1.7.98.58,0,1.07-.25,1.47-.74.41-.49.61-1.23.61-2.2,0-1.09-.2-1.88-.59-2.35s-.9-.72-1.51-.72-1.09.24-1.5.71-.6,1.18-.6,2.12Z"/><path class="cls-8" d="m199.9,100.63v-2.32h2.51v2.32h-2.51Zm0,10.78v-9.49h2.51v9.49h-2.51Z"/><path class="cls-8" d="m213.61,111.4h-2.51v-4.84c0-1.02-.05-1.69-.16-1.99-.11-.3-.28-.53-.52-.7-.24-.17-.53-.25-.87-.25-.43,0-.82.12-1.17.36s-.58.55-.71.95c-.13.39-.19,1.12-.19,2.18v4.3h-2.51v-9.49h2.33v1.39c.83-1.07,1.87-1.61,3.13-1.61.55,0,1.06.1,1.52.3s.81.45,1.04.76c.24.31.4.66.49,1.05.09.39.14.96.14,1.69v5.9Z"/><path class="cls-8" d="m20.28,126.77l-2.28-.41c.26-.92.7-1.6,1.32-2.04s1.55-.66,2.79-.66c1.12,0,1.95.13,2.5.4.55.27.93.6,1.16,1.01s.33,1.16.33,2.25l-.03,2.93c0,.83.04,1.45.12,1.84.08.4.23.82.45,1.27h-2.48c-.06-.17-.15-.41-.24-.74-.04-.15-.07-.25-.09-.29-.43.42-.89.73-1.38.94s-1.01.31-1.56.31c-.98,0-1.75-.27-2.31-.79-.56-.53-.84-1.2-.84-2.01,0-.54.13-1.01.38-1.43s.62-.74,1.08-.97c.46-.22,1.13-.42,2-.58,1.17-.22,1.99-.43,2.44-.62v-.25c0-.48-.12-.83-.36-1.03-.24-.21-.69-.31-1.35-.31-.45,0-.8.09-1.05.26-.25.18-.45.48-.61.92Zm3.36,2.04c-.32.11-.83.24-1.53.38s-1.15.29-1.37.44c-.33.23-.49.53-.49.88s.13.66.39.91c.26.26.6.38,1,.38.45,0,.88-.15,1.3-.45.3-.23.5-.5.6-.83.07-.21.1-.62.1-1.22v-.5Z"/><path class="cls-8" d="m27.69,130.66l2.52-.38c.11.49.33.86.65,1.11.33.25.79.38,1.38.38.65,0,1.14-.12,1.46-.36.22-.17.33-.39.33-.67,0-.19-.06-.35-.18-.47-.12-.12-.41-.23-.84-.33-2.03-.45-3.31-.85-3.85-1.22-.75-.51-1.12-1.22-1.12-2.14,0-.82.32-1.51.97-2.07.65-.56,1.66-.84,3.02-.84s2.26.21,2.9.63c.63.42,1.07,1.05,1.3,1.88l-2.37.44c-.1-.37-.29-.65-.58-.85-.28-.2-.69-.29-1.21-.29-.66,0-1.13.09-1.42.28-.19.13-.29.3-.29.51,0,.18.08.33.25.46.23.17,1.01.4,2.35.71,1.34.3,2.27.68,2.8,1.12.52.45.79,1.07.79,1.87,0,.87-.36,1.62-1.09,2.24s-1.8.94-3.22.94c-1.29,0-2.32-.26-3.07-.79-.75-.52-1.25-1.24-1.48-2.14Z"/><path class="cls-8" d="m49.33,130.34l2.5.42c-.32.92-.83,1.62-1.52,2.1s-1.56.72-2.6.72c-1.65,0-2.87-.54-3.66-1.62-.62-.86-.94-1.95-.94-3.27,0-1.57.41-2.8,1.23-3.69.82-.89,1.86-1.34,3.12-1.34,1.41,0,2.53.47,3.34,1.4.82.93,1.21,2.36,1.17,4.28h-6.29c.02.74.22,1.32.61,1.74s.87.62,1.45.62c.39,0,.72-.11.99-.32s.47-.56.61-1.04Zm.14-2.54c-.02-.73-.21-1.28-.56-1.66s-.79-.57-1.3-.57c-.55,0-1,.2-1.36.6s-.53.94-.53,1.63h3.75Z"/><path class="cls-8" d="m55.89,126.77l-2.28-.41c.26-.92.7-1.6,1.32-2.04s1.55-.66,2.79-.66c1.12,0,1.95.13,2.5.4.55.27.93.6,1.16,1.01.22.41.33,1.16.33,2.25l-.03,2.93c0,.83.04,1.45.12,1.84.08.4.23.82.45,1.27h-2.48c-.07-.17-.15-.41-.24-.74-.04-.15-.07-.25-.09-.29-.43.42-.89.73-1.38.94s-1.01.31-1.56.31c-.98,0-1.75-.27-2.31-.79-.56-.53-.84-1.2-.84-2.01,0-.54.13-1.01.38-1.43s.62-.74,1.08-.97c.46-.22,1.13-.42,2-.58,1.17-.22,1.99-.43,2.44-.62v-.25c0-.48-.12-.83-.36-1.03-.24-.21-.69-.31-1.35-.31-.45,0-.79.09-1.04.26-.25.18-.45.48-.61.92Zm3.36,2.04c-.32.11-.83.24-1.53.38-.7.15-1.15.29-1.37.44-.33.23-.49.53-.49.88s.13.66.39.91c.26.26.6.38,1,.38.45,0,.88-.15,1.3-.45.3-.23.5-.5.6-.83.07-.21.1-.62.1-1.22v-.5Z"/><path class="cls-8" d="m66.59,133.36h-2.51v-9.49h2.33v1.35c.4-.64.76-1.06,1.08-1.26.32-.2.68-.3,1.08-.3.57,0,1.12.16,1.65.47l-.78,2.19c-.42-.27-.82-.41-1.18-.41s-.65.1-.89.29-.44.54-.58,1.05-.21,1.57-.21,3.18v2.93Z"/><path class="cls-8" d="m71.31,133.36v-13.1h2.51v13.1h-2.51Z"/><path class="cls-8" d="m75.21,123.87h2.67l2.27,6.74,2.21-6.74h2.6l-3.35,9.13-.6,1.65c-.22.55-.43.98-.63,1.27-.2.29-.43.53-.69.71-.26.18-.58.32-.96.42-.38.1-.8.15-1.28.15s-.96-.05-1.42-.15l-.22-1.97c.39.08.75.12,1.06.12.58,0,1.02-.17,1.3-.51.28-.34.49-.78.64-1.31l-3.61-9.52Z"/><path class="cls-8" d="m93.53,126.77l-2.28-.41c.26-.92.7-1.6,1.32-2.04s1.55-.66,2.79-.66c1.12,0,1.95.13,2.5.4.55.27.93.6,1.16,1.01.22.41.33,1.16.33,2.25l-.03,2.93c0,.83.04,1.45.12,1.84.08.4.23.82.45,1.27h-2.48c-.07-.17-.15-.41-.24-.74-.04-.15-.07-.25-.09-.29-.43.42-.89.73-1.38.94s-1.01.31-1.56.31c-.98,0-1.75-.27-2.31-.79-.56-.53-.84-1.2-.84-2.01,0-.54.13-1.01.38-1.43s.62-.74,1.08-.97c.46-.22,1.13-.42,2-.58,1.17-.22,1.99-.43,2.44-.62v-.25c0-.48-.12-.83-.36-1.03-.24-.21-.69-.31-1.35-.31-.45,0-.79.09-1.04.26-.25.18-.45.48-.61.92Zm3.36,2.04c-.32.11-.83.24-1.53.38-.7.15-1.15.29-1.37.44-.33.23-.49.53-.49.88s.13.66.39.91c.26.26.6.38,1,.38.45,0,.88-.15,1.3-.45.3-.23.5-.5.6-.83.07-.21.1-.62.1-1.22v-.5Z"/><path class="cls-8" d="m100.95,130.66l2.52-.38c.11.49.33.86.65,1.11.33.25.79.38,1.38.38.65,0,1.14-.12,1.46-.36.22-.17.33-.39.33-.67,0-.19-.06-.35-.18-.47-.12-.12-.41-.23-.84-.33-2.03-.45-3.31-.85-3.85-1.22-.75-.51-1.12-1.22-1.12-2.14,0-.82.32-1.51.97-2.07.65-.56,1.66-.84,3.02-.84s2.26.21,2.9.63c.63.42,1.07,1.05,1.3,1.88l-2.37.44c-.1-.37-.29-.65-.58-.85-.28-.2-.69-.29-1.21-.29-.66,0-1.13.09-1.42.28-.19.13-.29.3-.29.51,0,.18.08.33.25.46.23.17,1.01.4,2.35.71,1.34.3,2.27.68,2.8,1.12.52.45.79,1.07.79,1.87,0,.87-.36,1.62-1.09,2.24s-1.8.94-3.22.94c-1.29,0-2.32-.26-3.07-.79-.75-.52-1.25-1.24-1.48-2.14Z"/><path class="cls-8" d="m116.47,129.89l2.43-.29c.08.62.29,1.09.62,1.42s.75.49,1.23.49c.52,0,.96-.2,1.31-.59s.53-.92.53-1.59c0-.63-.17-1.13-.51-1.5-.34-.37-.75-.55-1.24-.55-.32,0-.71.06-1.15.19l.28-2.05c.68.02,1.2-.13,1.55-.44.36-.31.54-.73.54-1.25,0-.44-.13-.79-.39-1.05s-.61-.39-1.04-.39-.8.15-1.1.45-.49.73-.55,1.3l-2.31-.39c.16-.79.4-1.43.73-1.9.32-.47.78-.85,1.36-1.12.58-.27,1.23-.41,1.95-.41,1.23,0,2.22.39,2.97,1.18.61.64.92,1.37.92,2.18,0,1.15-.63,2.07-1.88,2.75.75.16,1.35.52,1.8,1.08.45.56.67,1.24.67,2.03,0,1.15-.42,2.13-1.26,2.94s-1.88,1.21-3.14,1.21c-1.19,0-2.17-.34-2.95-1.02-.78-.68-1.23-1.57-1.36-2.68Z"/><path class="cls-8" d="m130.98,120.21c1.27,0,2.26.45,2.97,1.36.85,1.07,1.28,2.85,1.28,5.33s-.43,4.26-1.29,5.34c-.71.89-1.7,1.34-2.97,1.34s-2.3-.49-3.08-1.47c-.78-.98-1.17-2.73-1.17-5.24s.43-4.24,1.29-5.33c.71-.89,1.7-1.34,2.97-1.34Zm0,2.08c-.3,0-.58.1-.81.29-.24.19-.42.54-.55,1.04-.17.65-.26,1.74-.26,3.28s.08,2.59.23,3.17.35.96.59,1.15c.23.19.5.29.81.29s.57-.1.81-.29c.24-.19.42-.54.55-1.04.17-.64.26-1.73.26-3.27s-.08-2.59-.23-3.17c-.15-.57-.35-.96-.58-1.15-.24-.19-.51-.29-.81-.29Z"/><path class="cls-8" d="m142.34,123.87h2.31v1.3c.83-1.01,1.81-1.51,2.96-1.51.61,0,1.13.12,1.58.38.45.25.81.63,1.1,1.13.42-.51.87-.88,1.35-1.13.48-.25,1-.38,1.54-.38.7,0,1.29.14,1.77.42.48.28.84.7,1.08,1.25.17.4.26,1.06.26,1.97v6.07h-2.51v-5.42c0-.94-.09-1.55-.26-1.82-.23-.36-.59-.54-1.07-.54-.35,0-.68.11-.99.32-.31.21-.53.53-.67.94-.14.41-.21,1.07-.21,1.96v4.56h-2.51v-5.2c0-.92-.04-1.52-.13-1.79s-.23-.47-.42-.6c-.19-.13-.44-.2-.76-.2-.39,0-.74.1-1.04.31-.31.21-.53.51-.67.9-.13.39-.2,1.05-.2,1.96v4.61h-2.51v-9.49Z"/><path class="cls-8" d="m158.8,122.59v-2.32h2.51v2.32h-2.51Zm0,10.78v-9.49h2.51v9.49h-2.51Z"/><path class="cls-8" d="m172.52,133.36h-2.51v-4.84c0-1.02-.05-1.69-.16-1.99s-.28-.53-.52-.7c-.24-.17-.53-.25-.87-.25-.43,0-.83.12-1.17.36-.34.24-.58.55-.71.95-.13.39-.19,1.12-.19,2.18v4.3h-2.51v-9.49h2.33v1.39c.83-1.07,1.87-1.61,3.13-1.61.55,0,1.06.1,1.52.3.46.2.81.45,1.04.76.24.31.4.66.49,1.05.09.39.14.96.14,1.69v5.9Z"/><path class="cls-8" d="m181.31,133.36v-1.42c-.34.51-.8.91-1.36,1.2-.56.29-1.16.44-1.78.44s-1.21-.14-1.71-.42c-.51-.28-.87-.67-1.1-1.18s-.34-1.21-.34-2.1v-6h2.51v4.36c0,1.33.04,2.15.14,2.45.09.3.26.54.5.71.24.18.55.26.93.26.43,0,.81-.12,1.15-.35s.57-.53.7-.88c.12-.35.19-1.2.19-2.56v-4h2.51v9.49h-2.33Z"/><path class="cls-8" d="m190.59,123.87v2h-1.71v3.82c0,.77.02,1.23.05,1.35s.11.23.22.32c.12.08.26.13.42.13.23,0,.57-.08,1.01-.24l.21,1.95c-.58.25-1.25.38-1.98.38-.45,0-.86-.08-1.22-.23-.36-.15-.63-.35-.8-.59s-.29-.57-.35-.98c-.05-.29-.08-.88-.08-1.77v-4.14h-1.15v-2h1.15v-1.89l2.52-1.47v3.35h1.71Z"/><path class="cls-8" d="m197.83,130.34l2.5.42c-.32.92-.83,1.62-1.52,2.1-.69.48-1.56.72-2.61.72-1.65,0-2.87-.54-3.66-1.62-.63-.86-.94-1.95-.94-3.27,0-1.57.41-2.8,1.23-3.69.82-.89,1.86-1.34,3.12-1.34,1.41,0,2.53.47,3.34,1.4s1.21,2.36,1.17,4.28h-6.29c.02.74.22,1.32.61,1.74s.87.62,1.45.62c.39,0,.72-.11.99-.32.27-.21.47-.56.61-1.04Zm.14-2.54c-.02-.73-.21-1.28-.56-1.66s-.79-.57-1.3-.57c-.55,0-1,.2-1.36.6-.36.4-.53.94-.53,1.63h3.75Z"/><path class="cls-8" d="m201.62,130.66l2.52-.38c.11.49.32.86.65,1.11.33.25.79.38,1.38.38.65,0,1.14-.12,1.47-.36.22-.17.33-.39.33-.67,0-.19-.06-.35-.18-.47-.12-.12-.41-.23-.84-.33-2.03-.45-3.31-.85-3.85-1.22-.75-.51-1.13-1.22-1.13-2.14,0-.82.33-1.51.97-2.07.65-.56,1.66-.84,3.02-.84s2.26.21,2.9.63,1.07,1.05,1.3,1.88l-2.37.44c-.1-.37-.29-.65-.58-.85s-.69-.29-1.21-.29c-.66,0-1.13.09-1.42.28-.19.13-.29.3-.29.51,0,.18.08.33.25.46.23.17,1.01.4,2.35.71s2.27.68,2.8,1.12c.52.45.79,1.07.79,1.87,0,.87-.36,1.62-1.09,2.24s-1.8.94-3.23.94c-1.29,0-2.32-.26-3.07-.79-.75-.52-1.25-1.24-1.48-2.14Z"/><path class="cls-8" d="m216.77,125.91v1.36h-5.13c.06-.51.22-1,.5-1.46.28-.46.83-1.07,1.65-1.83.66-.61,1.06-1.03,1.21-1.25.2-.3.3-.6.3-.9,0-.33-.09-.58-.26-.75-.17-.18-.42-.26-.73-.26s-.55.09-.73.28c-.18.18-.29.49-.31.92l-1.46-.15c.09-.81.36-1.38.82-1.73.46-.35,1.03-.53,1.72-.53.75,0,1.35.2,1.78.61.43.41.65.91.65,1.52,0,.34-.06.67-.19.98-.12.31-.32.64-.59.98-.18.23-.5.55-.96.97-.46.42-.75.71-.88.84-.12.14-.22.27-.3.41h2.91Z"/><path class="cls-8" d="m218.58,123.14l-.79-.61c.25-.28.51-.55.78-.81.11-.1.18-.17.2-.2-.09-.01-.33-.07-.74-.17-.29-.07-.49-.13-.58-.16l.31-.92c.46.18.86.39,1.22.61-.08-.57-.12-1.03-.12-1.39h.93c0,.25-.05.72-.14,1.4.07-.03.22-.1.45-.2.31-.14.6-.26.86-.36l.28.94c-.39.09-.83.17-1.34.26l.62.7c.13.14.22.26.3.35l-.8.53-.7-1.16c-.21.38-.46.77-.73,1.2Z"/><path class="cls-7" d="m119.4,88.78c23.92,0,43.31-19.39,43.31-43.31S143.31,2.17,119.4,2.17s-43.31,19.39-43.31,43.31,19.39,43.31,43.31,43.31"/><path class="cls-6" d="m119.4,2.17c-23.92,0-43.31,19.39-43.31,43.31s19.39,43.31,43.31,43.31"/><path class="cls-2" d="m119.4,88.78c23.92,0,43.31-19.39,43.31-43.31S143.31,2.17,119.4,2.17s-43.31,19.39-43.31,43.31,19.39,43.31,43.31,43.31Z"/><path class="cls-4" d="m152.74,59.12c-4.39,10.65-13.74,18.73-25.16,21.37"/><path class="cls-4" d="m105.75,78.7c-10.65-4.39-18.73-13.73-21.37-25.16"/><path class="cls-4" d="m86.16,31.71c4.39-10.65,13.74-18.73,25.16-21.37"/><path class="cls-4" d="m133.16,12.12c10.65,4.39,18.73,13.73,21.37,25.16"/><path class="cls-3" d="m155.37,43.08c.05.77.08,1.55.08,2.33s-.02,1.56-.08,2.33M117.12,9.49c.77-.05,1.55-.08,2.33-.08s1.56.03,2.33.08m-38.25,38.25c-.05-.77-.08-1.55-.08-2.33s.03-1.56.08-2.33m38.25,38.25c-.77.05-1.55.08-2.33.08s-1.56-.02-2.33-.08"/><path class="cls-7" d="m104.76,61.12c-4.29,0-7.75-1.17-9.57-2.27-.67-.4-.99-1.2-.79-1.95l1.39-5.16c.14-.52.51-.95,1.01-1.16.22-.09.45-.14.68-.14.29,0,.59.07.85.22.98.54,3.48,1.57,5.93,1.57.84,0,3.59-.15,3.59-2.11,0-2.4-3.66-2.47-4.08-2.47h-2.78c-.97,0-1.75-.79-1.75-1.75v-4.89c0-.97.78-1.75,1.75-1.75h2.65c1.32,0,3.41-.44,3.41-1.61s-1.6-1.3-2.56-1.3c-1.98,0-4.21.91-5.14,1.49-.28.17-.6.26-.92.26-.21,0-.43-.04-.64-.12-.51-.2-.9-.63-1.05-1.16l-1.39-4.94c-.21-.74.09-1.53.74-1.95,1.78-1.14,5.46-2.48,9.97-2.48,5.49,0,11.4,2.82,11.4,9.02,0,2.68-1.09,4.95-3.07,6.57,2.52,1.61,4.06,4.3,4.06,7.43,0,6.36-5.5,10.64-13.69,10.64"/><path class="cls-8" d="m106.06,25.7c-4.02,0-8.3,1.08-10.91,2.75-1.3.83-1.9,2.41-1.48,3.9l1.39,4.94c.3,1.06,1.07,1.91,2.1,2.31.18.07.37.13.55.17-.15.39-.23.8-.23,1.24v4.89c0,1.94,1.57,3.5,3.5,3.5h2.78c1.44,0,2.22.45,2.32.61,0,0,0,.03,0,.09-.16.12-.71.37-1.84.37-1.93,0-4.1-.81-5.08-1.36-.53-.29-1.11-.44-1.7-.44-.46,0-.93.09-1.36.28-.99.42-1.74,1.27-2.02,2.31l-1.39,5.16c-.41,1.51.23,3.1,1.57,3.91,2.61,1.58,6.53,2.53,10.47,2.53,9.09,0,15.44-5.09,15.44-12.39,0-2.95-1.19-5.61-3.19-7.56,1.44-1.76,2.21-3.96,2.21-6.45,0-5.19-4.12-10.77-13.15-10.77m0,3.5c6.19,0,9.65,3.27,9.65,7.27,0,3.1-1.75,5.56-5.34,6.78v.09c3.5.63,6.33,3.28,6.33,7.14,0,5.12-4.53,8.89-11.94,8.89-3.77,0-6.96-.99-8.66-2.02l1.39-5.16c1.21.67,3.99,1.8,6.78,1.8,3.54,0,5.34-1.71,5.34-3.86,0-2.92-2.87-4.22-5.83-4.22h-2.78v-4.89h2.65c2.29,0,5.16-.9,5.16-3.37,0-1.75-1.39-3.05-4.31-3.05-2.38,0-4.89,1.03-6.06,1.75l-1.39-4.94c1.75-1.12,5.21-2.2,9.02-2.2"/><path class="cls-7" d="m134.55,36.12c-1.17,0-2.42,2.54-2.42,8.12-.04,5.59,1.11,7.35,1.61,7.85.25.25.5.36.82.36,1.46,0,2.38-3.22,2.38-8.21s-.91-8.12-2.38-8.12m-.09,25c-7.75,0-12.6-6.43-12.66-16.78,0-10.42,4.92-16.89,12.84-16.89s12.61,6.4,12.61,16.7-4.77,16.97-12.75,16.97h-.04Z"/><path class="cls-8" d="m134.64,25.7c-8.86,0-14.59,7.31-14.59,18.63.06,11.44,5.58,18.54,14.41,18.54s14.54-7.17,14.54-18.72-5.5-18.45-14.37-18.45m-.09,28.5h.04c2.65,0,4.08-3.32,4.08-9.96s-1.39-9.87-4.13-9.87c-2.56,0-4.17,3.28-4.17,9.87-.04,6.73,1.57,9.96,4.17,9.96m.09-25c7.76,0,10.86,6.96,10.86,14.95,0,8.98-3.64,15.22-11,15.22h-.04c-7.54,0-10.86-6.78-10.91-15.04,0-8.48,3.55-15.12,11.09-15.12"/></g></svg>