<?xml version="1.0" encoding="UTF-8"?><svg id="Layer_2" xmlns="http://www.w3.org/2000/svg" xmlns:xlink="http://www.w3.org/1999/xlink" viewBox="0 0 478.32 244.39"><defs><style>.cls-1{fill:none;}.cls-2{clip-path:url(#clippath);}.cls-3{fill:#0773bb;}.cls-4{fill:#25ac4a;}.cls-5{fill:url(#radial-gradient);}</style><clipPath id="clippath"><path class="cls-1" d="m108.9,94.08c-.93,1.22-.69,2.96.53,3.88l6.67,5.08c.64.49,1.43.65,2.16.52.66-.12,1.28-.48,1.72-1.05.92-1.22.69-2.95-.53-3.88l-6.67-5.08c-.5-.38-1.09-.57-1.67-.57-.83,0-1.66.38-2.21,1.1m-7.22-20.58c-.87.4-1.53,1.12-1.86,2.02-.33.9-.28,1.87.12,2.74.4.87,1.12,1.54,2.03,1.87l26.43,9.64c.4.15.82.22,1.23.22.17,0,.34,0,.51-.04,1.31-.19,2.41-1.08,2.87-2.33.33-.9.29-1.88-.12-2.75-.41-.87-1.13-1.53-2.03-1.86l-26.42-9.64c-.4-.14-.82-.22-1.23-.22-.52,0-1.03.11-1.52.34m-88.14-6.32l-8.38.24c-1.53.04-2.74,1.32-2.69,2.85.04,1.53,1.32,2.74,2.85,2.69l8.38-.24c.75-.02,1.42-.34,1.91-.84.5-.52.81-1.23.78-2.01-.04-1.5-1.27-2.69-2.76-2.69h-.08Zm107.36-2.81c-1.49,0-2.71,1.19-2.76,2.69-.04,1.53,1.16,2.8,2.69,2.85l8.38.24c.81.02,1.55-.3,2.07-.84.47-.48.76-1.13.78-1.85.04-1.53-1.16-2.81-2.69-2.85l-8.38-.24h-.09ZM1.7,50.31c-.81.5-1.38,1.3-1.6,2.23-.45,1.93.75,3.87,2.68,4.32l30.21,7.13c.27.06.55.09.81.09.97,0,1.91-.38,2.59-1.09.45-.46.77-1.04.92-1.68.45-1.93-.74-3.87-2.68-4.32l-30.21-7.12c-.27-.06-.55-.1-.82-.1-.66,0-1.31.18-1.89.54m128.38-5.78l-26.83,8.46c-1.89.6-2.94,2.62-2.35,4.51.29.91.92,1.66,1.77,2.11.52.27,1.09.4,1.66.4.37,0,.73-.05,1.09-.16l26.83-8.46c.57-.18,1.08-.49,1.49-.92h0c.93-.95,1.25-2.33.85-3.59-.29-.92-.92-1.67-1.77-2.11-.52-.27-1.08-.41-1.66-.41-.36,0-.73.05-1.08.17m-119.95-7.27c-.77,1.32-.33,3.02,1,3.79l7.24,4.23c1.12.66,2.52.43,3.38-.46.15-.16.29-.34.4-.53.77-1.33.33-3.02-.99-3.79l-7.25-4.22c-.44-.26-.92-.38-1.4-.38-.95,0-1.88.49-2.39,1.38m109.68-4.24l-7.43,3.89c-1.36.71-1.88,2.38-1.17,3.74.71,1.35,2.38,1.88,3.74,1.17l7.44-3.89c.27-.14.5-.31.7-.52.81-.83,1.04-2.13.47-3.22-.49-.95-1.45-1.49-2.45-1.49-.44,0-.88.1-1.28.32M20.18,20.49c-.91.01-1.77.36-2.43.98l-.2.21c-1.29,1.42-1.23,3.62.15,4.97l22.19,21.71c.69.68,1.58,1.05,2.52,1.05h.05c.95-.02,1.84-.41,2.51-1.11,1.38-1.42,1.35-3.69-.06-5.07l-22.19-21.71c-.68-.66-1.65-1.02-2.51-1.02h-.04Zm91.2-5.08c-.96.07-1.82.52-2.42,1.23l-18.78,21.55c-.63.72-.94,1.65-.87,2.61.07.96.5,1.83,1.23,2.46.68.59,1.52.89,2.36.89.94,0,1.87-.37,2.57-1.09l18.91-21.69c.63-.72.94-1.65.87-2.61-.06-.96-.5-1.83-1.22-2.46-.66-.57-1.52-.89-2.38-.89-.09,0-.18,0-.27.01m-77.33-2.14c-1.36.71-1.87,2.39-1.15,3.75l3.92,7.41c.71,1.35,2.39,1.86,3.74,1.15.26-.14.5-.31.7-.52.82-.84,1.04-2.14.46-3.23l-3.92-7.41c-.49-.94-1.45-1.48-2.45-1.48-.44,0-.88.11-1.29.32m59.78-3.22l-3.69,7.88c-.65,1.39-.05,3.04,1.34,3.68,1.1.52,2.36.25,3.16-.57.21-.22.39-.47.52-.76l3.69-7.88c.65-1.38.05-3.03-1.33-3.68-.38-.17-.78-.26-1.18-.26-1.04,0-2.04.59-2.5,1.6M47.28,2.42c-1.89.58-2.95,2.6-2.37,4.5l8.85,28.55c.48,1.54,1.9,2.53,3.43,2.53.36,0,.71-.05,1.07-.16.58-.18,1.1-.5,1.51-.92.91-.95,1.24-2.31.86-3.58l-8.85-28.56c-.29-.91-.91-1.67-1.76-2.11-.52-.28-1.1-.41-1.67-.41-.36,0-.71.05-1.07.16m16.59-.25c-1.53.07-2.71,1.38-2.63,2.9l.47,9.16c.08,1.53,1.38,2.7,2.91,2.63.73-.04,1.37-.35,1.84-.84.52-.53.82-1.27.78-2.07l-.47-9.16c-.08-1.48-1.3-2.63-2.76-2.63-.05,0-.1,0-.14,0m13.99.72l-5.73,28.9c-.39,1.94.88,3.83,2.83,4.22.23.04.46.07.7.07.96,0,1.89-.39,2.58-1.09.48-.49.81-1.12.94-1.8l5.72-28.9c.19-.94,0-1.9-.54-2.69-.53-.8-1.35-1.34-2.29-1.53-.23-.05-.47-.07-.7-.07-1.68,0-3.18,1.19-3.52,2.9"/></clipPath><radialGradient id="radial-gradient" cx="1323.12" cy="2787.32" fx="1323.12" fy="2787.32" r="2.34" gradientTransform="translate(-43449.09 -91607.09) scale(32.89)" gradientUnits="userSpaceOnUse"><stop offset="0" stop-color="#c1a0cb"/><stop offset=".48" stop-color="#c1a0cb"/><stop offset=".91" stop-color="#0773bb"/><stop offset="1" stop-color="#0773bb"/></radialGradient></defs><g id="Layer_1-2"><polygon class="cls-3" points="101.75 184.77 105.55 158.16 87.1 119.41 106.69 119.41 116.44 143.97 133.19 119.41 152.78 119.41 123.28 158.16 119.48 184.77 101.75 184.77"/><path class="cls-3" d="m193.03,119.41h16.98l-5.45,38.19c-2.97,20.82-15.99,27.73-30.08,27.73s-25.51-6.91-22.45-27.73l5.54-38.19h16.98l-5.63,39.5c-.76,5.32.08,11.21,7.73,11.21s9.98-5.88,10.75-11.21l5.63-39.5Z"/><path class="cls-3" d="m211.51,184.77l9.32-65.36h24.16c16.7,0,26.18,7.47,23.91,23.44-2.24,15.69-14.9,22.69-28.15,22.69h-9.52l-2.74,19.23h-16.98Zm28.07-32.59c7,0,11.36-3.08,12.25-9.34.82-5.79-2.22-9.99-10.15-9.99h-5.79l-2.75,19.32h6.44Z"/><polygon class="cls-3" points="268.96 184.77 278.28 119.41 321.48 119.41 319.56 132.86 293.34 132.86 291.49 145.83 310.81 145.83 308.93 159 289.61 159 287.86 171.32 314.08 171.32 312.16 184.77 268.96 184.77"/><polygon class="cls-3" points="321.46 184.77 330.78 119.41 347.77 119.41 340.36 171.32 366.58 171.32 364.66 184.77 321.46 184.77"/><path class="cls-3" d="m426.46,184.49s-2.64.84-8.43.84c-21.84,0-11.17-23.06-24.43-23.06h-3.08l-3.21,22.5h-16.98l9.32-65.36h24.45c17.54,0,25.56,5.98,23.36,21.39-1.38,9.71-8.61,14.56-12.53,16.52,4.33,6.26,2.85,14.01,10.5,14.01h2.89l-1.88,13.17Zm-28.43-34.92c6.81,0,12.06-2.8,12.83-8.22.78-5.42-2.8-8.49-9.33-8.49h-6.81l-2.38,16.71h5.69Z"/><polygon class="cls-3" points="433.27 184.77 442.59 119.41 459.58 119.41 450.25 184.77 433.27 184.77"/><path class="cls-4" d="m86.46,96.28l-11.06-36.84c-.96-3.19-4.32-5-7.51-4.05-.79.24-1.49.63-2.1,1.12l-.19.16-48.61,40.42c-1.25,1.04-1.42,2.89-.38,4.14.96,1.16,2.65,1.38,3.88.57l44.15-29.12-8.4,56.82c-.24,1.61.87,3.1,2.47,3.34,1.6.24,3.09-.86,3.34-2.46l8.16-52.97,10.79,21.06c.74,1.45,2.52,2.02,3.97,1.28,1.29-.66,1.88-2.14,1.48-3.47"/><g class="cls-2"><rect class="cls-5" x="-.36" y="0" width="135.34" height="103.7"/></g><path class="cls-4" d="m360.26,223.12s-.3.09-.87.09c-1.2,0-1.82-.74-1.64-2.44l.92-8.73h2.01l-.9,8.5c-.07.71.07,1.1.65,1.1l-.16,1.48Zm-.27-13.32c-.71,0-1.18-.51-1.18-1.22,0-.86.64-1.53,1.45-1.53.67,0,1.18.53,1.18,1.25,0,.86-.69,1.5-1.45,1.5"/><path class="cls-4" d="m371.04,223.12s-.33.09-.88.09c-1.2,0-1.82-.74-1.63-2.44l.46-4.51c.16-1.55-.21-2.65-1.43-2.65-1.34,0-2.16,1.82-2.3,3.2l-.67,6.34h-1.96l.9-8.52c.07-.67-.05-1.08-.62-1.08l.16-1.48s.3-.09.88-.09c.9,0,1.52.63,1.43,1.68l-.04.58c.37-1.2,1.31-2.33,2.95-2.33,2.28,0,2.97,1.96,2.72,4.36l-.44,4.28c-.07.71.07,1.1.64,1.1l-.16,1.48Z"/><path class="cls-4" d="m381.36,223.12s-.3.09-.9.09c-1.2,0-1.79-.74-1.61-2.44l.48-4.68c.14-1.4-.32-2.49-1.45-2.49-1.36,0-2.14,1.82-2.28,3.16l-.67,6.38h-1.98l1.75-16.73h1.98l-.78,7.58c.51-1.15,1.38-2.1,2.69-2.1,2.28,0,2.97,1.96,2.72,4.36l-.44,4.28c-.07.71.07,1.1.65,1.1l-.16,1.48Z"/><path class="cls-4" d="m391.1,223.1s-.3.12-.88.12c-1.04,0-1.66-.6-1.47-1.73l.02-.11s-.76,1.91-3.18,1.91c-1.68,0-2.6-.99-2.6-2.54,0-2.07,1.19-3.39,3.94-3.39h2.05l.16-1.57c.16-1.5-.37-2.19-1.43-2.19-1.19,0-1.84.85-1.84,2.07,0,.39.07.6.07.6h-1.8s-.09-.25-.09-.8c0-2.07,1.4-3.57,3.89-3.57s3.46,1.38,3.18,3.96l-.48,4.63c-.07.74.03,1.15.6,1.15l-.14,1.45Zm-2.28-4.31h-2c-1.15,0-1.78.6-1.78,1.61,0,.83.48,1.29,1.27,1.29,1.72,0,2.49-2.51,2.49-2.51l.03-.39Z"/><path class="cls-4" d="m395.73,223.12s-.33.09-.9.09c-1.2,0-1.79-.74-1.61-2.44l1.5-14.36h2.01l-1.48,14.13c-.07.71.09,1.1.64,1.1l-.16,1.48Z"/><path class="cls-4" d="m405.66,223.1s-.3.12-.88.12c-1.04,0-1.66-.6-1.48-1.73l.02-.11s-.76,1.91-3.18,1.91c-1.69,0-2.6-.99-2.6-2.54,0-2.07,1.19-3.39,3.94-3.39h2.05l.16-1.57c.16-1.5-.37-2.19-1.43-2.19-1.2,0-1.84.85-1.84,2.07,0,.39.07.6.07.6h-1.8s-.09-.25-.09-.8c0-2.07,1.4-3.57,3.89-3.57s3.46,1.38,3.18,3.96l-.48,4.63c-.07.74.02,1.15.6,1.15l-.14,1.45Zm-2.28-4.31h-2.01c-1.15,0-1.77.6-1.77,1.61,0,.83.48,1.29,1.27,1.29,1.73,0,2.49-2.51,2.49-2.51l.02-.39Z"/><path class="cls-4" d="m413.97,222.09s-1.03,1.2-2.46,1.2c-2.44,0-3.23-1.5-2.93-4.28l.56-5.33h-1.38l.16-1.63h1.38l.37-3.46h2.01l-.37,3.46h3.27l-.16,1.63h-3.27l-.55,5.25c-.18,1.75.21,2.63,1.31,2.63.95,0,1.61-.85,1.61-.85l.46,1.38Z"/><path class="cls-4" d="m418.21,223.12s-.3.09-.87.09c-1.2,0-1.82-.74-1.64-2.44l.92-8.73h2.01l-.9,8.5c-.07.71.07,1.1.65,1.1l-.16,1.48Zm-.27-13.32c-.71,0-1.18-.51-1.18-1.22,0-.86.65-1.53,1.45-1.53.67,0,1.18.53,1.18,1.25,0,.86-.69,1.5-1.45,1.5"/><path class="cls-4" d="m420.4,218.54c0-4.06,1.89-6.63,4.72-6.63,2.26,0,3.55,1.77,3.55,4.77,0,4.01-1.87,6.62-4.74,6.62-2.24,0-3.53-1.78-3.53-4.75m6.31-1.87c0-2.03-.64-3.06-1.77-3.06-1.54,0-2.58,1.77-2.58,4.91,0,2.03.62,3.07,1.75,3.07,1.64,0,2.6-1.82,2.6-4.91"/><path class="cls-4" d="m438.85,223.12s-.32.09-.87.09c-1.2,0-1.82-.74-1.64-2.44l.46-4.51c.16-1.55-.21-2.65-1.43-2.65-1.34,0-2.17,1.82-2.31,3.2l-.67,6.34h-1.96l.9-8.52c.07-.67-.05-1.08-.62-1.08l.16-1.48s.3-.09.88-.09c.89,0,1.52.63,1.43,1.68l-.04.58c.37-1.2,1.31-2.33,2.95-2.33,2.28,0,2.97,1.96,2.72,4.36l-.44,4.28c-.07.71.07,1.1.64,1.1l-.16,1.48Z"/><path class="cls-4" d="m363.35,236.89s.16-.57.16-1.06c0-.76-.41-1.38-1.59-1.38-1.25,0-1.87.71-1.87,1.8,0,2.44,4.77.58,4.77,4.24,0,2.17-1.29,3.64-3.98,3.64-3.14,0-3.78-2.21-3.78-2.21l1.27-1.31s.76,1.82,2.58,1.82c1.31,0,1.91-.64,1.91-1.59,0-2.12-4.77-.48-4.77-4.28,0-1.91,1.08-3.8,4.03-3.8,2.49,0,3.29,1.38,3.29,2.79,0,.81-.3,1.36-.3,1.36h-1.73Z"/><path class="cls-4" d="m366.71,239.38c0-4.06,1.89-6.63,4.72-6.63,2.26,0,3.55,1.77,3.55,4.77,0,4.01-1.87,6.62-4.75,6.62-2.23,0-3.52-1.78-3.52-4.75m6.31-1.87c0-2.02-.64-3.06-1.78-3.06-1.54,0-2.58,1.77-2.58,4.91,0,2.03.62,3.07,1.75,3.07,1.64,0,2.6-1.82,2.6-4.91"/><path class="cls-4" d="m379.19,243.96s-.32.09-.9.09c-1.2,0-1.8-.74-1.61-2.44l1.49-14.36h2.01l-1.48,14.12c-.07.72.09,1.11.64,1.11l-.16,1.48Z"/><path class="cls-4" d="m389.58,243.96s-.32.09-.87.09c-1.08,0-1.71-.6-1.45-1.84l.02-.09c-.51,1.04-1.52,2.01-3.23,2.01-1.96,0-2.7-1.41-2.42-3.99l.76-7.26h1.98l-.74,7c-.21,1.91.37,2.53,1.27,2.53,1.57,0,2.35-2.14,2.44-3.02l.69-6.52h1.98l-.9,8.48c-.07.71.02,1.13.62,1.13l-.16,1.48Z"/><path class="cls-4" d="m398.19,242.93s-1.03,1.2-2.46,1.2c-2.44,0-3.23-1.5-2.93-4.29l.56-5.32h-1.38l.16-1.64h1.38l.37-3.46h2.01l-.37,3.46h3.28l-.16,1.64h-3.27l-.55,5.25c-.19,1.75.21,2.63,1.31,2.63.94,0,1.61-.86,1.61-.86l.46,1.38Z"/><path class="cls-4" d="m402.43,243.96s-.3.09-.88.09c-1.2,0-1.82-.74-1.64-2.44l.92-8.73h2.01l-.9,8.5c-.07.72.07,1.11.65,1.11l-.16,1.48Zm-.28-13.32c-.71,0-1.17-.51-1.17-1.22,0-.85.64-1.52,1.45-1.52.67,0,1.17.53,1.17,1.24,0,.85-.69,1.5-1.45,1.5"/><path class="cls-4" d="m404.62,239.38c0-4.06,1.89-6.63,4.72-6.63,2.26,0,3.55,1.77,3.55,4.77,0,4.01-1.87,6.62-4.74,6.62-2.24,0-3.53-1.78-3.53-4.75m6.31-1.87c0-2.02-.64-3.06-1.77-3.06-1.54,0-2.58,1.77-2.58,4.91,0,2.03.62,3.07,1.75,3.07,1.63,0,2.6-1.82,2.6-4.91"/><path class="cls-4" d="m423.07,243.96s-.32.09-.88.09c-1.2,0-1.82-.74-1.64-2.44l.46-4.52c.16-1.54-.21-2.65-1.43-2.65-1.34,0-2.17,1.82-2.31,3.2l-.67,6.33h-1.96l.9-8.52c.07-.67-.05-1.08-.62-1.08l.16-1.48s.3-.09.87-.09c.9,0,1.52.62,1.43,1.68l-.05.57c.37-1.19,1.31-2.33,2.95-2.33,2.28,0,2.97,1.96,2.72,4.35l-.44,4.28c-.07.72.07,1.11.64,1.11l-.16,1.48Z"/><path class="cls-4" d="m96.78,243.99l2.72-25.48c.2-2.06-.13-3.31-1.79-3.31l.33-3.12s.53-.2,1.79-.2c2.05,0,3.85,1.33,3.38,4.91l-.26,2.52c1.26-3.98,4.05-7.7,8.83-7.7,2.19,0,3.31.73,3.31.73l-2.06,3.78s-.86-.66-2.65-.66c-4.38,0-7.04,5.91-7.57,10.28l-1.92,18.25h-4.12Z"/><path class="cls-4" d="m118.88,227.73l-.07.8c-1.06,9.95,3.38,12.35,6.51,12.35,4.71,0,7.23-4.65,7.23-4.65l2.05,2.39s-3.18,5.77-10.22,5.77c-5.24,0-9.89-3.52-9.89-13.47,0-12.94,4.98-19.31,13.14-19.31,7.16,0,8.96,6.3,8.09,14.33l-.13,1.79h-16.72Zm13.14-2.98c.53-5.31-.6-9.62-4.98-9.62-3.58,0-6.57,2.85-7.76,9.62h12.74Z"/><polygon class="cls-4" points="146.08 243.99 139.78 212.01 144.29 212.01 148.94 239.15 159.29 212.01 163.6 212.01 150.6 243.99 146.08 243.99"/><path class="cls-4" d="m168.45,227.73l-.07.8c-1.06,9.95,3.38,12.35,6.5,12.35,4.71,0,7.24-4.65,7.24-4.65l2.05,2.39s-3.18,5.77-10.22,5.77c-5.24,0-9.89-3.52-9.89-13.47,0-12.94,4.98-19.31,13.14-19.31,7.16,0,8.96,6.3,8.09,14.33l-.13,1.79h-16.72Zm13.14-2.98c.54-5.31-.6-9.62-4.97-9.62-3.58,0-6.57,2.85-7.77,9.62h12.74Z"/><path class="cls-4" d="m190.34,243.99l3.05-28.6h-3.72l.33-3.39h3.72l.6-5.64c.6-6.31,3.85-10.68,9.56-10.68,4.45,0,6.1,3.18,6.1,3.18l-1.79,3.05s-1.06-2.72-4.24-2.72c-2.92,0-5.05,2.72-5.58,7.3l-.6,5.51h9.29l-.33,3.39h-9.29l-2.98,28.6h-4.12Z"/><path class="cls-4" d="m211.58,227.73l-.07.8c-1.07,9.95,3.39,12.35,6.5,12.35,4.71,0,7.23-4.65,7.23-4.65l2.05,2.39s-3.18,5.77-10.22,5.77c-5.24,0-9.89-3.52-9.89-13.47,0-12.94,4.98-19.31,13.14-19.31,7.17,0,8.96,6.3,8.1,14.33l-.14,1.79h-16.72Zm13.14-2.98c.53-5.31-.6-9.62-4.98-9.62-3.58,0-6.57,2.85-7.77,9.62h12.74Z"/><path class="cls-4" d="m255.58,243.93s-.66.2-1.86.2c-2.72,0-4.31-1.79-3.85-6.24l1.46-13.8c.53-5.05-.86-8.96-4.91-8.96-4.58,0-7.37,6.1-7.83,10.62l-1.92,18.25h-4.05l2.72-25.55c.2-1.99-.13-3.25-1.79-3.25l.33-3.12s.6-.2,1.86-.2c2.12,0,3.65,1.59,3.39,4.78l-.2,2.52c.06-.46,1.86-7.56,8.82-7.56,6.44,0,8.43,5.57,7.7,12.48l-1.39,13.4c-.27,2.19.13,3.32,1.86,3.32l-.33,3.12Z"/><path class="cls-4" d="m283.25,243.93s-.8.2-1.99.2c-2.32,0-3.72-1.46-3.45-4.84l.13-1.46s-2.65,6.57-8.96,6.57c-4.58,0-8.56-3.98-8.56-13.21,0-13.74,5.77-19.57,12.21-19.57,5.71,0,7.57,5.24,7.57,5.24l.46-4.85h3.72l-2.65,25.49c-.27,2.19.13,3.32,1.86,3.32l-.33,3.12Zm-4.05-21.97c0-.46-.86-6.83-6.24-6.83-4.65,0-8.49,5.44-8.49,15.59,0,6.84,2.52,10.16,5.84,10.16,5.91,0,7.77-7.9,7.77-7.97l1.13-10.95Z"/><path class="cls-4" d="m308.67,238.62s-2.65,5.77-10.22,5.77c-5.25,0-9.89-3.52-9.89-13.47,0-13.01,5.24-19.31,13.34-19.31,5.84,0,8.23,4.04,8.23,8.49,0,2.39-.73,4.31-.73,4.31h-3.78s.6-1.72.6-3.52c0-2.72-1.06-5.77-4.65-5.77-5.24,0-8.89,4.85-8.89,15.33,0,8.3,3.78,10.42,6.7,10.42,4.71,0,7.23-4.65,7.23-4.65l2.06,2.39Z"/><path class="cls-4" d="m319.41,243.93s-.66.2-1.86.2c-2.72,0-4.31-1.79-3.85-6.24l2.72-25.88h4.11l-2.65,25.48c-.2,2.19.2,3.32,1.86,3.32l-.33,3.12Zm0-38.82c-1.59,0-2.65-1.19-2.65-2.79,0-1.93,1.46-3.45,3.26-3.45,1.52,0,2.65,1.2,2.65,2.85,0,1.93-1.6,3.39-3.26,3.39"/><path class="cls-4" d="m348.08,243.93s-.66.2-1.86.2c-2.72,0-4.31-1.79-3.85-6.24l1.46-13.8c.53-5.05-.86-8.96-4.91-8.96-4.58,0-7.37,6.1-7.83,10.62l-1.92,18.25h-4.05l2.72-25.55c.2-1.99-.13-3.25-1.79-3.25l.33-3.12s.6-.2,1.86-.2c2.12,0,3.65,1.59,3.39,4.78l-.2,2.52c.07-.46,1.86-7.56,8.82-7.56,6.44,0,8.43,5.57,7.7,12.48l-1.39,13.4c-.27,2.19.13,3.32,1.86,3.32l-.33,3.12Z"/><path class="cls-3" d="m468.33,121.65h3.42c1.69,0,2.94.76,2.94,2.41,0,1.17-.65,1.93-1.61,2.26l1.85,2.62h-2.14l-1.57-2.3h-1.12v2.3h-1.77v-7.29Zm3.3,3.54c.81,0,1.25-.41,1.25-1.01,0-.64-.48-1.01-1.25-1.01h-1.53v2.02h1.53Z"/><path class="cls-3" d="m471.27,119.48c3.28,0,5.95,2.67,5.95,5.96s-2.67,5.95-5.95,5.95-5.95-2.67-5.95-5.95,2.67-5.96,5.95-5.96m0-1.1c-3.89,0-7.05,3.16-7.05,7.05s3.16,7.05,7.05,7.05,7.05-3.16,7.05-7.05-3.16-7.05-7.05-7.05"/><path class="cls-3" d="m100.15,104.34h2.4c1.19,0,2.07.54,2.07,1.7,0,.82-.45,1.36-1.13,1.58l1.3,1.84h-1.5l-1.1-1.61h-.79v1.61h-1.24v-5.12Zm2.32,2.49c.56,0,.88-.28.88-.71,0-.45-.34-.71-.88-.71h-1.08v1.41h1.08Z"/><path class="cls-3" d="m102.21,102.81c2.3,0,4.18,1.88,4.18,4.18s-1.87,4.18-4.18,4.18-4.18-1.87-4.18-4.18,1.87-4.18,4.18-4.18m0-.77c-2.73,0-4.95,2.22-4.95,4.95s2.21,4.95,4.95,4.95,4.95-2.22,4.95-4.95-2.22-4.95-4.95-4.95"/></g></svg>