<?xml version="1.0" encoding="UTF-8"?><svg id="Layer_2" xmlns="http://www.w3.org/2000/svg" viewBox="0 0 26.53 26.53"><defs><style>.cls-1{fill:#595a5c;}.cls-1,.cls-2{fill-rule:evenodd;}.cls-2{fill:#fff;}</style></defs><g id="Layer_1-2"><path class="cls-2" d="m21.79,4.73c4.72,4.72,4.72,12.34,0,17.06-4.72,4.71-12.34,4.72-17.06,0C.02,17.08.02,9.45,4.74,4.73,9.45.02,17.08.02,21.79,4.73"/><path class="cls-1" d="m22.65,3.88C17.47-1.29,9.06-1.3,3.88,3.88c-5.18,5.17-5.18,13.59,0,18.76,5.18,5.18,13.59,5.18,18.76,0,5.18-5.18,5.18-13.59,0-18.76m-.85.85c4.72,4.72,4.72,12.34,0,17.06-4.72,4.71-12.34,4.72-17.06,0C.02,17.08.02,9.45,4.74,4.73,9.45.02,17.08.02,21.79,4.73"/><path class="cls-1" d="m13.64,6.39c-.26-.21-.64-.17-.85.08-.09.11-.14.25-.14.4v5.79h-5.79c-.34,0-.61.27-.61.61s.27.61.61.61h5.8v5.79c0,.34.26.61.6.61s.61-.27.61-.61v-5.79s5.79,0,5.79,0c.33,0,.61-.26.61-.59,0-.17-.07-.34-.19-.45-.11-.11-.26-.17-.42-.17h-5.78v-5.79c0-.16-.07-.32-.19-.43-.02-.02-.03-.03-.05-.05"/></g></svg>