<?xml version="1.0" encoding="UTF-8"?><svg id="Layer_2" xmlns="http://www.w3.org/2000/svg" xmlns:xlink="http://www.w3.org/1999/xlink" viewBox="0 0 765.19 407.93"><defs><style>.cls-1,.cls-2,.cls-3,.cls-4,.cls-5,.cls-6,.cls-7,.cls-8{fill:none;}.cls-9,.cls-10{font-family:ArialMT, Arial;}.cls-2{stroke:#919496;stroke-width:1.08px;}.cls-2,.cls-5,.cls-6,.cls-7,.cls-8{stroke-miterlimit:10;}.cls-11{clip-path:url(#clippath);}.cls-12,.cls-13,.cls-14{font-family:Arial-BoldMT, Arial;font-weight:700;}.cls-12,.cls-10,.cls-14{fill:#595a5c;}.cls-12,.cls-14{font-size:18.01px;}.cls-15,.cls-16{fill:#939598;}.cls-17,.cls-18{fill:#0d73bb;}.cls-3,.cls-4{stroke-linejoin:bevel;stroke-width:3.26px;}.cls-3,.cls-4,.cls-5,.cls-8{stroke-linecap:round;}.cls-3,.cls-6{stroke:#0d73bb;}.cls-4{stroke:#939598;}.cls-19{clip-path:url(#clippath-1);}.cls-20{clip-path:url(#clippath-4);}.cls-21{clip-path:url(#clippath-3);}.cls-22{clip-path:url(#clippath-2);}.cls-23{clip-path:url(#clippath-7);}.cls-24{clip-path:url(#clippath-8);}.cls-25{clip-path:url(#clippath-6);}.cls-26{clip-path:url(#clippath-5);}.cls-27{clip-path:url(#clippath-9);}.cls-28{letter-spacing:-.02em;}.cls-29{clip-path:url(#clippath-20);}.cls-30{clip-path:url(#clippath-21);}.cls-31{clip-path:url(#clippath-24);}.cls-32{clip-path:url(#clippath-23);}.cls-33{clip-path:url(#clippath-22);}.cls-34{clip-path:url(#clippath-25);}.cls-35{clip-path:url(#clippath-40);}.cls-36{clip-path:url(#clippath-42);}.cls-37{clip-path:url(#clippath-41);}.cls-38{clip-path:url(#clippath-27);}.cls-39{clip-path:url(#clippath-28);}.cls-40{clip-path:url(#clippath-26);}.cls-41{clip-path:url(#clippath-29);}.cls-42{clip-path:url(#clippath-34);}.cls-43{clip-path:url(#clippath-35);}.cls-44{clip-path:url(#clippath-36);}.cls-45{clip-path:url(#clippath-37);}.cls-46{clip-path:url(#clippath-39);}.cls-47{clip-path:url(#clippath-33);}.cls-48{clip-path:url(#clippath-32);}.cls-49{clip-path:url(#clippath-30);}.cls-50{clip-path:url(#clippath-38);}.cls-51{clip-path:url(#clippath-31);}.cls-52{clip-path:url(#clippath-14);}.cls-53{clip-path:url(#clippath-13);}.cls-54{clip-path:url(#clippath-12);}.cls-55{clip-path:url(#clippath-10);}.cls-56{clip-path:url(#clippath-15);}.cls-57{clip-path:url(#clippath-17);}.cls-58{clip-path:url(#clippath-16);}.cls-59{clip-path:url(#clippath-19);}.cls-60{clip-path:url(#clippath-11);}.cls-61{clip-path:url(#clippath-18);}.cls-5,.cls-6,.cls-8{stroke-width:1.2px;}.cls-5,.cls-7,.cls-8{stroke:#595a5c;}.cls-62{opacity:.15;}.cls-10{font-size:16.16px;}.cls-14{letter-spacing:0em;}.cls-7{stroke-width:2.4px;}.cls-8{stroke-dasharray:0 0 7.28 7.28;}.cls-18,.cls-16{font-size:18px;}</style><clipPath id="clippath"><rect class="cls-1" x="92.68" y="223.99" width="14.13" height="12.23"/></clipPath><clipPath id="clippath-1"><rect class="cls-1" x="92.4" y="254.02" width="14.13" height="12.23"/></clipPath><clipPath id="clippath-2"><rect class="cls-1" x="100.3" y="242.21" width="14.13" height="12.23"/></clipPath><clipPath id="clippath-3"><rect class="cls-1" x="106.3" y="229.7" width="14.13" height="12.23"/></clipPath><clipPath id="clippath-4"><rect class="cls-1" x="117.12" y="242.47" width="14.13" height="12.23"/></clipPath><clipPath id="clippath-5"><rect class="cls-1" x="142.11" y="210.23" width="14.13" height="12.23"/></clipPath><clipPath id="clippath-6"><rect class="cls-1" x="195.4" y="213.8" width="14.13" height="12.23"/></clipPath><clipPath id="clippath-7"><rect class="cls-1" x="245.98" y="234.95" width="14.13" height="12.23"/></clipPath><clipPath id="clippath-8"><rect class="cls-1" x="297.01" y="240.72" width="14.13" height="12.23"/></clipPath><clipPath id="clippath-9"><rect class="cls-1" x="348.64" y="239.34" width="14.13" height="12.23"/></clipPath><clipPath id="clippath-10"><rect class="cls-1" x="399.27" y="239.35" width="14.13" height="12.23"/></clipPath><clipPath id="clippath-11"><rect class="cls-1" x="476.92" y="260.56" width="14.13" height="12.23"/></clipPath><clipPath id="clippath-12"><rect class="cls-1" x="629.05" y="267.81" width="14.13" height="12.23"/></clipPath><clipPath id="clippath-13"><rect class="cls-1" x="655.62" y="254.15" width="14.13" height="12.23"/></clipPath><clipPath id="clippath-14"><rect class="cls-1" x="686.41" y="238.03" width="14.13" height="12.23"/></clipPath><clipPath id="clippath-15"><rect class="cls-1" x="700.42" y="225.67" width="14.13" height="12.23"/></clipPath><clipPath id="clippath-16"><rect class="cls-1" x="100.79" y="39.58" width="640.39" height="1.2"/></clipPath><clipPath id="clippath-17"><rect class="cls-1" x="100.79" y="64.8" width="640.39" height="1.2"/></clipPath><clipPath id="clippath-18"><rect class="cls-1" x="100.79" y="113.43" width="640.39" height="1.2"/></clipPath><clipPath id="clippath-19"><rect class="cls-1" x="100.79" y="88.81" width="640.39" height="1.2"/></clipPath><clipPath id="clippath-20"><rect class="cls-1" x="100.79" y="260.51" width="640.39" height="1.2"/></clipPath><clipPath id="clippath-21"><rect class="cls-1" x="100.79" y="236.2" width="640.39" height="1.2"/></clipPath><clipPath id="clippath-22"><rect class="cls-1" x="100.79" y="211.88" width="640.39" height="1.2"/></clipPath><clipPath id="clippath-23"><rect class="cls-1" x="100.83" y="162.51" width="640.39" height="1.2"/></clipPath><clipPath id="clippath-24"><rect class="cls-1" x="100.83" y="138.34" width="640.39" height="1.2"/></clipPath><clipPath id="clippath-25"><rect class="cls-1" x="100.79" y="285.13" width="640.39" height="1.2"/></clipPath><clipPath id="clippath-26"><rect class="cls-1" x="100.79" y="310.04" width="640.39" height="1.2"/></clipPath><clipPath id="clippath-27"><rect class="cls-1" x="246.54" y="149.2" width="13.66" height="13.66"/></clipPath><clipPath id="clippath-28"><rect class="cls-1" x="297.37" y="138.82" width="13.66" height="13.66"/></clipPath><clipPath id="clippath-29"><rect class="cls-1" x="349.09" y="160.93" width="13.66" height="13.66"/></clipPath><clipPath id="clippath-30"><rect class="cls-1" x="399.52" y="150.84" width="13.66" height="13.66"/></clipPath><clipPath id="clippath-31"><rect class="cls-1" x="476.85" y="175.54" width="13.66" height="13.66"/></clipPath><clipPath id="clippath-32"><rect class="cls-1" x="630.09" y="181.09" width="13.66" height="13.66"/></clipPath><clipPath id="clippath-33"><rect class="cls-1" x="655.15" y="160.83" width="13.66" height="13.66"/></clipPath><clipPath id="clippath-34"><rect class="cls-1" x="687.42" y="122.71" width="13.66" height="13.66"/></clipPath><clipPath id="clippath-35"><rect class="cls-1" x="94" y="150.84" width="13.66" height="13.66"/></clipPath><clipPath id="clippath-36"><rect class="cls-1" x="195.52" y="127.54" width="13.66" height="13.66"/></clipPath><clipPath id="clippath-37"><rect class="cls-1" x="144.55" y="105.84" width="13.66" height="13.66"/></clipPath><clipPath id="clippath-38"><rect class="cls-1" x="117.88" y="111.25" width="13.66" height="13.66"/></clipPath><clipPath id="clippath-39"><rect class="cls-1" x="92.94" y="129.43" width="13.66" height="13.66"/></clipPath><clipPath id="clippath-40"><rect class="cls-1" x="105.36" y="120.44" width="13.66" height="13.66"/></clipPath><clipPath id="clippath-41"><rect class="cls-1" x="101.09" y="127.68" width="13.66" height="13.66"/></clipPath><clipPath id="clippath-42"><rect class="cls-1" x="701.54" y="121.31" width="13.66" height="13.66"/></clipPath></defs><g id="Layer_1-2"><rect class="cls-2" x=".54" y=".54" width="764.11" height="406.85"/><g class="cls-11"><polygon class="cls-15" points="99.74 223.99 92.68 236.22 106.81 236.22 99.74 223.99"/></g><g class="cls-19"><polygon class="cls-15" points="99.47 254.02 92.4 266.25 106.53 266.25 99.47 254.02"/></g><g class="cls-22"><polygon class="cls-15" points="107.36 242.21 100.3 254.44 114.42 254.44 107.36 242.21"/></g><g class="cls-21"><polygon class="cls-15" points="113.36 229.7 106.3 241.93 120.43 241.93 113.36 229.7"/></g><g class="cls-20"><polygon class="cls-15" points="124.18 242.47 117.12 254.71 131.24 254.71 124.18 242.47"/></g><g class="cls-26"><polygon class="cls-15" points="149.17 210.23 142.11 222.46 156.23 222.46 149.17 210.23"/></g><g class="cls-25"><polygon class="cls-15" points="202.46 213.8 195.4 226.03 209.52 226.03 202.46 213.8"/></g><g class="cls-23"><polygon class="cls-15" points="253.05 234.95 245.98 247.18 260.11 247.18 253.05 234.95"/></g><g class="cls-24"><polygon class="cls-15" points="304.08 240.72 297.01 252.95 311.14 252.95 304.08 240.72"/></g><g class="cls-27"><polygon class="cls-15" points="355.71 239.34 348.64 251.58 362.77 251.58 355.71 239.34"/></g><g class="cls-55"><polygon class="cls-15" points="406.33 239.35 399.27 251.58 413.4 251.58 406.33 239.35"/></g><g class="cls-60"><polygon class="cls-15" points="483.98 260.56 476.92 272.79 491.04 272.79 483.98 260.56"/></g><g class="cls-54"><polygon class="cls-15" points="636.12 267.81 629.05 280.04 643.18 280.04 636.12 267.81"/></g><g class="cls-53"><polygon class="cls-15" points="662.68 254.15 655.62 266.38 669.74 266.38 662.68 254.15"/></g><g class="cls-52"><polygon class="cls-15" points="693.48 238.03 686.41 250.27 700.54 250.27 693.48 238.03"/></g><g class="cls-56"><polygon class="cls-15" points="707.49 225.67 700.42 237.9 714.55 237.9 707.49 225.67"/></g><line class="cls-7" x1="87.52" y1="338.59" x2="729.45" y2="338.59"/><line class="cls-5" x1="727.92" y1="187.5" x2="724.31" y2="187.5"/><line class="cls-8" x1="717.04" y1="187.5" x2="94.76" y2="187.5"/><line class="cls-5" x1="91.13" y1="187.5" x2="87.52" y2="187.5"/><text class="cls-16" transform="translate(300.34 305.56)"><tspan class="cls-13" x="0" y="0">Placebo </tspan><tspan class="cls-9" x="74.03" y="0">(n=83)</tspan></text><polyline class="cls-3" points="99.68 137.64 100.79 160.25 106.49 136.24 112.29 127.24 124.3 117.23 151.11 112.23 253.17 157.05 304.2 145.65 355.83 169.06 406.46 158.25 482.9 182.67 636.57 188.64 662.29 168.27 693.79 128.55 706.96 128.13"/><polyline class="cls-4" points="99.78 230.53 100.79 261.11 111.72 236.8 124.31 249.57 149.29 217.32 202.59 220.9 253.17 242.05 304.2 247.82 355.83 246.44 406.46 245.89 483.33 267.87 636.07 275.56 694.03 245.34 708.04 232.98"/><text class="cls-18" transform="translate(295.86 108.11)"><tspan class="cls-13" x="0" y="0">YUPELRI </tspan><tspan class="cls-9" x="83.01" y="0">(n=89)</tspan></text><text class="cls-10" transform="translate(55.35 94.89)"><tspan x="0" y="0">200</tspan></text><text class="cls-10" transform="translate(55.35 70.88)"><tspan x="0" y="0">250</tspan></text><text class="cls-10" transform="translate(55.35 119.3)"><tspan x="0" y="0">150</tspan></text><text class="cls-10" transform="translate(56.64 144.32)"><tspan x="0" y="0">1</tspan></text><text class="cls-10" transform="translate(64.33 144.32)"><tspan x="0" y="0">00</tspan></text><text class="cls-10" transform="translate(64.33 169.04)"><tspan x="0" y="0">50</tspan></text><text class="cls-10" transform="translate(73.32 192.86)"><tspan x="0" y="0">0</tspan></text><text class="cls-10" transform="translate(58.95 217.27)"><tspan x="0" y="0">-50</tspan></text><text class="cls-10" transform="translate(49.97 315.94)"><tspan x="0" y="0">-250</tspan></text><text class="cls-10" transform="translate(49.97 291.22)"><tspan x="0" y="0">-200</tspan></text><text class="cls-10" transform="translate(50.94 267.5)"><tspan x="0" y="0">-</tspan></text><text class="cls-10" transform="translate(56.32 267.5)"><tspan x="0" y="0">1</tspan></text><text class="cls-10" transform="translate(64.33 267.5)"><tspan x="0" y="0">50</tspan></text><text class="cls-10" transform="translate(50.94 242.89)"><tspan x="0" y="0">-</tspan></text><text class="cls-10" transform="translate(56.32 242.89)"><tspan x="0" y="0">1</tspan></text><text class="cls-10" transform="translate(64.33 242.89)"><tspan x="0" y="0">00</tspan></text><text class="cls-10" transform="translate(55.35 45.41)"><tspan x="0" y="0">300</tspan></text><text class="cls-10" transform="translate(49.97 340.36)"><tspan x="0" y="0">-300</tspan></text><text class="cls-12" transform="translate(39.42 365.14) rotate(-90)"><tspan x="0" y="0">LS mean FEV</tspan></text><text class="cls-14" transform="translate(45.42 250.04) rotate(-90) scale(.58)"><tspan x="0" y="0">1</tspan></text><text class="cls-12" transform="translate(39.42 244.2) rotate(-90)"><tspan x="0" y="0" xml:space="preserve">  change from baseline, mL</tspan></text><text class="cls-12" transform="translate(333.13 389.14)"><tspan class="cls-28" x="0" y="0">T</tspan><tspan x="10.68" y="0">ime, hours</tspan></text><text class="cls-10" transform="translate(694.6 363.03)"><tspan x="0" y="0">2</tspan></text><text class="cls-10" transform="translate(702.61 363.03)"><tspan x="0" y="0">4h</tspan></text><text class="cls-10" transform="translate(342.69 363.03)"><tspan x="0" y="0">1</tspan></text><text class="cls-10" transform="translate(350.39 363.03)"><tspan x="0" y="0">0h</tspan></text><text class="cls-10" transform="translate(393.59 363.03)"><tspan x="0" y="0">1</tspan></text><text class="cls-10" transform="translate(400.96 363.03)"><tspan x="0" y="0">2h</tspan></text><text class="cls-10" transform="translate(193.36 363.03)"><tspan x="0" y="0">4h</tspan></text><text class="cls-10" transform="translate(244.08 363.03)"><tspan x="0" y="0">6h</tspan></text><text class="cls-10" transform="translate(295.2 363.03)"><tspan x="0" y="0">8h</tspan></text><text class="cls-10" transform="translate(140.44 363.03)"><tspan x="0" y="0">2h</tspan></text><text class="cls-10" transform="translate(115.7 363.03)"><tspan x="0" y="0">1</tspan></text><text class="cls-10" transform="translate(123.39 363.03)"><tspan x="0" y="0">h</tspan></text><text class="cls-10" transform="translate(96.16 363.03)"><tspan x="0" y="0">5</tspan></text><text class="cls-10" transform="translate(87.63 382.42)"><tspan x="0" y="0">min</tspan></text><text class="cls-10" transform="translate(471.58 363.03)"><tspan x="0" y="0">1</tspan></text><text class="cls-10" transform="translate(478.95 363.03)"><tspan x="0" y="0">5h</tspan></text><text class="cls-10" transform="translate(624.15 363.03)"><tspan x="0" y="0">21h</tspan></text><text class="cls-10" transform="translate(657.8 363.03)"><tspan x="0" y="0">22h</tspan></text><g class="cls-62"><g class="cls-58"><line class="cls-6" x1="100.79" y1="40.18" x2="741.18" y2="40.18"/></g></g><g class="cls-62"><g class="cls-57"><line class="cls-6" x1="100.79" y1="65.4" x2="741.18" y2="65.4"/></g></g><g class="cls-62"><g class="cls-61"><line class="cls-6" x1="100.79" y1="114.03" x2="741.18" y2="114.03"/></g></g><g class="cls-62"><g class="cls-59"><line class="cls-6" x1="100.79" y1="89.41" x2="741.18" y2="89.41"/></g></g><g class="cls-62"><g class="cls-29"><line class="cls-6" x1="100.79" y1="261.11" x2="741.18" y2="261.11"/></g></g><g class="cls-62"><g class="cls-30"><line class="cls-6" x1="100.79" y1="236.8" x2="741.18" y2="236.8"/></g></g><g class="cls-62"><g class="cls-33"><line class="cls-6" x1="100.79" y1="212.48" x2="741.18" y2="212.48"/></g></g><g class="cls-62"><g class="cls-32"><line class="cls-6" x1="100.83" y1="163.11" x2="741.22" y2="163.11"/></g></g><g class="cls-62"><g class="cls-31"><line class="cls-6" x1="100.83" y1="138.94" x2="741.22" y2="138.94"/></g></g><g class="cls-62"><g class="cls-34"><line class="cls-6" x1="100.79" y1="285.73" x2="741.18" y2="285.73"/></g></g><g class="cls-62"><g class="cls-40"><line class="cls-6" x1="100.79" y1="310.64" x2="741.18" y2="310.64"/></g></g><g class="cls-38"><path class="cls-17" d="m260.2,156.03c0,3.77-3.06,6.83-6.83,6.83s-6.83-3.06-6.83-6.83,3.06-6.83,6.83-6.83,6.83,3.06,6.83,6.83"/></g><g class="cls-39"><path class="cls-17" d="m311.03,145.65c0,3.77-3.06,6.83-6.83,6.83s-6.83-3.06-6.83-6.83,3.06-6.83,6.83-6.83,6.83,3.06,6.83,6.83"/></g><g class="cls-41"><path class="cls-17" d="m362.75,167.76c0,3.77-3.06,6.83-6.83,6.83s-6.83-3.06-6.83-6.83,3.06-6.83,6.83-6.83,6.83,3.06,6.83,6.83"/></g><g class="cls-49"><path class="cls-17" d="m413.18,157.67c0,3.77-3.06,6.83-6.83,6.83s-6.83-3.06-6.83-6.83,3.06-6.83,6.83-6.83,6.83,3.06,6.83,6.83"/></g><g class="cls-51"><path class="cls-17" d="m490.51,182.37c0,3.77-3.06,6.83-6.83,6.83s-6.83-3.06-6.83-6.83,3.06-6.83,6.83-6.83,6.83,3.06,6.83,6.83"/></g><g class="cls-48"><path class="cls-17" d="m643.75,187.92c0,3.77-3.06,6.83-6.83,6.83s-6.83-3.06-6.83-6.83,3.06-6.83,6.83-6.83,6.83,3.06,6.83,6.83"/></g><g class="cls-47"><path class="cls-17" d="m668.81,167.66c0,3.77-3.06,6.83-6.83,6.83s-6.83-3.06-6.83-6.83,3.06-6.83,6.83-6.83,6.83,3.06,6.83,6.83"/></g><g class="cls-42"><path class="cls-17" d="m701.08,129.54c0,3.77-3.06,6.83-6.83,6.83s-6.83-3.06-6.83-6.83,3.06-6.83,6.83-6.83,6.83,3.06,6.83,6.83"/></g><g class="cls-43"><path class="cls-17" d="m107.66,157.66c0,3.77-3.06,6.83-6.83,6.83s-6.83-3.06-6.83-6.83,3.06-6.83,6.83-6.83,6.83,3.06,6.83,6.83"/></g><g class="cls-44"><path class="cls-17" d="m209.18,134.37c0,3.77-3.06,6.83-6.83,6.83s-6.83-3.06-6.83-6.83,3.06-6.83,6.83-6.83,6.83,3.06,6.83,6.83"/></g><g class="cls-45"><path class="cls-17" d="m158.2,112.67c0,3.77-3.06,6.83-6.83,6.83s-6.83-3.06-6.83-6.83,3.06-6.83,6.83-6.83,6.83,3.06,6.83,6.83"/></g><g class="cls-50"><path class="cls-17" d="m131.53,118.07c0,3.77-3.06,6.83-6.83,6.83s-6.83-3.06-6.83-6.83,3.06-6.83,6.83-6.83,6.83,3.06,6.83,6.83"/></g><g class="cls-46"><path class="cls-17" d="m106.59,136.26c0,3.77-3.06,6.83-6.83,6.83s-6.83-3.06-6.83-6.83,3.06-6.83,6.83-6.83,6.83,3.06,6.83,6.83"/></g><g class="cls-35"><path class="cls-17" d="m119.01,127.26c0,3.77-3.06,6.83-6.83,6.83s-6.83-3.06-6.83-6.83,3.06-6.83,6.83-6.83,6.83,3.06,6.83,6.83"/></g><g class="cls-37"><path class="cls-17" d="m114.75,134.5c0,3.77-3.06,6.83-6.83,6.83s-6.83-3.06-6.83-6.83,3.06-6.83,6.83-6.83,6.83,3.06,6.83,6.83"/></g><g class="cls-36"><path class="cls-17" d="m715.2,128.14c0,3.77-3.06,6.83-6.83,6.83s-6.83-3.06-6.83-6.83,3.06-6.83,6.83-6.83,6.83,3.06,6.83,6.83"/></g></g></svg>